<mxfile host="app.diagrams.net" modified="2022-03-14T12:27:23.944Z" agent="5.0 (Macintosh; Intel Mac OS X 10_15_7) AppleWebKit/537.36 (KHTML, like Gecko) Chrome/99.0.4844.51 Safari/537.36" etag="eRraQ9RCbBf3ZBZCMAYr" version="17.1.1" type="github">
  <diagram id="wxv-DhRrD6hWVLPp3QyR" name="Page-1">
    <mxGraphModel dx="2125" dy="945" grid="1" gridSize="10" guides="1" tooltips="1" connect="1" arrows="1" fold="1" page="1" pageScale="1" pageWidth="827" pageHeight="1169" math="0" shadow="0">
      <root>
        <mxCell id="0" />
        <mxCell id="1" parent="0" />
        <mxCell id="Lr-_QGNphBaJh8-wqTKY-24" value="" style="rounded=0;whiteSpace=wrap;html=1;fillColor=#FFFFFF;" parent="1" vertex="1">
          <mxGeometry x="-90" y="340" width="210" height="250" as="geometry" />
        </mxCell>
        <mxCell id="Lr-_QGNphBaJh8-wqTKY-3" style="edgeStyle=orthogonalEdgeStyle;rounded=0;orthogonalLoop=1;jettySize=auto;html=1;exitX=0.5;exitY=1;exitDx=0;exitDy=0;entryX=0.5;entryY=0;entryDx=0;entryDy=0;" parent="1" source="Lr-_QGNphBaJh8-wqTKY-1" target="Lr-_QGNphBaJh8-wqTKY-2" edge="1">
          <mxGeometry relative="1" as="geometry" />
        </mxCell>
        <mxCell id="Lr-_QGNphBaJh8-wqTKY-1" value="start" style="ellipse;whiteSpace=wrap;html=1;" parent="1" vertex="1">
          <mxGeometry x="380" y="40" width="80" height="40" as="geometry" />
        </mxCell>
        <mxCell id="Lr-_QGNphBaJh8-wqTKY-5" style="edgeStyle=orthogonalEdgeStyle;rounded=0;orthogonalLoop=1;jettySize=auto;html=1;exitX=0;exitY=0.5;exitDx=0;exitDy=0;entryX=0.5;entryY=0;entryDx=0;entryDy=0;" parent="1" source="Lr-_QGNphBaJh8-wqTKY-2" target="Lr-_QGNphBaJh8-wqTKY-4" edge="1">
          <mxGeometry relative="1" as="geometry" />
        </mxCell>
        <mxCell id="Lr-_QGNphBaJh8-wqTKY-7" style="edgeStyle=orthogonalEdgeStyle;rounded=0;orthogonalLoop=1;jettySize=auto;html=1;exitX=1;exitY=0.5;exitDx=0;exitDy=0;" parent="1" source="Lr-_QGNphBaJh8-wqTKY-2" target="Lr-_QGNphBaJh8-wqTKY-6" edge="1">
          <mxGeometry relative="1" as="geometry" />
        </mxCell>
        <mxCell id="Lr-_QGNphBaJh8-wqTKY-2" value="FzHotelTradeService.queryHotelInitBizInfo4Render" style="rounded=0;whiteSpace=wrap;html=1;fillColor=#B9E0A5;" parent="1" vertex="1">
          <mxGeometry x="275" y="100" width="290" height="30" as="geometry" />
        </mxCell>
        <mxCell id="Lr-_QGNphBaJh8-wqTKY-9" style="edgeStyle=orthogonalEdgeStyle;rounded=0;orthogonalLoop=1;jettySize=auto;html=1;exitX=0.5;exitY=1;exitDx=0;exitDy=0;entryX=0.5;entryY=0;entryDx=0;entryDy=0;" parent="1" source="Lr-_QGNphBaJh8-wqTKY-4" target="Lr-_QGNphBaJh8-wqTKY-8" edge="1">
          <mxGeometry relative="1" as="geometry" />
        </mxCell>
        <mxCell id="Lr-_QGNphBaJh8-wqTKY-4" value="getFzHotelRenderOrderInitDOByBPM" style="rounded=0;whiteSpace=wrap;html=1;" parent="1" vertex="1">
          <mxGeometry x="100" y="160" width="290" height="30" as="geometry" />
        </mxCell>
        <mxCell id="Lr-_QGNphBaJh8-wqTKY-6" value="saveBuyNowTradeSnapshot" style="rounded=0;whiteSpace=wrap;html=1;" parent="1" vertex="1">
          <mxGeometry x="580.75" y="160" width="290" height="30" as="geometry" />
        </mxCell>
        <mxCell id="Lr-_QGNphBaJh8-wqTKY-67" style="edgeStyle=orthogonalEdgeStyle;rounded=0;orthogonalLoop=1;jettySize=auto;html=1;exitX=0.5;exitY=1;exitDx=0;exitDy=0;entryX=0;entryY=0.5;entryDx=0;entryDy=0;" parent="1" source="Lr-_QGNphBaJh8-wqTKY-8" target="Lr-_QGNphBaJh8-wqTKY-57" edge="1">
          <mxGeometry relative="1" as="geometry" />
        </mxCell>
        <mxCell id="Lr-_QGNphBaJh8-wqTKY-79" style="edgeStyle=orthogonalEdgeStyle;rounded=0;orthogonalLoop=1;jettySize=auto;html=1;exitX=0.5;exitY=1;exitDx=0;exitDy=0;entryX=0.5;entryY=0;entryDx=0;entryDy=0;" parent="1" source="Lr-_QGNphBaJh8-wqTKY-8" target="Lr-_QGNphBaJh8-wqTKY-68" edge="1">
          <mxGeometry relative="1" as="geometry" />
        </mxCell>
        <mxCell id="Lr-_QGNphBaJh8-wqTKY-8" value="" style="rounded=0;whiteSpace=wrap;html=1;" parent="1" vertex="1">
          <mxGeometry x="150" y="210" width="190" height="240" as="geometry" />
        </mxCell>
        <mxCell id="Lr-_QGNphBaJh8-wqTKY-10" value="加载商品基本信息" style="text;html=1;strokeColor=none;fillColor=none;align=center;verticalAlign=middle;whiteSpace=wrap;rounded=0;" parent="1" vertex="1">
          <mxGeometry x="70" y="210" width="60" height="30" as="geometry" />
        </mxCell>
        <mxCell id="Lr-_QGNphBaJh8-wqTKY-13" value="FzHotelItemActivity.init" style="text;html=1;strokeColor=none;fillColor=none;align=center;verticalAlign=middle;whiteSpace=wrap;rounded=0;" parent="1" vertex="1">
          <mxGeometry x="172.5" y="214" width="145" height="30" as="geometry" />
        </mxCell>
        <mxCell id="Lr-_QGNphBaJh8-wqTKY-16" style="edgeStyle=orthogonalEdgeStyle;rounded=0;orthogonalLoop=1;jettySize=auto;html=1;exitX=0;exitY=0.5;exitDx=0;exitDy=0;entryX=1;entryY=0.5;entryDx=0;entryDy=0;" parent="1" source="Lr-_QGNphBaJh8-wqTKY-14" target="Lr-_QGNphBaJh8-wqTKY-15" edge="1">
          <mxGeometry relative="1" as="geometry" />
        </mxCell>
        <mxCell id="Lr-_QGNphBaJh8-wqTKY-20" style="edgeStyle=orthogonalEdgeStyle;rounded=0;orthogonalLoop=1;jettySize=auto;html=1;exitX=0.5;exitY=1;exitDx=0;exitDy=0;entryX=0.5;entryY=0;entryDx=0;entryDy=0;" parent="1" source="Lr-_QGNphBaJh8-wqTKY-14" target="Lr-_QGNphBaJh8-wqTKY-18" edge="1">
          <mxGeometry relative="1" as="geometry" />
        </mxCell>
        <mxCell id="Lr-_QGNphBaJh8-wqTKY-31" style="edgeStyle=orthogonalEdgeStyle;rounded=0;orthogonalLoop=1;jettySize=auto;html=1;exitX=1;exitY=0.5;exitDx=0;exitDy=0;" parent="1" source="Lr-_QGNphBaJh8-wqTKY-14" target="Lr-_QGNphBaJh8-wqTKY-30" edge="1">
          <mxGeometry relative="1" as="geometry" />
        </mxCell>
        <mxCell id="Lr-_QGNphBaJh8-wqTKY-14" value="loadHotelItem" style="rounded=0;whiteSpace=wrap;html=1;fillColor=#FFF2CC;" parent="1" vertex="1">
          <mxGeometry x="160" y="250" width="170" height="30" as="geometry" />
        </mxCell>
        <mxCell id="Lr-_QGNphBaJh8-wqTKY-15" value="getItemDataWithValidateForIC" style="rounded=1;whiteSpace=wrap;html=1;fillColor=#FFF2CC;" parent="1" vertex="1">
          <mxGeometry x="-90" y="250" width="210" height="30" as="geometry" />
        </mxCell>
        <mxCell id="Lr-_QGNphBaJh8-wqTKY-17" value="htq请求，查询商品信息" style="text;html=1;strokeColor=none;fillColor=none;align=center;verticalAlign=middle;whiteSpace=wrap;rounded=0;" parent="1" vertex="1">
          <mxGeometry x="-200" y="250" width="90" height="30" as="geometry" />
        </mxCell>
        <mxCell id="Lr-_QGNphBaJh8-wqTKY-23" style="edgeStyle=orthogonalEdgeStyle;rounded=0;orthogonalLoop=1;jettySize=auto;html=1;exitX=0.5;exitY=1;exitDx=0;exitDy=0;entryX=0.5;entryY=0;entryDx=0;entryDy=0;" parent="1" source="Lr-_QGNphBaJh8-wqTKY-18" target="Lr-_QGNphBaJh8-wqTKY-21" edge="1">
          <mxGeometry relative="1" as="geometry" />
        </mxCell>
        <mxCell id="Lr-_QGNphBaJh8-wqTKY-18" value="hotelItemValiate" style="rounded=0;whiteSpace=wrap;html=1;fillColor=#FFF2CC;" parent="1" vertex="1">
          <mxGeometry x="160" y="300" width="170" height="30" as="geometry" />
        </mxCell>
        <mxCell id="Lr-_QGNphBaJh8-wqTKY-19" value="商品渠道验证" style="text;html=1;strokeColor=none;fillColor=none;align=center;verticalAlign=middle;whiteSpace=wrap;rounded=0;" parent="1" vertex="1">
          <mxGeometry x="60" y="300" width="90" height="30" as="geometry" />
        </mxCell>
        <mxCell id="Lr-_QGNphBaJh8-wqTKY-43" style="edgeStyle=orthogonalEdgeStyle;rounded=0;orthogonalLoop=1;jettySize=auto;html=1;exitX=0;exitY=0.5;exitDx=0;exitDy=0;" parent="1" source="Lr-_QGNphBaJh8-wqTKY-21" target="Lr-_QGNphBaJh8-wqTKY-24" edge="1">
          <mxGeometry relative="1" as="geometry" />
        </mxCell>
        <mxCell id="Lr-_QGNphBaJh8-wqTKY-61" style="edgeStyle=orthogonalEdgeStyle;rounded=0;orthogonalLoop=1;jettySize=auto;html=1;exitX=0.5;exitY=1;exitDx=0;exitDy=0;entryX=0.5;entryY=0;entryDx=0;entryDy=0;" parent="1" source="Lr-_QGNphBaJh8-wqTKY-21" target="Lr-_QGNphBaJh8-wqTKY-60" edge="1">
          <mxGeometry relative="1" as="geometry" />
        </mxCell>
        <mxCell id="Lr-_QGNphBaJh8-wqTKY-21" value="paralleInvoke4Accelerate" style="rounded=0;whiteSpace=wrap;html=1;fillColor=#FFF2CC;" parent="1" vertex="1">
          <mxGeometry x="160" y="350" width="170" height="30" as="geometry" />
        </mxCell>
        <mxCell id="Lr-_QGNphBaJh8-wqTKY-22" value="并行调用外部请求" style="text;html=1;strokeColor=none;fillColor=none;align=center;verticalAlign=middle;whiteSpace=wrap;rounded=0;" parent="1" vertex="1">
          <mxGeometry x="-25" y="310" width="80" height="30" as="geometry" />
        </mxCell>
        <mxCell id="Lr-_QGNphBaJh8-wqTKY-37" style="edgeStyle=orthogonalEdgeStyle;rounded=0;orthogonalLoop=1;jettySize=auto;html=1;exitX=0;exitY=0.5;exitDx=0;exitDy=0;" parent="1" source="Lr-_QGNphBaJh8-wqTKY-26" target="Lr-_QGNphBaJh8-wqTKY-36" edge="1">
          <mxGeometry relative="1" as="geometry" />
        </mxCell>
        <mxCell id="Lr-_QGNphBaJh8-wqTKY-26" value="&lt;span&gt;checkUserWithCache&lt;/span&gt;" style="rounded=1;whiteSpace=wrap;html=1;fillColor=#FFF2CC;" parent="1" vertex="1">
          <mxGeometry x="-70" y="350" width="170" height="30" as="geometry" />
        </mxCell>
        <mxCell id="Lr-_QGNphBaJh8-wqTKY-28" value="huc请求，查询用户资格缓存" style="text;html=1;strokeColor=none;fillColor=none;align=center;verticalAlign=middle;whiteSpace=wrap;rounded=0;" parent="1" vertex="1">
          <mxGeometry x="-360" y="285" width="90" height="30" as="geometry" />
        </mxCell>
        <mxCell id="Lr-_QGNphBaJh8-wqTKY-30" value="&lt;span style=&quot;color: rgb(51 , 51 , 51) ; font-family: &amp;#34;roboto&amp;#34; , &amp;#34;helvetica neue&amp;#34; , &amp;#34;helvetica&amp;#34; , &amp;#34;tahoma&amp;#34; , &amp;#34;arial&amp;#34; , &amp;#34;pingfang sc&amp;#34; , &amp;#34;microsoft yahei&amp;#34; ; background-color: rgb(229 , 255 , 243)&quot;&gt;1.渲染商品域查询行业数据成功&lt;br&gt;&lt;/span&gt;&lt;span style=&quot;color: rgb(51 , 51 , 51) ; font-family: &amp;#34;roboto&amp;#34; , &amp;#34;helvetica neue&amp;#34; , &amp;#34;helvetica&amp;#34; , &amp;#34;tahoma&amp;#34; , &amp;#34;arial&amp;#34; , &amp;#34;pingfang sc&amp;#34; , &amp;#34;microsoft yahei&amp;#34; ; font-weight: 700 ; background-color: rgb(250 , 250 , 250)&quot;&gt;2.商品域查商品返回原始结果&lt;br&gt;&lt;/span&gt;&lt;span style=&quot;color: rgb(51 , 51 , 51) ; font-family: &amp;#34;roboto&amp;#34; , &amp;#34;helvetica neue&amp;#34; , &amp;#34;helvetica&amp;#34; , &amp;#34;tahoma&amp;#34; , &amp;#34;arial&amp;#34; , &amp;#34;pingfang sc&amp;#34; , &amp;#34;microsoft yahei&amp;#34; ; background-color: rgb(229 , 255 , 243)&quot;&gt;3.&lt;/span&gt;&lt;span style=&quot;color: rgb(51 , 51 , 51) ; font-family: &amp;#34;roboto&amp;#34; , &amp;#34;helvetica neue&amp;#34; , &amp;#34;helvetica&amp;#34; , &amp;#34;tahoma&amp;#34; , &amp;#34;arial&amp;#34; , &amp;#34;pingfang sc&amp;#34; , &amp;#34;microsoft yahei&amp;#34; ; background-color: rgb(229 , 255 , 243)&quot;&gt;商品域处理，填充query数据&lt;br&gt;&lt;/span&gt;&lt;span style=&quot;color: rgb(51 , 51 , 51) ; font-family: &amp;#34;roboto&amp;#34; , &amp;#34;helvetica neue&amp;#34; , &amp;#34;helvetica&amp;#34; , &amp;#34;tahoma&amp;#34; , &amp;#34;arial&amp;#34; , &amp;#34;pingfang sc&amp;#34; , &amp;#34;microsoft yahei&amp;#34; ; background-color: rgb(229 , 255 , 243)&quot;&gt;4.根据商品计算tradePayType&lt;br&gt;&lt;/span&gt;" style="shape=process;whiteSpace=wrap;html=1;backgroundOutline=1;fillColor=#9AC7BF;" parent="1" vertex="1">
          <mxGeometry x="380" y="232.5" width="370" height="65" as="geometry" />
        </mxCell>
        <mxCell id="Lr-_QGNphBaJh8-wqTKY-36" value="&lt;div style=&quot;text-align: center&quot;&gt;&lt;span style=&quot;background-color: rgb(250 , 250 , 250) ; color: rgb(51 , 51 , 51) ; font-family: &amp;#34;roboto&amp;#34; , &amp;#34;helvetica neue&amp;#34; , &amp;#34;helvetica&amp;#34; , &amp;#34;tahoma&amp;#34; , &amp;#34;arial&amp;#34; , &amp;#34;pingfang sc&amp;#34; , &amp;#34;microsoft yahei&amp;#34;&quot;&gt;1.查询用户资格合并结果&lt;/span&gt;&lt;/div&gt;&lt;div style=&quot;text-align: center&quot;&gt;&lt;span style=&quot;background-color: rgb(250 , 250 , 250) ; color: rgb(51 , 51 , 51) ; font-family: &amp;#34;roboto&amp;#34; , &amp;#34;helvetica neue&amp;#34; , &amp;#34;helvetica&amp;#34; , &amp;#34;tahoma&amp;#34; , &amp;#34;arial&amp;#34; , &amp;#34;pingfang sc&amp;#34; , &amp;#34;microsoft yahei&amp;#34;&quot;&gt;2.查询用户资格信息&lt;/span&gt;&lt;/div&gt;&lt;span style=&quot;color: rgb(51 , 51 , 51) ; font-family: &amp;#34;roboto&amp;#34; , &amp;#34;helvetica neue&amp;#34; , &amp;#34;helvetica&amp;#34; , &amp;#34;tahoma&amp;#34; , &amp;#34;arial&amp;#34; , &amp;#34;pingfang sc&amp;#34; , &amp;#34;microsoft yahei&amp;#34; ; background-color: rgb(229 , 255 , 243)&quot;&gt;3.并行调用外部接口加速-checkUserRight调用成功&lt;/span&gt;" style="shape=process;whiteSpace=wrap;html=1;backgroundOutline=1;fillColor=#9AC7BF;" parent="1" vertex="1">
          <mxGeometry x="-520" y="320" width="390" height="62.5" as="geometry" />
        </mxCell>
        <mxCell id="Lr-_QGNphBaJh8-wqTKY-41" style="edgeStyle=orthogonalEdgeStyle;rounded=0;orthogonalLoop=1;jettySize=auto;html=1;exitX=0;exitY=0.5;exitDx=0;exitDy=0;entryX=1;entryY=0.5;entryDx=0;entryDy=0;" parent="1" source="Lr-_QGNphBaJh8-wqTKY-38" target="Lr-_QGNphBaJh8-wqTKY-39" edge="1">
          <mxGeometry relative="1" as="geometry" />
        </mxCell>
        <mxCell id="Lr-_QGNphBaJh8-wqTKY-38" value="userMatchCrowdCondition" style="rounded=1;whiteSpace=wrap;html=1;fillColor=#FFF2CC;" parent="1" vertex="1">
          <mxGeometry x="-70" y="390" width="170" height="30" as="geometry" />
        </mxCell>
        <mxCell id="Lr-_QGNphBaJh8-wqTKY-39" value="&lt;div style=&quot;text-align: center&quot;&gt;&lt;font color=&quot;#333333&quot; face=&quot;roboto, helvetica neue, helvetica, tahoma, arial, pingfang sc, microsoft yahei&quot;&gt;&lt;span style=&quot;background-color: rgb(250 , 250 , 250)&quot;&gt;1.查询买家圈人信息成功&lt;/span&gt;&lt;/font&gt;&lt;/div&gt;&lt;div style=&quot;text-align: center&quot;&gt;&lt;font color=&quot;#333333&quot; face=&quot;roboto, helvetica neue, helvetica, tahoma, arial, pingfang sc, microsoft yahei&quot;&gt;&lt;span style=&quot;background-color: rgb(250 , 250 , 250)&quot;&gt;2.并行调用外部接口加速-fetchUserUpfIds调用成功&lt;/span&gt;&lt;/font&gt;&lt;/div&gt;" style="shape=process;whiteSpace=wrap;html=1;backgroundOutline=1;fillColor=#9AC7BF;" parent="1" vertex="1">
          <mxGeometry x="-520" y="387.5" width="390" height="35" as="geometry" />
        </mxCell>
        <mxCell id="Lr-_QGNphBaJh8-wqTKY-46" style="edgeStyle=orthogonalEdgeStyle;rounded=0;orthogonalLoop=1;jettySize=auto;html=1;exitX=0;exitY=0.5;exitDx=0;exitDy=0;" parent="1" source="Lr-_QGNphBaJh8-wqTKY-44" target="Lr-_QGNphBaJh8-wqTKY-45" edge="1">
          <mxGeometry relative="1" as="geometry" />
        </mxCell>
        <mxCell id="Lr-_QGNphBaJh8-wqTKY-44" value="getF2VMapLevel3" style="rounded=1;whiteSpace=wrap;html=1;fillColor=#FFFFFF;" parent="1" vertex="1">
          <mxGeometry x="-70" y="430" width="170" height="30" as="geometry" />
        </mxCell>
        <mxCell id="Lr-_QGNphBaJh8-wqTKY-45" value="&lt;div style=&quot;text-align: center&quot;&gt;&lt;span style=&quot;background-color: rgb(250 , 250 , 250) ; color: rgb(51 , 51 , 51) ; font-family: &amp;#34;roboto&amp;#34; , &amp;#34;helvetica neue&amp;#34; , &amp;#34;helvetica&amp;#34; , &amp;#34;tahoma&amp;#34; , &amp;#34;arial&amp;#34; , &amp;#34;pingfang sc&amp;#34; , &amp;#34;microsoft yahei&amp;#34;&quot;&gt;1.并行调用外部接口加速-getF2VMapLevel3调用成功&lt;/span&gt;&lt;br&gt;&lt;/div&gt;" style="shape=process;whiteSpace=wrap;html=1;backgroundOutline=1;fillColor=#9AC7BF;" parent="1" vertex="1">
          <mxGeometry x="-520" y="427.5" width="390" height="35" as="geometry" />
        </mxCell>
        <mxCell id="Lr-_QGNphBaJh8-wqTKY-49" style="edgeStyle=orthogonalEdgeStyle;rounded=0;orthogonalLoop=1;jettySize=auto;html=1;exitX=0;exitY=0.5;exitDx=0;exitDy=0;entryX=1;entryY=0.5;entryDx=0;entryDy=0;" parent="1" source="Lr-_QGNphBaJh8-wqTKY-47" target="Lr-_QGNphBaJh8-wqTKY-48" edge="1">
          <mxGeometry relative="1" as="geometry" />
        </mxCell>
        <mxCell id="Lr-_QGNphBaJh8-wqTKY-47" value="getAllLatesrGuests" style="rounded=1;whiteSpace=wrap;html=1;fillColor=#FFF2CC;" parent="1" vertex="1">
          <mxGeometry x="-70" y="470" width="170" height="30" as="geometry" />
        </mxCell>
        <mxCell id="Lr-_QGNphBaJh8-wqTKY-48" value="&lt;div style=&quot;text-align: center&quot;&gt;&lt;span style=&quot;background-color: rgb(250 , 250 , 250) ; color: rgb(51 , 51 , 51) ; font-family: &amp;#34;roboto&amp;#34; , &amp;#34;helvetica neue&amp;#34; , &amp;#34;helvetica&amp;#34; , &amp;#34;tahoma&amp;#34; , &amp;#34;arial&amp;#34; , &amp;#34;pingfang sc&amp;#34; , &amp;#34;microsoft yahei&amp;#34;&quot;&gt;1.并行调用外部接口加速-upcLatestGuest调用成功&lt;/span&gt;&lt;br&gt;&lt;/div&gt;" style="shape=process;whiteSpace=wrap;html=1;backgroundOutline=1;fillColor=#9AC7BF;" parent="1" vertex="1">
          <mxGeometry x="-520" y="467.5" width="390" height="35" as="geometry" />
        </mxCell>
        <mxCell id="Lr-_QGNphBaJh8-wqTKY-53" style="edgeStyle=orthogonalEdgeStyle;rounded=0;orthogonalLoop=1;jettySize=auto;html=1;exitX=0;exitY=0.5;exitDx=0;exitDy=0;entryX=1;entryY=0.5;entryDx=0;entryDy=0;" parent="1" source="Lr-_QGNphBaJh8-wqTKY-50" target="Lr-_QGNphBaJh8-wqTKY-51" edge="1">
          <mxGeometry relative="1" as="geometry" />
        </mxCell>
        <mxCell id="Lr-_QGNphBaJh8-wqTKY-50" value="getBaseUserByUserId" style="rounded=1;whiteSpace=wrap;html=1;fillColor=#FFF2CC;" parent="1" vertex="1">
          <mxGeometry x="-70" y="510" width="170" height="30" as="geometry" />
        </mxCell>
        <mxCell id="Lr-_QGNphBaJh8-wqTKY-51" value="&lt;div style=&quot;text-align: center&quot;&gt;&lt;span style=&quot;background-color: rgb(250 , 250 , 250) ; color: rgb(51 , 51 , 51) ; font-family: &amp;#34;roboto&amp;#34; , &amp;#34;helvetica neue&amp;#34; , &amp;#34;helvetica&amp;#34; , &amp;#34;tahoma&amp;#34; , &amp;#34;arial&amp;#34; , &amp;#34;pingfang sc&amp;#34; , &amp;#34;microsoft yahei&amp;#34;&quot;&gt;1.并行调用外部接口加速-uidUserInfo调用成功&lt;/span&gt;&lt;br&gt;&lt;/div&gt;" style="shape=process;whiteSpace=wrap;html=1;backgroundOutline=1;fillColor=#9AC7BF;" parent="1" vertex="1">
          <mxGeometry x="-520" y="506.5" width="390" height="35" as="geometry" />
        </mxCell>
        <mxCell id="Lr-_QGNphBaJh8-wqTKY-56" style="edgeStyle=orthogonalEdgeStyle;rounded=0;orthogonalLoop=1;jettySize=auto;html=1;exitX=0;exitY=0.5;exitDx=0;exitDy=0;entryX=1;entryY=0.5;entryDx=0;entryDy=0;" parent="1" source="Lr-_QGNphBaJh8-wqTKY-54" target="Lr-_QGNphBaJh8-wqTKY-55" edge="1">
          <mxGeometry relative="1" as="geometry" />
        </mxCell>
        <mxCell id="Lr-_QGNphBaJh8-wqTKY-54" value="queryHotelShidTagInfo&lt;br&gt;getSHotelByShidWithCache" style="rounded=1;whiteSpace=wrap;html=1;fillColor=#FFF2CC;" parent="1" vertex="1">
          <mxGeometry x="-70" y="550" width="170" height="30" as="geometry" />
        </mxCell>
        <mxCell id="Lr-_QGNphBaJh8-wqTKY-55" value="&lt;div style=&quot;text-align: center&quot;&gt;&lt;span style=&quot;background-color: rgb(250 , 250 , 250) ; color: rgb(51 , 51 , 51) ; font-family: &amp;#34;roboto&amp;#34; , &amp;#34;helvetica neue&amp;#34; , &amp;#34;helvetica&amp;#34; , &amp;#34;tahoma&amp;#34; , &amp;#34;arial&amp;#34; , &amp;#34;pingfang sc&amp;#34; , &amp;#34;microsoft yahei&amp;#34;&quot;&gt;1.并行调用外部接口加速-loadStandardHotelInfo调用成功&lt;/span&gt;&lt;br&gt;&lt;/div&gt;" style="shape=process;whiteSpace=wrap;html=1;backgroundOutline=1;fillColor=#9AC7BF;" parent="1" vertex="1">
          <mxGeometry x="-520" y="547" width="390" height="35" as="geometry" />
        </mxCell>
        <mxCell id="Lr-_QGNphBaJh8-wqTKY-57" value="&lt;span style=&quot;color: rgb(51 , 51 , 51) ; font-family: &amp;#34;roboto&amp;#34; , &amp;#34;helvetica neue&amp;#34; , &amp;#34;helvetica&amp;#34; , &amp;#34;tahoma&amp;#34; , &amp;#34;arial&amp;#34; , &amp;#34;pingfang sc&amp;#34; , &amp;#34;microsoft yahei&amp;#34; ; background-color: rgb(229 , 255 , 243)&quot;&gt;1.&lt;/span&gt;&lt;span style=&quot;color: rgb(51 , 51 , 51) ; font-family: &amp;#34;roboto&amp;#34; , &amp;#34;helvetica neue&amp;#34; , &amp;#34;helvetica&amp;#34; , &amp;#34;tahoma&amp;#34; , &amp;#34;arial&amp;#34; , &amp;#34;pingfang sc&amp;#34; , &amp;#34;microsoft yahei&amp;#34; ; background-color: rgb(229 , 255 , 243)&quot;&gt;商品域-加载基本信息&lt;/span&gt;&lt;span style=&quot;color: rgb(51 , 51 , 51) ; font-family: &amp;#34;roboto&amp;#34; , &amp;#34;helvetica neue&amp;#34; , &amp;#34;helvetica&amp;#34; , &amp;#34;tahoma&amp;#34; , &amp;#34;arial&amp;#34; , &amp;#34;pingfang sc&amp;#34; , &amp;#34;microsoft yahei&amp;#34; ; background-color: rgb(229 , 255 , 243)&quot;&gt;&lt;br&gt;&lt;/span&gt;" style="shape=process;whiteSpace=wrap;html=1;backgroundOutline=1;fillColor=#9AC7BF;" parent="1" vertex="1">
          <mxGeometry x="380" y="460" width="370" height="30" as="geometry" />
        </mxCell>
        <mxCell id="Lr-_QGNphBaJh8-wqTKY-64" style="edgeStyle=orthogonalEdgeStyle;rounded=0;orthogonalLoop=1;jettySize=auto;html=1;exitX=1;exitY=0.5;exitDx=0;exitDy=0;entryX=0;entryY=0.5;entryDx=0;entryDy=0;" parent="1" source="Lr-_QGNphBaJh8-wqTKY-60" target="Lr-_QGNphBaJh8-wqTKY-62" edge="1">
          <mxGeometry relative="1" as="geometry" />
        </mxCell>
        <mxCell id="Lr-_QGNphBaJh8-wqTKY-60" value="loadHotelFacility" style="rounded=0;whiteSpace=wrap;html=1;fillColor=#FFF2CC;" parent="1" vertex="1">
          <mxGeometry x="160" y="400" width="170" height="30" as="geometry" />
        </mxCell>
        <mxCell id="Lr-_QGNphBaJh8-wqTKY-62" value="getSRoomFacilityDetailBySrid" style="rounded=1;whiteSpace=wrap;html=1;fillColor=#FFF2CC;" parent="1" vertex="1">
          <mxGeometry x="380" y="400" width="210" height="30" as="geometry" />
        </mxCell>
        <mxCell id="Lr-_QGNphBaJh8-wqTKY-65" value="hpc请求，查询标准酒店设施信息" style="text;html=1;strokeColor=none;fillColor=none;align=center;verticalAlign=middle;whiteSpace=wrap;rounded=0;" parent="1" vertex="1">
          <mxGeometry x="610" y="400" width="110" height="30" as="geometry" />
        </mxCell>
        <mxCell id="Lr-_QGNphBaJh8-wqTKY-110" style="edgeStyle=orthogonalEdgeStyle;rounded=0;orthogonalLoop=1;jettySize=auto;html=1;exitX=0.5;exitY=1;exitDx=0;exitDy=0;entryX=0;entryY=0.5;entryDx=0;entryDy=0;" parent="1" source="Lr-_QGNphBaJh8-wqTKY-68" target="Lr-_QGNphBaJh8-wqTKY-104" edge="1">
          <mxGeometry relative="1" as="geometry" />
        </mxCell>
        <mxCell id="Lr-_QGNphBaJh8-wqTKY-123" style="edgeStyle=orthogonalEdgeStyle;rounded=0;orthogonalLoop=1;jettySize=auto;html=1;exitX=0.5;exitY=1;exitDx=0;exitDy=0;entryX=0.5;entryY=0;entryDx=0;entryDy=0;" parent="1" source="Lr-_QGNphBaJh8-wqTKY-68" target="Lr-_QGNphBaJh8-wqTKY-111" edge="1">
          <mxGeometry relative="1" as="geometry" />
        </mxCell>
        <mxCell id="Lr-_QGNphBaJh8-wqTKY-68" value="" style="rounded=0;whiteSpace=wrap;html=1;" parent="1" vertex="1">
          <mxGeometry x="150" y="620" width="190" height="280" as="geometry" />
        </mxCell>
        <mxCell id="Lr-_QGNphBaJh8-wqTKY-69" value="FzSellerActicity.basic" style="text;html=1;strokeColor=none;fillColor=none;align=center;verticalAlign=middle;whiteSpace=wrap;rounded=0;" parent="1" vertex="1">
          <mxGeometry x="172.5" y="624" width="145" height="30" as="geometry" />
        </mxCell>
        <mxCell id="Lr-_QGNphBaJh8-wqTKY-70" style="edgeStyle=orthogonalEdgeStyle;rounded=0;orthogonalLoop=1;jettySize=auto;html=1;exitX=0.5;exitY=1;exitDx=0;exitDy=0;entryX=0.5;entryY=0;entryDx=0;entryDy=0;" parent="1" source="Lr-_QGNphBaJh8-wqTKY-71" target="Lr-_QGNphBaJh8-wqTKY-73" edge="1">
          <mxGeometry relative="1" as="geometry" />
        </mxCell>
        <mxCell id="Lr-_QGNphBaJh8-wqTKY-82" style="edgeStyle=orthogonalEdgeStyle;rounded=0;orthogonalLoop=1;jettySize=auto;html=1;exitX=0;exitY=0.5;exitDx=0;exitDy=0;entryX=1;entryY=0.5;entryDx=0;entryDy=0;" parent="1" source="Lr-_QGNphBaJh8-wqTKY-71" target="Lr-_QGNphBaJh8-wqTKY-81" edge="1">
          <mxGeometry relative="1" as="geometry" />
        </mxCell>
        <mxCell id="Lr-_QGNphBaJh8-wqTKY-71" value="querySellerLabel" style="rounded=0;whiteSpace=wrap;html=1;fillColor=#FFF2CC;" parent="1" vertex="1">
          <mxGeometry x="160" y="660" width="170" height="30" as="geometry" />
        </mxCell>
        <mxCell id="Lr-_QGNphBaJh8-wqTKY-72" style="edgeStyle=orthogonalEdgeStyle;rounded=0;orthogonalLoop=1;jettySize=auto;html=1;exitX=0.5;exitY=1;exitDx=0;exitDy=0;entryX=0.5;entryY=0;entryDx=0;entryDy=0;" parent="1" source="Lr-_QGNphBaJh8-wqTKY-73" target="Lr-_QGNphBaJh8-wqTKY-75" edge="1">
          <mxGeometry relative="1" as="geometry" />
        </mxCell>
        <mxCell id="Lr-_QGNphBaJh8-wqTKY-88" style="edgeStyle=orthogonalEdgeStyle;rounded=0;orthogonalLoop=1;jettySize=auto;html=1;exitX=0;exitY=0.5;exitDx=0;exitDy=0;entryX=1;entryY=0.5;entryDx=0;entryDy=0;" parent="1" source="Lr-_QGNphBaJh8-wqTKY-73" target="Lr-_QGNphBaJh8-wqTKY-86" edge="1">
          <mxGeometry relative="1" as="geometry" />
        </mxCell>
        <mxCell id="Lr-_QGNphBaJh8-wqTKY-73" value="querySellerConfirmTime" style="rounded=0;whiteSpace=wrap;html=1;fillColor=#FFF2CC;" parent="1" vertex="1">
          <mxGeometry x="160" y="710" width="170" height="30" as="geometry" />
        </mxCell>
        <mxCell id="Lr-_QGNphBaJh8-wqTKY-74" style="edgeStyle=orthogonalEdgeStyle;rounded=0;orthogonalLoop=1;jettySize=auto;html=1;exitX=0.5;exitY=1;exitDx=0;exitDy=0;entryX=0.5;entryY=0;entryDx=0;entryDy=0;" parent="1" source="Lr-_QGNphBaJh8-wqTKY-75" target="Lr-_QGNphBaJh8-wqTKY-76" edge="1">
          <mxGeometry relative="1" as="geometry" />
        </mxCell>
        <mxCell id="Lr-_QGNphBaJh8-wqTKY-97" style="edgeStyle=orthogonalEdgeStyle;rounded=0;orthogonalLoop=1;jettySize=auto;html=1;exitX=0;exitY=0.5;exitDx=0;exitDy=0;" parent="1" source="Lr-_QGNphBaJh8-wqTKY-75" target="Lr-_QGNphBaJh8-wqTKY-96" edge="1">
          <mxGeometry relative="1" as="geometry" />
        </mxCell>
        <mxCell id="Lr-_QGNphBaJh8-wqTKY-75" value="querySellerUic" style="rounded=0;whiteSpace=wrap;html=1;fillColor=#FFF2CC;" parent="1" vertex="1">
          <mxGeometry x="160" y="760" width="170" height="30" as="geometry" />
        </mxCell>
        <mxCell id="Lr-_QGNphBaJh8-wqTKY-101" style="edgeStyle=orthogonalEdgeStyle;rounded=0;orthogonalLoop=1;jettySize=auto;html=1;exitX=0;exitY=0.5;exitDx=0;exitDy=0;" parent="1" source="Lr-_QGNphBaJh8-wqTKY-76" target="Lr-_QGNphBaJh8-wqTKY-99" edge="1">
          <mxGeometry relative="1" as="geometry" />
        </mxCell>
        <mxCell id="Lr-_QGNphBaJh8-wqTKY-107" style="edgeStyle=orthogonalEdgeStyle;rounded=0;orthogonalLoop=1;jettySize=auto;html=1;exitX=0.5;exitY=1;exitDx=0;exitDy=0;" parent="1" source="Lr-_QGNphBaJh8-wqTKY-76" target="Lr-_QGNphBaJh8-wqTKY-106" edge="1">
          <mxGeometry relative="1" as="geometry" />
        </mxCell>
        <mxCell id="Lr-_QGNphBaJh8-wqTKY-76" value="loadHotelFacility" style="rounded=0;whiteSpace=wrap;html=1;fillColor=#FFF2CC;" parent="1" vertex="1">
          <mxGeometry x="160" y="810" width="170" height="30" as="geometry" />
        </mxCell>
        <mxCell id="Lr-_QGNphBaJh8-wqTKY-93" style="edgeStyle=orthogonalEdgeStyle;rounded=0;orthogonalLoop=1;jettySize=auto;html=1;exitX=0;exitY=0.5;exitDx=0;exitDy=0;" parent="1" source="Lr-_QGNphBaJh8-wqTKY-81" target="Lr-_QGNphBaJh8-wqTKY-92" edge="1">
          <mxGeometry relative="1" as="geometry" />
        </mxCell>
        <mxCell id="Lr-_QGNphBaJh8-wqTKY-81" value="getLabelMap" style="rounded=1;whiteSpace=wrap;html=1;fillColor=#FFF2CC;" parent="1" vertex="1">
          <mxGeometry x="-90" y="660" width="210" height="30" as="geometry" />
        </mxCell>
        <mxCell id="Lr-_QGNphBaJh8-wqTKY-83" value="hsc请求，查询卖家标签" style="text;html=1;strokeColor=none;fillColor=none;align=center;verticalAlign=middle;whiteSpace=wrap;rounded=0;" parent="1" vertex="1">
          <mxGeometry x="-200" y="660" width="90" height="30" as="geometry" />
        </mxCell>
        <mxCell id="Lr-_QGNphBaJh8-wqTKY-90" style="edgeStyle=orthogonalEdgeStyle;rounded=0;orthogonalLoop=1;jettySize=auto;html=1;exitX=0;exitY=0.5;exitDx=0;exitDy=0;" parent="1" source="Lr-_QGNphBaJh8-wqTKY-86" target="Lr-_QGNphBaJh8-wqTKY-89" edge="1">
          <mxGeometry relative="1" as="geometry" />
        </mxCell>
        <mxCell id="Lr-_QGNphBaJh8-wqTKY-86" value="getOrderConfirmTimeSetting" style="rounded=1;whiteSpace=wrap;html=1;fillColor=#FFF2CC;" parent="1" vertex="1">
          <mxGeometry x="-90" y="710" width="210" height="30" as="geometry" />
        </mxCell>
        <mxCell id="Lr-_QGNphBaJh8-wqTKY-87" value="hsc请求，查询卖家标签" style="text;html=1;strokeColor=none;fillColor=none;align=center;verticalAlign=middle;whiteSpace=wrap;rounded=0;" parent="1" vertex="1">
          <mxGeometry x="-200" y="710" width="90" height="30" as="geometry" />
        </mxCell>
        <mxCell id="Lr-_QGNphBaJh8-wqTKY-89" value="&lt;div style=&quot;text-align: center&quot;&gt;&lt;/div&gt;&lt;span style=&quot;color: rgb(51 , 51 , 51) ; font-family: &amp;#34;roboto&amp;#34; , &amp;#34;helvetica neue&amp;#34; , &amp;#34;helvetica&amp;#34; , &amp;#34;tahoma&amp;#34; , &amp;#34;arial&amp;#34; , &amp;#34;pingfang sc&amp;#34; , &amp;#34;microsoft yahei&amp;#34; ; background-color: rgb(229 , 255 , 243)&quot;&gt;1.Buy2下单页渲染&lt;/span&gt;&lt;span style=&quot;color: rgb(51 , 51 , 51) ; font-family: &amp;#34;roboto&amp;#34; , &amp;#34;helvetica neue&amp;#34; , &amp;#34;helvetica&amp;#34; , &amp;#34;tahoma&amp;#34; , &amp;#34;arial&amp;#34; , &amp;#34;pingfang sc&amp;#34; , &amp;#34;microsoft yahei&amp;#34; ; background-color: rgb(229 , 255 , 243)&quot;&gt;querySellerConfirmTime&lt;/span&gt;&lt;span style=&quot;color: rgb(51 , 51 , 51) ; font-family: &amp;#34;roboto&amp;#34; , &amp;#34;helvetica neue&amp;#34; , &amp;#34;helvetica&amp;#34; , &amp;#34;tahoma&amp;#34; , &amp;#34;arial&amp;#34; , &amp;#34;pingfang sc&amp;#34; , &amp;#34;microsoft yahei&amp;#34; ; background-color: rgb(229 , 255 , 243)&quot;&gt;接口成功&lt;/span&gt;&lt;span style=&quot;color: rgb(51 , 51 , 51) ; font-family: &amp;#34;roboto&amp;#34; , &amp;#34;helvetica neue&amp;#34; , &amp;#34;helvetica&amp;#34; , &amp;#34;tahoma&amp;#34; , &amp;#34;arial&amp;#34; , &amp;#34;pingfang sc&amp;#34; , &amp;#34;microsoft yahei&amp;#34; ; background-color: rgb(250 , 250 , 250)&quot;&gt;&lt;br&gt;2.查询卖家服务时间数据信息&lt;/span&gt;" style="shape=process;whiteSpace=wrap;html=1;backgroundOutline=1;fillColor=#9AC7BF;" parent="1" vertex="1">
          <mxGeometry x="-570" y="707" width="351.5" height="35" as="geometry" />
        </mxCell>
        <mxCell id="Lr-_QGNphBaJh8-wqTKY-92" value="&lt;div style=&quot;text-align: center&quot;&gt;&lt;/div&gt;&lt;span style=&quot;color: rgb(51 , 51 , 51) ; font-family: &amp;#34;roboto&amp;#34; , &amp;#34;helvetica neue&amp;#34; , &amp;#34;helvetica&amp;#34; , &amp;#34;tahoma&amp;#34; , &amp;#34;arial&amp;#34; , &amp;#34;pingfang sc&amp;#34; , &amp;#34;microsoft yahei&amp;#34; ; background-color: rgb(229 , 255 , 243)&quot;&gt;1.Buy2下单页渲染&lt;/span&gt;&lt;span style=&quot;color: rgb(51 , 51 , 51) ; font-family: &amp;#34;roboto&amp;#34; , &amp;#34;helvetica neue&amp;#34; , &amp;#34;helvetica&amp;#34; , &amp;#34;tahoma&amp;#34; , &amp;#34;arial&amp;#34; , &amp;#34;pingfang sc&amp;#34; , &amp;#34;microsoft yahei&amp;#34; ; background-color: rgb(229 , 255 , 243)&quot;&gt;querySellerLabel&lt;/span&gt;&lt;span style=&quot;color: rgb(51 , 51 , 51) ; font-family: &amp;#34;roboto&amp;#34; , &amp;#34;helvetica neue&amp;#34; , &amp;#34;helvetica&amp;#34; , &amp;#34;tahoma&amp;#34; , &amp;#34;arial&amp;#34; , &amp;#34;pingfang sc&amp;#34; , &amp;#34;microsoft yahei&amp;#34; ; background-color: rgb(229 , 255 , 243)&quot;&gt;接口成功&lt;/span&gt;&lt;span style=&quot;color: rgb(51 , 51 , 51) ; font-family: &amp;#34;roboto&amp;#34; , &amp;#34;helvetica neue&amp;#34; , &amp;#34;helvetica&amp;#34; , &amp;#34;tahoma&amp;#34; , &amp;#34;arial&amp;#34; , &amp;#34;pingfang sc&amp;#34; , &amp;#34;microsoft yahei&amp;#34; ; background-color: rgb(250 , 250 , 250)&quot;&gt;&lt;br&gt;&lt;/span&gt;" style="shape=process;whiteSpace=wrap;html=1;backgroundOutline=1;fillColor=#9AC7BF;" parent="1" vertex="1">
          <mxGeometry x="-570" y="657.5" width="351.5" height="35" as="geometry" />
        </mxCell>
        <mxCell id="Lr-_QGNphBaJh8-wqTKY-96" value="&lt;div style=&quot;text-align: center&quot;&gt;&lt;/div&gt;&lt;span style=&quot;color: rgb(51 , 51 , 51) ; font-family: &amp;#34;roboto&amp;#34; , &amp;#34;helvetica neue&amp;#34; , &amp;#34;helvetica&amp;#34; , &amp;#34;tahoma&amp;#34; , &amp;#34;arial&amp;#34; , &amp;#34;pingfang sc&amp;#34; , &amp;#34;microsoft yahei&amp;#34; ; background-color: rgb(229 , 255 , 243)&quot;&gt;1.Buy2下单页渲染&lt;/span&gt;&lt;span style=&quot;color: rgb(51 , 51 , 51) ; font-family: &amp;#34;roboto&amp;#34; , &amp;#34;helvetica neue&amp;#34; , &amp;#34;helvetica&amp;#34; , &amp;#34;tahoma&amp;#34; , &amp;#34;arial&amp;#34; , &amp;#34;pingfang sc&amp;#34; , &amp;#34;microsoft yahei&amp;#34; ; background-color: rgb(229 , 255 , 243)&quot;&gt;querySellerUic&lt;/span&gt;&lt;span style=&quot;color: rgb(51 , 51 , 51) ; font-family: &amp;#34;roboto&amp;#34; , &amp;#34;helvetica neue&amp;#34; , &amp;#34;helvetica&amp;#34; , &amp;#34;tahoma&amp;#34; , &amp;#34;arial&amp;#34; , &amp;#34;pingfang sc&amp;#34; , &amp;#34;microsoft yahei&amp;#34; ; background-color: rgb(229 , 255 , 243)&quot;&gt;接口成功&lt;/span&gt;&lt;span style=&quot;color: rgb(51 , 51 , 51) ; font-family: &amp;#34;roboto&amp;#34; , &amp;#34;helvetica neue&amp;#34; , &amp;#34;helvetica&amp;#34; , &amp;#34;tahoma&amp;#34; , &amp;#34;arial&amp;#34; , &amp;#34;pingfang sc&amp;#34; , &amp;#34;microsoft yahei&amp;#34; ; background-color: rgb(250 , 250 , 250)&quot;&gt;&lt;br&gt;&lt;/span&gt;" style="shape=process;whiteSpace=wrap;html=1;backgroundOutline=1;fillColor=#9AC7BF;" parent="1" vertex="1">
          <mxGeometry x="-231.5" y="758" width="351.5" height="35" as="geometry" />
        </mxCell>
        <mxCell id="Lr-_QGNphBaJh8-wqTKY-103" style="edgeStyle=orthogonalEdgeStyle;rounded=0;orthogonalLoop=1;jettySize=auto;html=1;exitX=0;exitY=0.5;exitDx=0;exitDy=0;" parent="1" source="Lr-_QGNphBaJh8-wqTKY-99" target="Lr-_QGNphBaJh8-wqTKY-102" edge="1">
          <mxGeometry relative="1" as="geometry" />
        </mxCell>
        <mxCell id="Lr-_QGNphBaJh8-wqTKY-99" value="getSellerById" style="rounded=1;whiteSpace=wrap;html=1;fillColor=#FFF2CC;" parent="1" vertex="1">
          <mxGeometry x="-90" y="810" width="210" height="30" as="geometry" />
        </mxCell>
        <mxCell id="Lr-_QGNphBaJh8-wqTKY-102" value="&lt;div style=&quot;text-align: center&quot;&gt;&lt;/div&gt;&lt;span style=&quot;color: rgb(51 , 51 , 51) ; font-family: &amp;#34;roboto&amp;#34; , &amp;#34;helvetica neue&amp;#34; , &amp;#34;helvetica&amp;#34; , &amp;#34;tahoma&amp;#34; , &amp;#34;arial&amp;#34; , &amp;#34;pingfang sc&amp;#34; , &amp;#34;microsoft yahei&amp;#34; ; background-color: rgb(250 , 250 , 250)&quot;&gt;1.&lt;/span&gt;&lt;span style=&quot;color: rgb(51 , 51 , 51) ; font-family: &amp;#34;roboto&amp;#34; , &amp;#34;helvetica neue&amp;#34; , &amp;#34;helvetica&amp;#34; , &amp;#34;tahoma&amp;#34; , &amp;#34;arial&amp;#34; , &amp;#34;pingfang sc&amp;#34; , &amp;#34;microsoft yahei&amp;#34; ; background-color: rgb(229 , 255 , 243)&quot;&gt;Buy2下单页渲染querySeller接口成功&lt;/span&gt;" style="shape=process;whiteSpace=wrap;html=1;backgroundOutline=1;fillColor=#9AC7BF;" parent="1" vertex="1">
          <mxGeometry x="-570" y="807" width="351.5" height="35" as="geometry" />
        </mxCell>
        <mxCell id="Lr-_QGNphBaJh8-wqTKY-104" value="&lt;span style=&quot;color: rgb(51 , 51 , 51) ; font-family: &amp;#34;roboto&amp;#34; , &amp;#34;helvetica neue&amp;#34; , &amp;#34;helvetica&amp;#34; , &amp;#34;tahoma&amp;#34; , &amp;#34;arial&amp;#34; , &amp;#34;pingfang sc&amp;#34; , &amp;#34;microsoft yahei&amp;#34; ; background-color: rgb(229 , 255 , 243)&quot;&gt;1.卖家域&lt;/span&gt;&lt;span style=&quot;color: rgb(51 , 51 , 51) ; font-family: &amp;#34;roboto&amp;#34; , &amp;#34;helvetica neue&amp;#34; , &amp;#34;helvetica&amp;#34; , &amp;#34;tahoma&amp;#34; , &amp;#34;arial&amp;#34; , &amp;#34;pingfang sc&amp;#34; , &amp;#34;microsoft yahei&amp;#34; ; background-color: rgb(229 , 255 , 243)&quot;&gt;-加载基本信息&lt;br&gt;&lt;/span&gt;&lt;span style=&quot;color: rgb(51 , 51 , 51) ; font-family: &amp;#34;roboto&amp;#34; , &amp;#34;helvetica neue&amp;#34; , &amp;#34;helvetica&amp;#34; , &amp;#34;tahoma&amp;#34; , &amp;#34;arial&amp;#34; , &amp;#34;pingfang sc&amp;#34; , &amp;#34;microsoft yahei&amp;#34; ; background-color: rgb(229 , 255 , 243)&quot;&gt;2.卖家域，卖家信息SellerDO&lt;br&gt;&lt;/span&gt;" style="shape=process;whiteSpace=wrap;html=1;backgroundOutline=1;fillColor=#9AC7BF;" parent="1" vertex="1">
          <mxGeometry x="380" y="910" width="370" height="30" as="geometry" />
        </mxCell>
        <mxCell id="Lr-_QGNphBaJh8-wqTKY-106" value="&lt;span style=&quot;font-family: &amp;#34;helvetica&amp;#34;&quot;&gt;getF2VMapLevel3&lt;/span&gt;" style="rounded=0;whiteSpace=wrap;html=1;fillColor=#FFF2CC;" parent="1" vertex="1">
          <mxGeometry x="160" y="860" width="170" height="30" as="geometry" />
        </mxCell>
        <mxCell id="Lr-_QGNphBaJh8-wqTKY-190" style="edgeStyle=orthogonalEdgeStyle;rounded=0;orthogonalLoop=1;jettySize=auto;html=1;exitX=0.5;exitY=1;exitDx=0;exitDy=0;entryX=0.5;entryY=0;entryDx=0;entryDy=0;" parent="1" source="Lr-_QGNphBaJh8-wqTKY-111" target="Lr-_QGNphBaJh8-wqTKY-179" edge="1">
          <mxGeometry relative="1" as="geometry" />
        </mxCell>
        <mxCell id="Lr-_QGNphBaJh8-wqTKY-191" style="edgeStyle=orthogonalEdgeStyle;rounded=0;orthogonalLoop=1;jettySize=auto;html=1;exitX=0.5;exitY=1;exitDx=0;exitDy=0;entryX=0;entryY=0.5;entryDx=0;entryDy=0;" parent="1" source="Lr-_QGNphBaJh8-wqTKY-111" target="Lr-_QGNphBaJh8-wqTKY-177" edge="1">
          <mxGeometry relative="1" as="geometry" />
        </mxCell>
        <mxCell id="Lr-_QGNphBaJh8-wqTKY-111" value="" style="rounded=0;whiteSpace=wrap;html=1;" parent="1" vertex="1">
          <mxGeometry x="150" y="970" width="370" height="280" as="geometry" />
        </mxCell>
        <mxCell id="Lr-_QGNphBaJh8-wqTKY-112" value="FzBuyerInitActicity.init" style="text;html=1;strokeColor=none;fillColor=none;align=center;verticalAlign=middle;whiteSpace=wrap;rounded=0;" parent="1" vertex="1">
          <mxGeometry x="262.5" y="970" width="145" height="30" as="geometry" />
        </mxCell>
        <mxCell id="Lr-_QGNphBaJh8-wqTKY-113" style="edgeStyle=orthogonalEdgeStyle;rounded=0;orthogonalLoop=1;jettySize=auto;html=1;exitX=0.5;exitY=1;exitDx=0;exitDy=0;entryX=0.5;entryY=0;entryDx=0;entryDy=0;" parent="1" source="Lr-_QGNphBaJh8-wqTKY-114" target="Lr-_QGNphBaJh8-wqTKY-116" edge="1">
          <mxGeometry relative="1" as="geometry" />
        </mxCell>
        <mxCell id="Lr-_QGNphBaJh8-wqTKY-125" style="edgeStyle=orthogonalEdgeStyle;rounded=0;orthogonalLoop=1;jettySize=auto;html=1;exitX=0;exitY=0.5;exitDx=0;exitDy=0;" parent="1" source="Lr-_QGNphBaJh8-wqTKY-114" edge="1">
          <mxGeometry relative="1" as="geometry">
            <mxPoint x="120" y="1025" as="targetPoint" />
          </mxGeometry>
        </mxCell>
        <mxCell id="Lr-_QGNphBaJh8-wqTKY-114" value="firstBooking4Render" style="rounded=0;whiteSpace=wrap;html=1;fillColor=#FFF2CC;" parent="1" vertex="1">
          <mxGeometry x="160" y="1010" width="170" height="30" as="geometry" />
        </mxCell>
        <mxCell id="Lr-_QGNphBaJh8-wqTKY-115" style="edgeStyle=orthogonalEdgeStyle;rounded=0;orthogonalLoop=1;jettySize=auto;html=1;exitX=0.5;exitY=1;exitDx=0;exitDy=0;entryX=0.5;entryY=0;entryDx=0;entryDy=0;" parent="1" source="Lr-_QGNphBaJh8-wqTKY-116" target="Lr-_QGNphBaJh8-wqTKY-118" edge="1">
          <mxGeometry relative="1" as="geometry" />
        </mxCell>
        <mxCell id="Lr-_QGNphBaJh8-wqTKY-128" style="edgeStyle=orthogonalEdgeStyle;rounded=0;orthogonalLoop=1;jettySize=auto;html=1;exitX=0;exitY=0.5;exitDx=0;exitDy=0;" parent="1" source="Lr-_QGNphBaJh8-wqTKY-116" target="Lr-_QGNphBaJh8-wqTKY-127" edge="1">
          <mxGeometry relative="1" as="geometry" />
        </mxCell>
        <mxCell id="Lr-_QGNphBaJh8-wqTKY-116" value="fzfirstBooking4Render" style="rounded=0;whiteSpace=wrap;html=1;fillColor=#FFF2CC;" parent="1" vertex="1">
          <mxGeometry x="160" y="1060" width="170" height="30" as="geometry" />
        </mxCell>
        <mxCell id="Lr-_QGNphBaJh8-wqTKY-117" style="edgeStyle=orthogonalEdgeStyle;rounded=0;orthogonalLoop=1;jettySize=auto;html=1;exitX=0.5;exitY=1;exitDx=0;exitDy=0;entryX=0.5;entryY=0;entryDx=0;entryDy=0;" parent="1" source="Lr-_QGNphBaJh8-wqTKY-118" target="Lr-_QGNphBaJh8-wqTKY-120" edge="1">
          <mxGeometry relative="1" as="geometry" />
        </mxCell>
        <mxCell id="Lr-_QGNphBaJh8-wqTKY-130" style="edgeStyle=orthogonalEdgeStyle;rounded=0;orthogonalLoop=1;jettySize=auto;html=1;exitX=0;exitY=0.5;exitDx=0;exitDy=0;entryX=1;entryY=0.5;entryDx=0;entryDy=0;" parent="1" source="Lr-_QGNphBaJh8-wqTKY-118" target="Lr-_QGNphBaJh8-wqTKY-129" edge="1">
          <mxGeometry relative="1" as="geometry" />
        </mxCell>
        <mxCell id="Lr-_QGNphBaJh8-wqTKY-118" value="loadBuyerUic" style="rounded=0;whiteSpace=wrap;html=1;fillColor=#FFF2CC;" parent="1" vertex="1">
          <mxGeometry x="160" y="1110" width="170" height="30" as="geometry" />
        </mxCell>
        <mxCell id="Lr-_QGNphBaJh8-wqTKY-119" style="edgeStyle=orthogonalEdgeStyle;rounded=0;orthogonalLoop=1;jettySize=auto;html=1;exitX=0.5;exitY=1;exitDx=0;exitDy=0;" parent="1" source="Lr-_QGNphBaJh8-wqTKY-120" target="Lr-_QGNphBaJh8-wqTKY-121" edge="1">
          <mxGeometry relative="1" as="geometry" />
        </mxCell>
        <mxCell id="Lr-_QGNphBaJh8-wqTKY-136" style="edgeStyle=orthogonalEdgeStyle;rounded=0;orthogonalLoop=1;jettySize=auto;html=1;exitX=0;exitY=0.5;exitDx=0;exitDy=0;entryX=1;entryY=0.5;entryDx=0;entryDy=0;" parent="1" source="Lr-_QGNphBaJh8-wqTKY-120" target="Lr-_QGNphBaJh8-wqTKY-135" edge="1">
          <mxGeometry relative="1" as="geometry" />
        </mxCell>
        <mxCell id="Lr-_QGNphBaJh8-wqTKY-120" value="userAgreement" style="rounded=0;whiteSpace=wrap;html=1;fillColor=#FFF2CC;" parent="1" vertex="1">
          <mxGeometry x="160" y="1160" width="170" height="30" as="geometry" />
        </mxCell>
        <mxCell id="Lr-_QGNphBaJh8-wqTKY-145" style="edgeStyle=orthogonalEdgeStyle;rounded=0;orthogonalLoop=1;jettySize=auto;html=1;exitX=0;exitY=0.5;exitDx=0;exitDy=0;" parent="1" source="Lr-_QGNphBaJh8-wqTKY-121" target="Lr-_QGNphBaJh8-wqTKY-140" edge="1">
          <mxGeometry relative="1" as="geometry" />
        </mxCell>
        <mxCell id="Lr-_QGNphBaJh8-wqTKY-121" value="&lt;span style=&quot;font-family: &amp;#34;helvetica&amp;#34;&quot;&gt;userAuthorization&lt;/span&gt;" style="rounded=0;whiteSpace=wrap;html=1;fillColor=#FFF2CC;" parent="1" vertex="1">
          <mxGeometry x="160" y="1210" width="170" height="30" as="geometry" />
        </mxCell>
        <mxCell id="Lr-_QGNphBaJh8-wqTKY-126" value="&lt;div style=&quot;text-align: center&quot;&gt;&lt;/div&gt;&lt;span style=&quot;color: rgb(51 , 51 , 51) ; font-family: &amp;#34;roboto&amp;#34; , &amp;#34;helvetica neue&amp;#34; , &amp;#34;helvetica&amp;#34; , &amp;#34;tahoma&amp;#34; , &amp;#34;arial&amp;#34; , &amp;#34;pingfang sc&amp;#34; , &amp;#34;microsoft yahei&amp;#34; ; background-color: rgb(229 , 255 , 243)&quot;&gt;1.&lt;/span&gt;&lt;span style=&quot;color: rgb(51 , 51 , 51) ; font-family: &amp;#34;roboto&amp;#34; , &amp;#34;helvetica neue&amp;#34; , &amp;#34;helvetica&amp;#34; , &amp;#34;tahoma&amp;#34; , &amp;#34;arial&amp;#34; , &amp;#34;pingfang sc&amp;#34; , &amp;#34;microsoft yahei&amp;#34; ; background-color: rgb(229 , 255 , 243)&quot;&gt;Buy2下单页渲染firstBooking4Render&lt;/span&gt;&lt;span style=&quot;color: rgb(51 , 51 , 51) ; font-family: &amp;#34;roboto&amp;#34; , &amp;#34;helvetica neue&amp;#34; , &amp;#34;helvetica&amp;#34; , &amp;#34;tahoma&amp;#34; , &amp;#34;arial&amp;#34; , &amp;#34;pingfang sc&amp;#34; , &amp;#34;microsoft yahei&amp;#34; ; background-color: rgb(229 , 255 , 243)&quot;&gt;接口成功&lt;/span&gt;&lt;span style=&quot;color: rgb(51 , 51 , 51) ; font-family: &amp;#34;roboto&amp;#34; , &amp;#34;helvetica neue&amp;#34; , &amp;#34;helvetica&amp;#34; , &amp;#34;tahoma&amp;#34; , &amp;#34;arial&amp;#34; , &amp;#34;pingfang sc&amp;#34; , &amp;#34;microsoft yahei&amp;#34; ; background-color: rgb(250 , 250 , 250)&quot;&gt;&lt;br&gt;&lt;/span&gt;" style="shape=process;whiteSpace=wrap;html=1;backgroundOutline=1;fillColor=#9AC7BF;" parent="1" vertex="1">
          <mxGeometry x="-231.5" y="1007.5" width="351.5" height="35" as="geometry" />
        </mxCell>
        <mxCell id="Lr-_QGNphBaJh8-wqTKY-127" value="&lt;div style=&quot;text-align: center&quot;&gt;&lt;/div&gt;&lt;span style=&quot;color: rgb(51 , 51 , 51) ; font-family: &amp;#34;roboto&amp;#34; , &amp;#34;helvetica neue&amp;#34; , &amp;#34;helvetica&amp;#34; , &amp;#34;tahoma&amp;#34; , &amp;#34;arial&amp;#34; , &amp;#34;pingfang sc&amp;#34; , &amp;#34;microsoft yahei&amp;#34; ; background-color: rgb(229 , 255 , 243)&quot;&gt;1.&lt;/span&gt;&lt;span style=&quot;color: rgb(51 , 51 , 51) ; font-family: &amp;#34;roboto&amp;#34; , &amp;#34;helvetica neue&amp;#34; , &amp;#34;helvetica&amp;#34; , &amp;#34;tahoma&amp;#34; , &amp;#34;arial&amp;#34; , &amp;#34;pingfang sc&amp;#34; , &amp;#34;microsoft yahei&amp;#34; ; background-color: rgb(229 , 255 , 243)&quot;&gt;Buy2下单页渲染firstBooking4Render&lt;/span&gt;&lt;span style=&quot;color: rgb(51 , 51 , 51) ; font-family: &amp;#34;roboto&amp;#34; , &amp;#34;helvetica neue&amp;#34; , &amp;#34;helvetica&amp;#34; , &amp;#34;tahoma&amp;#34; , &amp;#34;arial&amp;#34; , &amp;#34;pingfang sc&amp;#34; , &amp;#34;microsoft yahei&amp;#34; ; background-color: rgb(229 , 255 , 243)&quot;&gt;接口成功&lt;/span&gt;&lt;span style=&quot;color: rgb(51 , 51 , 51) ; font-family: &amp;#34;roboto&amp;#34; , &amp;#34;helvetica neue&amp;#34; , &amp;#34;helvetica&amp;#34; , &amp;#34;tahoma&amp;#34; , &amp;#34;arial&amp;#34; , &amp;#34;pingfang sc&amp;#34; , &amp;#34;microsoft yahei&amp;#34; ; background-color: rgb(250 , 250 , 250)&quot;&gt;&lt;br&gt;&lt;/span&gt;" style="shape=process;whiteSpace=wrap;html=1;backgroundOutline=1;fillColor=#9AC7BF;" parent="1" vertex="1">
          <mxGeometry x="-231.5" y="1057.5" width="351.5" height="35" as="geometry" />
        </mxCell>
        <mxCell id="Lr-_QGNphBaJh8-wqTKY-129" value="&lt;div style=&quot;text-align: center&quot;&gt;&lt;/div&gt;&lt;span style=&quot;color: rgb(51 , 51 , 51) ; font-family: &amp;#34;roboto&amp;#34; , &amp;#34;helvetica neue&amp;#34; , &amp;#34;helvetica&amp;#34; , &amp;#34;tahoma&amp;#34; , &amp;#34;arial&amp;#34; , &amp;#34;pingfang sc&amp;#34; , &amp;#34;microsoft yahei&amp;#34; ; background-color: rgb(229 , 255 , 243)&quot;&gt;1.&lt;/span&gt;&lt;span style=&quot;color: rgb(51 , 51 , 51) ; font-family: &amp;#34;roboto&amp;#34; , &amp;#34;helvetica neue&amp;#34; , &amp;#34;helvetica&amp;#34; , &amp;#34;tahoma&amp;#34; , &amp;#34;arial&amp;#34; , &amp;#34;pingfang sc&amp;#34; , &amp;#34;microsoft yahei&amp;#34; ; background-color: rgb(229 , 255 , 243)&quot;&gt;Buy2下单页渲染&lt;/span&gt;&lt;span style=&quot;color: rgb(51 , 51 , 51) ; font-family: &amp;#34;roboto&amp;#34; , &amp;#34;helvetica neue&amp;#34; , &amp;#34;helvetica&amp;#34; , &amp;#34;tahoma&amp;#34; , &amp;#34;arial&amp;#34; , &amp;#34;pingfang sc&amp;#34; , &amp;#34;microsoft yahei&amp;#34; ; background-color: rgb(229 , 255 , 243)&quot;&gt;queryBuyerUic&lt;/span&gt;&lt;span style=&quot;color: rgb(51 , 51 , 51) ; font-family: &amp;#34;roboto&amp;#34; , &amp;#34;helvetica neue&amp;#34; , &amp;#34;helvetica&amp;#34; , &amp;#34;tahoma&amp;#34; , &amp;#34;arial&amp;#34; , &amp;#34;pingfang sc&amp;#34; , &amp;#34;microsoft yahei&amp;#34; ; background-color: rgb(229 , 255 , 243)&quot;&gt;接口成功&lt;/span&gt;&lt;span style=&quot;color: rgb(51 , 51 , 51) ; font-family: &amp;#34;roboto&amp;#34; , &amp;#34;helvetica neue&amp;#34; , &amp;#34;helvetica&amp;#34; , &amp;#34;tahoma&amp;#34; , &amp;#34;arial&amp;#34; , &amp;#34;pingfang sc&amp;#34; , &amp;#34;microsoft yahei&amp;#34; ; background-color: rgb(250 , 250 , 250)&quot;&gt;&lt;br&gt;&lt;/span&gt;" style="shape=process;whiteSpace=wrap;html=1;backgroundOutline=1;fillColor=#9AC7BF;" parent="1" vertex="1">
          <mxGeometry x="-231.5" y="1107.5" width="351.5" height="35" as="geometry" />
        </mxCell>
        <mxCell id="Lr-_QGNphBaJh8-wqTKY-131" value="加载卖家基本信息" style="text;html=1;strokeColor=none;fillColor=none;align=center;verticalAlign=middle;whiteSpace=wrap;rounded=0;" parent="1" vertex="1">
          <mxGeometry x="60" y="610" width="60" height="30" as="geometry" />
        </mxCell>
        <mxCell id="Lr-_QGNphBaJh8-wqTKY-132" value="加载买家基本信息" style="text;html=1;strokeColor=none;fillColor=none;align=center;verticalAlign=middle;whiteSpace=wrap;rounded=0;" parent="1" vertex="1">
          <mxGeometry x="60" y="960" width="60" height="30" as="geometry" />
        </mxCell>
        <mxCell id="Lr-_QGNphBaJh8-wqTKY-138" style="edgeStyle=orthogonalEdgeStyle;rounded=0;orthogonalLoop=1;jettySize=auto;html=1;exitX=0;exitY=0.5;exitDx=0;exitDy=0;" parent="1" source="Lr-_QGNphBaJh8-wqTKY-135" target="Lr-_QGNphBaJh8-wqTKY-137" edge="1">
          <mxGeometry relative="1" as="geometry" />
        </mxCell>
        <mxCell id="Lr-_QGNphBaJh8-wqTKY-135" value="isDisplayTripUserAgreement" style="rounded=1;whiteSpace=wrap;html=1;fillColor=#FFF2CC;" parent="1" vertex="1">
          <mxGeometry x="-90" y="1160" width="210" height="30" as="geometry" />
        </mxCell>
        <mxCell id="Lr-_QGNphBaJh8-wqTKY-137" value="&lt;div style=&quot;text-align: center&quot;&gt;&lt;/div&gt;&lt;span style=&quot;color: rgb(51 , 51 , 51) ; font-family: &amp;#34;roboto&amp;#34; , &amp;#34;helvetica neue&amp;#34; , &amp;#34;helvetica&amp;#34; , &amp;#34;tahoma&amp;#34; , &amp;#34;arial&amp;#34; , &amp;#34;pingfang sc&amp;#34; , &amp;#34;microsoft yahei&amp;#34; ; background-color: rgb(250 , 250 , 250)&quot;&gt;1.&lt;/span&gt;&lt;span style=&quot;color: rgb(51 , 51 , 51) ; font-family: &amp;#34;roboto&amp;#34; , &amp;#34;helvetica neue&amp;#34; , &amp;#34;helvetica&amp;#34; , &amp;#34;tahoma&amp;#34; , &amp;#34;arial&amp;#34; , &amp;#34;pingfang sc&amp;#34; , &amp;#34;microsoft yahei&amp;#34; ; background-color: rgb(229 , 255 , 243)&quot;&gt;Buy2下单页渲染userAgreement接口成功&lt;/span&gt;" style="shape=process;whiteSpace=wrap;html=1;backgroundOutline=1;fillColor=#9AC7BF;" parent="1" vertex="1">
          <mxGeometry x="-570" y="1157.5" width="351.5" height="35" as="geometry" />
        </mxCell>
        <mxCell id="Lr-_QGNphBaJh8-wqTKY-139" value="tripffa请求，是否展示航旅会员" style="text;html=1;strokeColor=none;fillColor=none;align=center;verticalAlign=middle;whiteSpace=wrap;rounded=0;" parent="1" vertex="1">
          <mxGeometry x="-190" y="1160" width="90" height="30" as="geometry" />
        </mxCell>
        <mxCell id="Lr-_QGNphBaJh8-wqTKY-142" style="edgeStyle=orthogonalEdgeStyle;rounded=0;orthogonalLoop=1;jettySize=auto;html=1;exitX=0;exitY=0.5;exitDx=0;exitDy=0;entryX=1;entryY=0.5;entryDx=0;entryDy=0;" parent="1" source="Lr-_QGNphBaJh8-wqTKY-140" target="Lr-_QGNphBaJh8-wqTKY-141" edge="1">
          <mxGeometry relative="1" as="geometry" />
        </mxCell>
        <mxCell id="Lr-_QGNphBaJh8-wqTKY-140" value="hasLicensed" style="rounded=1;whiteSpace=wrap;html=1;fillColor=#FFF2CC;" parent="1" vertex="1">
          <mxGeometry x="-90" y="1210" width="210" height="30" as="geometry" />
        </mxCell>
        <mxCell id="Lr-_QGNphBaJh8-wqTKY-141" value="&lt;div style=&quot;text-align: center&quot;&gt;&lt;/div&gt;&lt;span style=&quot;color: rgb(51 , 51 , 51) ; font-family: &amp;#34;roboto&amp;#34; , &amp;#34;helvetica neue&amp;#34; , &amp;#34;helvetica&amp;#34; , &amp;#34;tahoma&amp;#34; , &amp;#34;arial&amp;#34; , &amp;#34;pingfang sc&amp;#34; , &amp;#34;microsoft yahei&amp;#34; ; background-color: rgb(250 , 250 , 250)&quot;&gt;1.&lt;/span&gt;&lt;span style=&quot;color: rgb(51 , 51 , 51) ; font-family: &amp;#34;roboto&amp;#34; , &amp;#34;helvetica neue&amp;#34; , &amp;#34;helvetica&amp;#34; , &amp;#34;tahoma&amp;#34; , &amp;#34;arial&amp;#34; , &amp;#34;pingfang sc&amp;#34; , &amp;#34;microsoft yahei&amp;#34; ; background-color: rgb(229 , 255 , 243)&quot;&gt;Buy2下单页渲染userAuthorization接口成功&lt;br&gt;2.&lt;/span&gt;&lt;span style=&quot;color: rgb(51 , 51 , 51) ; font-family: &amp;#34;roboto&amp;#34; , &amp;#34;helvetica neue&amp;#34; , &amp;#34;helvetica&amp;#34; , &amp;#34;tahoma&amp;#34; , &amp;#34;arial&amp;#34; , &amp;#34;pingfang sc&amp;#34; , &amp;#34;microsoft yahei&amp;#34; ; background-color: rgb(229 , 255 , 243)&quot;&gt;获取用户是否授权飞猪国际卖家成功&lt;/span&gt;&lt;span style=&quot;color: rgb(51 , 51 , 51) ; font-family: &amp;#34;roboto&amp;#34; , &amp;#34;helvetica neue&amp;#34; , &amp;#34;helvetica&amp;#34; , &amp;#34;tahoma&amp;#34; , &amp;#34;arial&amp;#34; , &amp;#34;pingfang sc&amp;#34; , &amp;#34;microsoft yahei&amp;#34; ; background-color: rgb(229 , 255 , 243)&quot;&gt;&lt;br&gt;&lt;/span&gt;" style="shape=process;whiteSpace=wrap;html=1;backgroundOutline=1;fillColor=#9AC7BF;" parent="1" vertex="1">
          <mxGeometry x="-570" y="1207.5" width="351.5" height="35" as="geometry" />
        </mxCell>
        <mxCell id="Lr-_QGNphBaJh8-wqTKY-143" value="tripmisc请求，是否授权给国际卖家" style="text;html=1;strokeColor=none;fillColor=none;align=center;verticalAlign=middle;whiteSpace=wrap;rounded=0;" parent="1" vertex="1">
          <mxGeometry x="-200" y="1212.5" width="100" height="30" as="geometry" />
        </mxCell>
        <mxCell id="Lr-_QGNphBaJh8-wqTKY-148" style="edgeStyle=orthogonalEdgeStyle;rounded=0;orthogonalLoop=1;jettySize=auto;html=1;exitX=1;exitY=0.5;exitDx=0;exitDy=0;entryX=0;entryY=0.5;entryDx=0;entryDy=0;" parent="1" source="Lr-_QGNphBaJh8-wqTKY-146" target="Lr-_QGNphBaJh8-wqTKY-147" edge="1">
          <mxGeometry relative="1" as="geometry" />
        </mxCell>
        <mxCell id="Lr-_QGNphBaJh8-wqTKY-169" style="edgeStyle=orthogonalEdgeStyle;rounded=0;orthogonalLoop=1;jettySize=auto;html=1;exitX=0.5;exitY=1;exitDx=0;exitDy=0;entryX=0.5;entryY=0;entryDx=0;entryDy=0;" parent="1" source="Lr-_QGNphBaJh8-wqTKY-146" target="Lr-_QGNphBaJh8-wqTKY-149" edge="1">
          <mxGeometry relative="1" as="geometry" />
        </mxCell>
        <mxCell id="Lr-_QGNphBaJh8-wqTKY-146" value="firstBooking4Submit" style="rounded=0;whiteSpace=wrap;html=1;fillColor=#FFF2CC;" parent="1" vertex="1">
          <mxGeometry x="340" y="1010" width="170" height="30" as="geometry" />
        </mxCell>
        <mxCell id="Lr-_QGNphBaJh8-wqTKY-147" value="&lt;div style=&quot;text-align: center&quot;&gt;&lt;/div&gt;&lt;span style=&quot;color: rgb(51 , 51 , 51) ; font-family: &amp;#34;roboto&amp;#34; , &amp;#34;helvetica neue&amp;#34; , &amp;#34;helvetica&amp;#34; , &amp;#34;tahoma&amp;#34; , &amp;#34;arial&amp;#34; , &amp;#34;pingfang sc&amp;#34; , &amp;#34;microsoft yahei&amp;#34; ; background-color: rgb(229 , 255 , 243)&quot;&gt;1.&lt;/span&gt;&lt;span style=&quot;color: rgb(51 , 51 , 51) ; font-family: &amp;#34;roboto&amp;#34; , &amp;#34;helvetica neue&amp;#34; , &amp;#34;helvetica&amp;#34; , &amp;#34;tahoma&amp;#34; , &amp;#34;arial&amp;#34; , &amp;#34;pingfang sc&amp;#34; , &amp;#34;microsoft yahei&amp;#34; ; background-color: rgb(229 , 255 , 243)&quot;&gt;Buy2下单页渲染&lt;/span&gt;&lt;span style=&quot;color: rgb(51 , 51 , 51) ; font-family: &amp;#34;roboto&amp;#34; , &amp;#34;helvetica neue&amp;#34; , &amp;#34;helvetica&amp;#34; , &amp;#34;tahoma&amp;#34; , &amp;#34;arial&amp;#34; , &amp;#34;pingfang sc&amp;#34; , &amp;#34;microsoft yahei&amp;#34; ; background-color: rgb(229 , 255 , 243)&quot;&gt;firstBooking4Submit&lt;/span&gt;&lt;span style=&quot;color: rgb(51 , 51 , 51) ; font-family: &amp;#34;roboto&amp;#34; , &amp;#34;helvetica neue&amp;#34; , &amp;#34;helvetica&amp;#34; , &amp;#34;tahoma&amp;#34; , &amp;#34;arial&amp;#34; , &amp;#34;pingfang sc&amp;#34; , &amp;#34;microsoft yahei&amp;#34; ; background-color: rgb(229 , 255 , 243)&quot;&gt;接口成功&lt;/span&gt;&lt;span style=&quot;color: rgb(51 , 51 , 51) ; font-family: &amp;#34;roboto&amp;#34; , &amp;#34;helvetica neue&amp;#34; , &amp;#34;helvetica&amp;#34; , &amp;#34;tahoma&amp;#34; , &amp;#34;arial&amp;#34; , &amp;#34;pingfang sc&amp;#34; , &amp;#34;microsoft yahei&amp;#34; ; background-color: rgb(250 , 250 , 250)&quot;&gt;&lt;br&gt;&lt;/span&gt;" style="shape=process;whiteSpace=wrap;html=1;backgroundOutline=1;fillColor=#9AC7BF;" parent="1" vertex="1">
          <mxGeometry x="550" y="1007.5" width="351.5" height="35" as="geometry" />
        </mxCell>
        <mxCell id="Lr-_QGNphBaJh8-wqTKY-157" style="edgeStyle=orthogonalEdgeStyle;rounded=0;orthogonalLoop=1;jettySize=auto;html=1;exitX=1;exitY=0.5;exitDx=0;exitDy=0;entryX=0;entryY=0.5;entryDx=0;entryDy=0;" parent="1" source="Lr-_QGNphBaJh8-wqTKY-149" target="Lr-_QGNphBaJh8-wqTKY-155" edge="1">
          <mxGeometry relative="1" as="geometry" />
        </mxCell>
        <mxCell id="Lr-_QGNphBaJh8-wqTKY-172" style="edgeStyle=orthogonalEdgeStyle;rounded=0;orthogonalLoop=1;jettySize=auto;html=1;exitX=0.5;exitY=1;exitDx=0;exitDy=0;entryX=0.5;entryY=0;entryDx=0;entryDy=0;" parent="1" source="Lr-_QGNphBaJh8-wqTKY-149" target="Lr-_QGNphBaJh8-wqTKY-160" edge="1">
          <mxGeometry relative="1" as="geometry" />
        </mxCell>
        <mxCell id="Lr-_QGNphBaJh8-wqTKY-149" value="queryBuyerHuc" style="rounded=0;whiteSpace=wrap;html=1;fillColor=#FFF2CC;" parent="1" vertex="1">
          <mxGeometry x="340" y="1060" width="170" height="30" as="geometry" />
        </mxCell>
        <mxCell id="Lr-_QGNphBaJh8-wqTKY-151" value="&lt;div style=&quot;text-align: center&quot;&gt;&lt;/div&gt;&lt;span style=&quot;color: rgb(51 , 51 , 51) ; font-family: &amp;#34;roboto&amp;#34; , &amp;#34;helvetica neue&amp;#34; , &amp;#34;helvetica&amp;#34; , &amp;#34;tahoma&amp;#34; , &amp;#34;arial&amp;#34; , &amp;#34;pingfang sc&amp;#34; , &amp;#34;microsoft yahei&amp;#34; ; background-color: rgb(229 , 255 , 243)&quot;&gt;1.&lt;/span&gt;&lt;span style=&quot;color: rgb(51 , 51 , 51) ; font-family: &amp;#34;roboto&amp;#34; , &amp;#34;helvetica neue&amp;#34; , &amp;#34;helvetica&amp;#34; , &amp;#34;tahoma&amp;#34; , &amp;#34;arial&amp;#34; , &amp;#34;pingfang sc&amp;#34; , &amp;#34;microsoft yahei&amp;#34; ; background-color: rgb(229 , 255 , 243)&quot;&gt;Buy2下单页渲染&lt;/span&gt;&lt;span style=&quot;color: rgb(51 , 51 , 51) ; font-family: &amp;#34;roboto&amp;#34; , &amp;#34;helvetica neue&amp;#34; , &amp;#34;helvetica&amp;#34; , &amp;#34;tahoma&amp;#34; , &amp;#34;arial&amp;#34; , &amp;#34;pingfang sc&amp;#34; , &amp;#34;microsoft yahei&amp;#34; ; background-color: rgb(229 , 255 , 243)&quot;&gt;queryBuyerHuc&lt;/span&gt;&lt;span style=&quot;color: rgb(51 , 51 , 51) ; font-family: &amp;#34;roboto&amp;#34; , &amp;#34;helvetica neue&amp;#34; , &amp;#34;helvetica&amp;#34; , &amp;#34;tahoma&amp;#34; , &amp;#34;arial&amp;#34; , &amp;#34;pingfang sc&amp;#34; , &amp;#34;microsoft yahei&amp;#34; ; background-color: rgb(229 , 255 , 243)&quot;&gt;接口成功&lt;/span&gt;&lt;span style=&quot;color: rgb(51 , 51 , 51) ; font-family: &amp;#34;roboto&amp;#34; , &amp;#34;helvetica neue&amp;#34; , &amp;#34;helvetica&amp;#34; , &amp;#34;tahoma&amp;#34; , &amp;#34;arial&amp;#34; , &amp;#34;pingfang sc&amp;#34; , &amp;#34;microsoft yahei&amp;#34; ; background-color: rgb(250 , 250 , 250)&quot;&gt;&lt;br&gt;&lt;/span&gt;" style="shape=process;whiteSpace=wrap;html=1;backgroundOutline=1;fillColor=#9AC7BF;" parent="1" vertex="1">
          <mxGeometry x="880" y="1057.5" width="351.5" height="35" as="geometry" />
        </mxCell>
        <mxCell id="Lr-_QGNphBaJh8-wqTKY-158" style="edgeStyle=orthogonalEdgeStyle;rounded=0;orthogonalLoop=1;jettySize=auto;html=1;exitX=1;exitY=0.5;exitDx=0;exitDy=0;entryX=0;entryY=0.5;entryDx=0;entryDy=0;" parent="1" source="Lr-_QGNphBaJh8-wqTKY-155" target="Lr-_QGNphBaJh8-wqTKY-151" edge="1">
          <mxGeometry relative="1" as="geometry" />
        </mxCell>
        <mxCell id="Lr-_QGNphBaJh8-wqTKY-155" value="queryAliPayAccountInfoWithCache" style="rounded=1;whiteSpace=wrap;html=1;fillColor=#FFF2CC;" parent="1" vertex="1">
          <mxGeometry x="550" y="1060" width="210" height="30" as="geometry" />
        </mxCell>
        <mxCell id="Lr-_QGNphBaJh8-wqTKY-159" value="huc请求，查询买家HUC信息" style="text;html=1;strokeColor=none;fillColor=none;align=center;verticalAlign=middle;whiteSpace=wrap;rounded=0;" parent="1" vertex="1">
          <mxGeometry x="770" y="1060" width="90" height="30" as="geometry" />
        </mxCell>
        <mxCell id="Lr-_QGNphBaJh8-wqTKY-162" style="edgeStyle=orthogonalEdgeStyle;rounded=0;orthogonalLoop=1;jettySize=auto;html=1;exitX=1;exitY=0.5;exitDx=0;exitDy=0;entryX=0;entryY=0.5;entryDx=0;entryDy=0;" parent="1" source="Lr-_QGNphBaJh8-wqTKY-160" target="Lr-_QGNphBaJh8-wqTKY-161" edge="1">
          <mxGeometry relative="1" as="geometry" />
        </mxCell>
        <mxCell id="Lr-_QGNphBaJh8-wqTKY-173" style="edgeStyle=orthogonalEdgeStyle;rounded=0;orthogonalLoop=1;jettySize=auto;html=1;exitX=0.5;exitY=1;exitDx=0;exitDy=0;entryX=0.5;entryY=0;entryDx=0;entryDy=0;" parent="1" source="Lr-_QGNphBaJh8-wqTKY-160" target="Lr-_QGNphBaJh8-wqTKY-167" edge="1">
          <mxGeometry relative="1" as="geometry" />
        </mxCell>
        <mxCell id="Lr-_QGNphBaJh8-wqTKY-160" value="userSign" style="rounded=0;whiteSpace=wrap;html=1;fillColor=#FFF2CC;" parent="1" vertex="1">
          <mxGeometry x="340" y="1110" width="170" height="30" as="geometry" />
        </mxCell>
        <mxCell id="Lr-_QGNphBaJh8-wqTKY-165" style="edgeStyle=orthogonalEdgeStyle;rounded=0;orthogonalLoop=1;jettySize=auto;html=1;exitX=1;exitY=0.5;exitDx=0;exitDy=0;entryX=0;entryY=0.5;entryDx=0;entryDy=0;" parent="1" source="Lr-_QGNphBaJh8-wqTKY-161" target="Lr-_QGNphBaJh8-wqTKY-164" edge="1">
          <mxGeometry relative="1" as="geometry" />
        </mxCell>
        <mxCell id="Lr-_QGNphBaJh8-wqTKY-161" value="querySignedUserInfo" style="rounded=1;whiteSpace=wrap;html=1;fillColor=#FFF2CC;" parent="1" vertex="1">
          <mxGeometry x="550" y="1110" width="210" height="30" as="geometry" />
        </mxCell>
        <mxCell id="Lr-_QGNphBaJh8-wqTKY-164" value="&lt;div style=&quot;text-align: center&quot;&gt;&lt;/div&gt;&lt;span style=&quot;color: rgb(51 , 51 , 51) ; font-family: &amp;#34;roboto&amp;#34; , &amp;#34;helvetica neue&amp;#34; , &amp;#34;helvetica&amp;#34; , &amp;#34;tahoma&amp;#34; , &amp;#34;arial&amp;#34; , &amp;#34;pingfang sc&amp;#34; , &amp;#34;microsoft yahei&amp;#34; ; background-color: rgb(229 , 255 , 243)&quot;&gt;1.&lt;/span&gt;&lt;span style=&quot;color: rgb(51 , 51 , 51) ; font-family: &amp;#34;roboto&amp;#34; , &amp;#34;helvetica neue&amp;#34; , &amp;#34;helvetica&amp;#34; , &amp;#34;tahoma&amp;#34; , &amp;#34;arial&amp;#34; , &amp;#34;pingfang sc&amp;#34; , &amp;#34;microsoft yahei&amp;#34; ; background-color: rgb(229 , 255 , 243)&quot;&gt;Buy2下单页渲染&lt;/span&gt;&lt;span style=&quot;color: rgb(51 , 51 , 51) ; font-family: &amp;#34;roboto&amp;#34; , &amp;#34;helvetica neue&amp;#34; , &amp;#34;helvetica&amp;#34; , &amp;#34;tahoma&amp;#34; , &amp;#34;arial&amp;#34; , &amp;#34;pingfang sc&amp;#34; , &amp;#34;microsoft yahei&amp;#34; ; background-color: rgb(229 , 255 , 243)&quot;&gt;queryBuyerHuc&lt;/span&gt;&lt;span style=&quot;color: rgb(51 , 51 , 51) ; font-family: &amp;#34;roboto&amp;#34; , &amp;#34;helvetica neue&amp;#34; , &amp;#34;helvetica&amp;#34; , &amp;#34;tahoma&amp;#34; , &amp;#34;arial&amp;#34; , &amp;#34;pingfang sc&amp;#34; , &amp;#34;microsoft yahei&amp;#34; ; background-color: rgb(229 , 255 , 243)&quot;&gt;接口成功&lt;/span&gt;&lt;span style=&quot;color: rgb(51 , 51 , 51) ; font-family: &amp;#34;roboto&amp;#34; , &amp;#34;helvetica neue&amp;#34; , &amp;#34;helvetica&amp;#34; , &amp;#34;tahoma&amp;#34; , &amp;#34;arial&amp;#34; , &amp;#34;pingfang sc&amp;#34; , &amp;#34;microsoft yahei&amp;#34; ; background-color: rgb(250 , 250 , 250)&quot;&gt;&lt;br&gt;&lt;/span&gt;" style="shape=process;whiteSpace=wrap;html=1;backgroundOutline=1;fillColor=#9AC7BF;" parent="1" vertex="1">
          <mxGeometry x="880" y="1107.5" width="351.5" height="35" as="geometry" />
        </mxCell>
        <mxCell id="Lr-_QGNphBaJh8-wqTKY-166" value="huc请求，查询买家资格" style="text;html=1;strokeColor=none;fillColor=none;align=center;verticalAlign=middle;whiteSpace=wrap;rounded=0;" parent="1" vertex="1">
          <mxGeometry x="770" y="1107.5" width="90" height="30" as="geometry" />
        </mxCell>
        <mxCell id="Lr-_QGNphBaJh8-wqTKY-175" style="edgeStyle=orthogonalEdgeStyle;rounded=0;orthogonalLoop=1;jettySize=auto;html=1;exitX=1;exitY=0.5;exitDx=0;exitDy=0;entryX=0;entryY=0.5;entryDx=0;entryDy=0;" parent="1" source="Lr-_QGNphBaJh8-wqTKY-167" edge="1">
          <mxGeometry relative="1" as="geometry">
            <mxPoint x="550" y="1175.0000000000002" as="targetPoint" />
          </mxGeometry>
        </mxCell>
        <mxCell id="Lr-_QGNphBaJh8-wqTKY-167" value="loadOrderDetail4Retain" style="rounded=0;whiteSpace=wrap;html=1;fillColor=#FFF2CC;" parent="1" vertex="1">
          <mxGeometry x="340" y="1160" width="170" height="30" as="geometry" />
        </mxCell>
        <mxCell id="Lr-_QGNphBaJh8-wqTKY-168" style="edgeStyle=orthogonalEdgeStyle;rounded=0;orthogonalLoop=1;jettySize=auto;html=1;exitX=1;exitY=0.5;exitDx=0;exitDy=0;entryX=0;entryY=0.5;entryDx=0;entryDy=0;" parent="1" source="Lr-_QGNphBaJh8-wqTKY-121" target="Lr-_QGNphBaJh8-wqTKY-146" edge="1">
          <mxGeometry relative="1" as="geometry">
            <Array as="points">
              <mxPoint x="320" y="1225" />
              <mxPoint x="320" y="1025" />
            </Array>
          </mxGeometry>
        </mxCell>
        <mxCell id="Lr-_QGNphBaJh8-wqTKY-176" value="&lt;div style=&quot;text-align: center&quot;&gt;&lt;/div&gt;&lt;span style=&quot;color: rgb(51 , 51 , 51) ; font-family: &amp;#34;roboto&amp;#34; , &amp;#34;helvetica neue&amp;#34; , &amp;#34;helvetica&amp;#34; , &amp;#34;tahoma&amp;#34; , &amp;#34;arial&amp;#34; , &amp;#34;pingfang sc&amp;#34; , &amp;#34;microsoft yahei&amp;#34; ; background-color: rgb(229 , 255 , 243)&quot;&gt;1.&lt;/span&gt;&lt;span style=&quot;color: rgb(51 , 51 , 51) ; font-family: &amp;#34;roboto&amp;#34; , &amp;#34;helvetica neue&amp;#34; , &amp;#34;helvetica&amp;#34; , &amp;#34;tahoma&amp;#34; , &amp;#34;arial&amp;#34; , &amp;#34;pingfang sc&amp;#34; , &amp;#34;microsoft yahei&amp;#34; ; background-color: rgb(229 , 255 , 243)&quot;&gt;Buy2下单页渲染&lt;/span&gt;&lt;span style=&quot;color: rgb(51 , 51 , 51) ; font-family: &amp;#34;roboto&amp;#34; , &amp;#34;helvetica neue&amp;#34; , &amp;#34;helvetica&amp;#34; , &amp;#34;tahoma&amp;#34; , &amp;#34;arial&amp;#34; , &amp;#34;pingfang sc&amp;#34; , &amp;#34;microsoft yahei&amp;#34; ; background-color: rgb(229 , 255 , 243)&quot;&gt;loadOrderDetail4Retain&lt;/span&gt;&lt;span style=&quot;color: rgb(51 , 51 , 51) ; font-family: &amp;#34;roboto&amp;#34; , &amp;#34;helvetica neue&amp;#34; , &amp;#34;helvetica&amp;#34; , &amp;#34;tahoma&amp;#34; , &amp;#34;arial&amp;#34; , &amp;#34;pingfang sc&amp;#34; , &amp;#34;microsoft yahei&amp;#34; ; background-color: rgb(229 , 255 , 243)&quot;&gt;接口成功&lt;/span&gt;&lt;span style=&quot;color: rgb(51 , 51 , 51) ; font-family: &amp;#34;roboto&amp;#34; , &amp;#34;helvetica neue&amp;#34; , &amp;#34;helvetica&amp;#34; , &amp;#34;tahoma&amp;#34; , &amp;#34;arial&amp;#34; , &amp;#34;pingfang sc&amp;#34; , &amp;#34;microsoft yahei&amp;#34; ; background-color: rgb(250 , 250 , 250)&quot;&gt;&lt;br&gt;&lt;/span&gt;" style="shape=process;whiteSpace=wrap;html=1;backgroundOutline=1;fillColor=#9AC7BF;" parent="1" vertex="1">
          <mxGeometry x="550" y="1157.5" width="351.5" height="35" as="geometry" />
        </mxCell>
        <mxCell id="Lr-_QGNphBaJh8-wqTKY-177" value="&lt;div style=&quot;text-align: center&quot;&gt;&lt;/div&gt;&lt;span style=&quot;color: rgb(51 , 51 , 51) ; font-family: &amp;#34;roboto&amp;#34; , &amp;#34;helvetica neue&amp;#34; , &amp;#34;helvetica&amp;#34; , &amp;#34;tahoma&amp;#34; , &amp;#34;arial&amp;#34; , &amp;#34;pingfang sc&amp;#34; , &amp;#34;microsoft yahei&amp;#34; ; background-color: rgb(229 , 255 , 243)&quot;&gt;1.&lt;/span&gt;&lt;span style=&quot;color: rgb(51 , 51 , 51) ; font-family: &amp;#34;roboto&amp;#34; , &amp;#34;helvetica neue&amp;#34; , &amp;#34;helvetica&amp;#34; , &amp;#34;tahoma&amp;#34; , &amp;#34;arial&amp;#34; , &amp;#34;pingfang sc&amp;#34; , &amp;#34;microsoft yahei&amp;#34; ; background-color: rgb(229 , 255 , 243)&quot;&gt;买家域-加载基本信息&lt;br&gt;&lt;/span&gt;&lt;span style=&quot;color: rgb(51 , 51 , 51) ; font-family: &amp;#34;roboto&amp;#34; , &amp;#34;helvetica neue&amp;#34; , &amp;#34;helvetica&amp;#34; , &amp;#34;tahoma&amp;#34; , &amp;#34;arial&amp;#34; , &amp;#34;pingfang sc&amp;#34; , &amp;#34;microsoft yahei&amp;#34; ; background-color: rgb(250 , 250 , 250)&quot;&gt;2.买家域并发查询结果集BuyerContext&lt;br&gt;&lt;/span&gt;" style="shape=process;whiteSpace=wrap;html=1;backgroundOutline=1;fillColor=#9AC7BF;" parent="1" vertex="1">
          <mxGeometry x="550" y="1260" width="351.5" height="35" as="geometry" />
        </mxCell>
        <mxCell id="Lr-_QGNphBaJh8-wqTKY-197" style="edgeStyle=orthogonalEdgeStyle;rounded=0;orthogonalLoop=1;jettySize=auto;html=1;exitX=0.5;exitY=1;exitDx=0;exitDy=0;entryX=0;entryY=0.5;entryDx=0;entryDy=0;" parent="1" source="Lr-_QGNphBaJh8-wqTKY-179" target="Lr-_QGNphBaJh8-wqTKY-195" edge="1">
          <mxGeometry relative="1" as="geometry" />
        </mxCell>
        <mxCell id="Lr-_QGNphBaJh8-wqTKY-218" style="edgeStyle=orthogonalEdgeStyle;rounded=0;orthogonalLoop=1;jettySize=auto;html=1;exitX=0.5;exitY=1;exitDx=0;exitDy=0;entryX=0.5;entryY=0;entryDx=0;entryDy=0;" parent="1" source="Lr-_QGNphBaJh8-wqTKY-179" target="Lr-_QGNphBaJh8-wqTKY-198" edge="1">
          <mxGeometry relative="1" as="geometry" />
        </mxCell>
        <mxCell id="Lr-_QGNphBaJh8-wqTKY-179" value="" style="rounded=0;whiteSpace=wrap;html=1;" parent="1" vertex="1">
          <mxGeometry x="150" y="1350" width="190" height="230" as="geometry" />
        </mxCell>
        <mxCell id="Lr-_QGNphBaJh8-wqTKY-180" value="FzBuyerCustomizedActivity.customized" style="text;html=1;strokeColor=none;fillColor=none;align=center;verticalAlign=middle;whiteSpace=wrap;rounded=0;" parent="1" vertex="1">
          <mxGeometry x="172.5" y="1354" width="145" height="30" as="geometry" />
        </mxCell>
        <mxCell id="Lr-_QGNphBaJh8-wqTKY-181" style="edgeStyle=orthogonalEdgeStyle;rounded=0;orthogonalLoop=1;jettySize=auto;html=1;exitX=0.5;exitY=1;exitDx=0;exitDy=0;entryX=0.5;entryY=0;entryDx=0;entryDy=0;" parent="1" source="Lr-_QGNphBaJh8-wqTKY-182" target="Lr-_QGNphBaJh8-wqTKY-184" edge="1">
          <mxGeometry relative="1" as="geometry" />
        </mxCell>
        <mxCell id="Lr-_QGNphBaJh8-wqTKY-182" value="loadBuyerQualification" style="rounded=0;whiteSpace=wrap;html=1;fillColor=#FFF2CC;" parent="1" vertex="1">
          <mxGeometry x="160" y="1390" width="170" height="30" as="geometry" />
        </mxCell>
        <mxCell id="Lr-_QGNphBaJh8-wqTKY-183" style="edgeStyle=orthogonalEdgeStyle;rounded=0;orthogonalLoop=1;jettySize=auto;html=1;exitX=0.5;exitY=1;exitDx=0;exitDy=0;entryX=0.5;entryY=0;entryDx=0;entryDy=0;" parent="1" source="Lr-_QGNphBaJh8-wqTKY-184" target="Lr-_QGNphBaJh8-wqTKY-186" edge="1">
          <mxGeometry relative="1" as="geometry" />
        </mxCell>
        <mxCell id="Lr-_QGNphBaJh8-wqTKY-184" value="loadBuyerUpfCrowd" style="rounded=0;whiteSpace=wrap;html=1;fillColor=#FFF2CC;" parent="1" vertex="1">
          <mxGeometry x="160" y="1440" width="170" height="30" as="geometry" />
        </mxCell>
        <mxCell id="Lr-_QGNphBaJh8-wqTKY-185" style="edgeStyle=orthogonalEdgeStyle;rounded=0;orthogonalLoop=1;jettySize=auto;html=1;exitX=0.5;exitY=1;exitDx=0;exitDy=0;entryX=0.5;entryY=0;entryDx=0;entryDy=0;" parent="1" source="Lr-_QGNphBaJh8-wqTKY-186" target="Lr-_QGNphBaJh8-wqTKY-188" edge="1">
          <mxGeometry relative="1" as="geometry" />
        </mxCell>
        <mxCell id="Lr-_QGNphBaJh8-wqTKY-186" value="loadBuyerAgreement" style="rounded=0;whiteSpace=wrap;html=1;fillColor=#FFF2CC;" parent="1" vertex="1">
          <mxGeometry x="160" y="1490" width="170" height="30" as="geometry" />
        </mxCell>
        <mxCell id="Lr-_QGNphBaJh8-wqTKY-194" style="edgeStyle=orthogonalEdgeStyle;rounded=0;orthogonalLoop=1;jettySize=auto;html=1;exitX=0;exitY=0.5;exitDx=0;exitDy=0;" parent="1" source="Lr-_QGNphBaJh8-wqTKY-188" target="Lr-_QGNphBaJh8-wqTKY-193" edge="1">
          <mxGeometry relative="1" as="geometry" />
        </mxCell>
        <mxCell id="Lr-_QGNphBaJh8-wqTKY-188" value="loadBuyerAuthorization" style="rounded=0;whiteSpace=wrap;html=1;fillColor=#FFF2CC;" parent="1" vertex="1">
          <mxGeometry x="160" y="1540" width="170" height="30" as="geometry" />
        </mxCell>
        <mxCell id="Lr-_QGNphBaJh8-wqTKY-192" value="加载买家行业信息" style="text;html=1;strokeColor=none;fillColor=none;align=center;verticalAlign=middle;whiteSpace=wrap;rounded=0;" parent="1" vertex="1">
          <mxGeometry x="55" y="1354" width="60" height="30" as="geometry" />
        </mxCell>
        <mxCell id="Lr-_QGNphBaJh8-wqTKY-193" value="&lt;div style=&quot;text-align: center&quot;&gt;&lt;/div&gt;&lt;span style=&quot;color: rgb(51 , 51 , 51) ; font-family: &amp;#34;roboto&amp;#34; , &amp;#34;helvetica neue&amp;#34; , &amp;#34;helvetica&amp;#34; , &amp;#34;tahoma&amp;#34; , &amp;#34;arial&amp;#34; , &amp;#34;pingfang sc&amp;#34; , &amp;#34;microsoft yahei&amp;#34; ; background-color: rgb(229 , 255 , 243)&quot;&gt;1.&lt;/span&gt;&lt;span style=&quot;color: rgb(51 , 51 , 51) ; font-family: &amp;#34;roboto&amp;#34; , &amp;#34;helvetica neue&amp;#34; , &amp;#34;helvetica&amp;#34; , &amp;#34;tahoma&amp;#34; , &amp;#34;arial&amp;#34; , &amp;#34;pingfang sc&amp;#34; , &amp;#34;microsoft yahei&amp;#34; ; background-color: rgb(229 , 255 , 243)&quot;&gt;非hk卖家不执行海外授权检查&lt;/span&gt;&lt;span style=&quot;color: rgb(51 , 51 , 51) ; font-family: &amp;#34;roboto&amp;#34; , &amp;#34;helvetica neue&amp;#34; , &amp;#34;helvetica&amp;#34; , &amp;#34;tahoma&amp;#34; , &amp;#34;arial&amp;#34; , &amp;#34;pingfang sc&amp;#34; , &amp;#34;microsoft yahei&amp;#34; ; background-color: rgb(250 , 250 , 250)&quot;&gt;&lt;br&gt;&lt;/span&gt;" style="shape=process;whiteSpace=wrap;html=1;backgroundOutline=1;fillColor=#9AC7BF;" parent="1" vertex="1">
          <mxGeometry x="-251.5" y="1537.5" width="351.5" height="35" as="geometry" />
        </mxCell>
        <mxCell id="Lr-_QGNphBaJh8-wqTKY-195" value="&lt;span style=&quot;color: rgb(51 , 51 , 51) ; font-family: &amp;#34;roboto&amp;#34; , &amp;#34;helvetica neue&amp;#34; , &amp;#34;helvetica&amp;#34; , &amp;#34;tahoma&amp;#34; , &amp;#34;arial&amp;#34; , &amp;#34;pingfang sc&amp;#34; , &amp;#34;microsoft yahei&amp;#34; ; background-color: rgb(229 , 255 , 243)&quot;&gt;1.买家域买家信息初始化BuyerDO&lt;/span&gt;&lt;span style=&quot;color: rgb(51 , 51 , 51) ; font-family: &amp;#34;roboto&amp;#34; , &amp;#34;helvetica neue&amp;#34; , &amp;#34;helvetica&amp;#34; , &amp;#34;tahoma&amp;#34; , &amp;#34;arial&amp;#34; , &amp;#34;pingfang sc&amp;#34; , &amp;#34;microsoft yahei&amp;#34; ; background-color: rgb(229 , 255 , 243)&quot;&gt;&lt;br&gt;&lt;/span&gt;&lt;span style=&quot;color: rgb(51 , 51 , 51) ; font-family: &amp;#34;roboto&amp;#34; , &amp;#34;helvetica neue&amp;#34; , &amp;#34;helvetica&amp;#34; , &amp;#34;tahoma&amp;#34; , &amp;#34;arial&amp;#34; , &amp;#34;pingfang sc&amp;#34; , &amp;#34;microsoft yahei&amp;#34; ; background-color: rgb(229 , 255 , 243)&quot;&gt;2.卖家域-加载行业定制信息&lt;br&gt;&lt;/span&gt;" style="shape=process;whiteSpace=wrap;html=1;backgroundOutline=1;fillColor=#9AC7BF;" parent="1" vertex="1">
          <mxGeometry x="407.5" y="1590" width="370" height="30" as="geometry" />
        </mxCell>
        <mxCell id="Lr-_QGNphBaJh8-wqTKY-269" style="edgeStyle=orthogonalEdgeStyle;rounded=0;orthogonalLoop=1;jettySize=auto;html=1;exitX=0.5;exitY=1;exitDx=0;exitDy=0;entryX=0;entryY=0.5;entryDx=0;entryDy=0;" parent="1" source="Lr-_QGNphBaJh8-wqTKY-198" target="Lr-_QGNphBaJh8-wqTKY-268" edge="1">
          <mxGeometry relative="1" as="geometry" />
        </mxCell>
        <mxCell id="Lr-_QGNphBaJh8-wqTKY-270" style="edgeStyle=orthogonalEdgeStyle;rounded=0;orthogonalLoop=1;jettySize=auto;html=1;exitX=0.5;exitY=1;exitDx=0;exitDy=0;entryX=0.5;entryY=0;entryDx=0;entryDy=0;" parent="1" source="Lr-_QGNphBaJh8-wqTKY-198" target="Lr-_QGNphBaJh8-wqTKY-257" edge="1">
          <mxGeometry relative="1" as="geometry" />
        </mxCell>
        <mxCell id="Lr-_QGNphBaJh8-wqTKY-198" value="" style="rounded=0;whiteSpace=wrap;html=1;" parent="1" vertex="1">
          <mxGeometry x="150" y="1660" width="190" height="330" as="geometry" />
        </mxCell>
        <mxCell id="Lr-_QGNphBaJh8-wqTKY-199" value="FzBuyerMemberActivity.member" style="text;html=1;strokeColor=none;fillColor=none;align=center;verticalAlign=middle;whiteSpace=wrap;rounded=0;" parent="1" vertex="1">
          <mxGeometry x="172.5" y="1664" width="145" height="30" as="geometry" />
        </mxCell>
        <mxCell id="Lr-_QGNphBaJh8-wqTKY-200" style="edgeStyle=orthogonalEdgeStyle;rounded=0;orthogonalLoop=1;jettySize=auto;html=1;exitX=0.5;exitY=1;exitDx=0;exitDy=0;entryX=0.5;entryY=0;entryDx=0;entryDy=0;" parent="1" source="Lr-_QGNphBaJh8-wqTKY-201" target="Lr-_QGNphBaJh8-wqTKY-203" edge="1">
          <mxGeometry relative="1" as="geometry" />
        </mxCell>
        <mxCell id="Lr-_QGNphBaJh8-wqTKY-209" style="edgeStyle=orthogonalEdgeStyle;rounded=0;orthogonalLoop=1;jettySize=auto;html=1;exitX=0;exitY=0.5;exitDx=0;exitDy=0;" parent="1" source="Lr-_QGNphBaJh8-wqTKY-201" target="Lr-_QGNphBaJh8-wqTKY-208" edge="1">
          <mxGeometry relative="1" as="geometry" />
        </mxCell>
        <mxCell id="Lr-_QGNphBaJh8-wqTKY-201" value="queryTripUser" style="rounded=0;whiteSpace=wrap;html=1;fillColor=#FFF2CC;" parent="1" vertex="1">
          <mxGeometry x="160" y="1700" width="170" height="30" as="geometry" />
        </mxCell>
        <mxCell id="Lr-_QGNphBaJh8-wqTKY-202" style="edgeStyle=orthogonalEdgeStyle;rounded=0;orthogonalLoop=1;jettySize=auto;html=1;exitX=0.5;exitY=1;exitDx=0;exitDy=0;entryX=0.5;entryY=0;entryDx=0;entryDy=0;" parent="1" source="Lr-_QGNphBaJh8-wqTKY-203" target="Lr-_QGNphBaJh8-wqTKY-205" edge="1">
          <mxGeometry relative="1" as="geometry" />
        </mxCell>
        <mxCell id="Lr-_QGNphBaJh8-wqTKY-214" style="edgeStyle=orthogonalEdgeStyle;rounded=0;orthogonalLoop=1;jettySize=auto;html=1;exitX=0;exitY=0.5;exitDx=0;exitDy=0;entryX=1;entryY=0.5;entryDx=0;entryDy=0;" parent="1" source="Lr-_QGNphBaJh8-wqTKY-203" target="Lr-_QGNphBaJh8-wqTKY-212" edge="1">
          <mxGeometry relative="1" as="geometry" />
        </mxCell>
        <mxCell id="Lr-_QGNphBaJh8-wqTKY-203" value="buildChinesePinyin" style="rounded=0;whiteSpace=wrap;html=1;fillColor=#FFF2CC;" parent="1" vertex="1">
          <mxGeometry x="160" y="1750" width="170" height="30" as="geometry" />
        </mxCell>
        <mxCell id="Lr-_QGNphBaJh8-wqTKY-204" style="edgeStyle=orthogonalEdgeStyle;rounded=0;orthogonalLoop=1;jettySize=auto;html=1;exitX=0.5;exitY=1;exitDx=0;exitDy=0;entryX=0.5;entryY=0;entryDx=0;entryDy=0;" parent="1" source="Lr-_QGNphBaJh8-wqTKY-205" target="Lr-_QGNphBaJh8-wqTKY-206" edge="1">
          <mxGeometry relative="1" as="geometry" />
        </mxCell>
        <mxCell id="Lr-_QGNphBaJh8-wqTKY-221" style="edgeStyle=orthogonalEdgeStyle;rounded=0;orthogonalLoop=1;jettySize=auto;html=1;exitX=0;exitY=0.5;exitDx=0;exitDy=0;" parent="1" source="Lr-_QGNphBaJh8-wqTKY-205" target="Lr-_QGNphBaJh8-wqTKY-220" edge="1">
          <mxGeometry relative="1" as="geometry" />
        </mxCell>
        <mxCell id="Lr-_QGNphBaJh8-wqTKY-205" value="userMember" style="rounded=0;whiteSpace=wrap;html=1;fillColor=#FFF2CC;" parent="1" vertex="1">
          <mxGeometry x="160" y="1800" width="170" height="30" as="geometry" />
        </mxCell>
        <mxCell id="Lr-_QGNphBaJh8-wqTKY-232" style="edgeStyle=orthogonalEdgeStyle;rounded=0;orthogonalLoop=1;jettySize=auto;html=1;exitX=0;exitY=0.5;exitDx=0;exitDy=0;" parent="1" source="Lr-_QGNphBaJh8-wqTKY-206" target="Lr-_QGNphBaJh8-wqTKY-231" edge="1">
          <mxGeometry relative="1" as="geometry" />
        </mxCell>
        <mxCell id="Lr-_QGNphBaJh8-wqTKY-241" style="edgeStyle=orthogonalEdgeStyle;rounded=0;orthogonalLoop=1;jettySize=auto;html=1;exitX=0.5;exitY=1;exitDx=0;exitDy=0;entryX=0.5;entryY=0;entryDx=0;entryDy=0;" parent="1" source="Lr-_QGNphBaJh8-wqTKY-206" target="Lr-_QGNphBaJh8-wqTKY-235" edge="1">
          <mxGeometry relative="1" as="geometry" />
        </mxCell>
        <mxCell id="Lr-_QGNphBaJh8-wqTKY-206" value="getRegisterFormInfo" style="rounded=0;whiteSpace=wrap;html=1;fillColor=#FFF2CC;" parent="1" vertex="1">
          <mxGeometry x="160" y="1850" width="170" height="30" as="geometry" />
        </mxCell>
        <mxCell id="Lr-_QGNphBaJh8-wqTKY-207" value="加载买家会员信息" style="text;html=1;strokeColor=none;fillColor=none;align=center;verticalAlign=middle;whiteSpace=wrap;rounded=0;" parent="1" vertex="1">
          <mxGeometry x="55" y="1660" width="60" height="30" as="geometry" />
        </mxCell>
        <mxCell id="Lr-_QGNphBaJh8-wqTKY-208" value="getFfaUser(getTripUser?)" style="rounded=1;whiteSpace=wrap;html=1;fillColor=#FFF2CC;" parent="1" vertex="1">
          <mxGeometry x="-100" y="1700" width="210" height="30" as="geometry" />
        </mxCell>
        <mxCell id="Lr-_QGNphBaJh8-wqTKY-210" value="查询常旅客信息" style="text;html=1;strokeColor=none;fillColor=none;align=center;verticalAlign=middle;whiteSpace=wrap;rounded=0;" parent="1" vertex="1">
          <mxGeometry x="-170" y="1700" width="60" height="30" as="geometry" />
        </mxCell>
        <mxCell id="Lr-_QGNphBaJh8-wqTKY-212" value="transformChinese" style="rounded=1;whiteSpace=wrap;html=1;fillColor=#FFF2CC;" parent="1" vertex="1">
          <mxGeometry x="-100" y="1750" width="210" height="30" as="geometry" />
        </mxCell>
        <mxCell id="Lr-_QGNphBaJh8-wqTKY-213" value="中文拼音转换" style="text;html=1;strokeColor=none;fillColor=none;align=center;verticalAlign=middle;whiteSpace=wrap;rounded=0;" parent="1" vertex="1">
          <mxGeometry x="-170" y="1750" width="60" height="30" as="geometry" />
        </mxCell>
        <mxCell id="Lr-_QGNphBaJh8-wqTKY-215" value="&lt;div style=&quot;text-align: center&quot;&gt;&lt;/div&gt;&lt;span style=&quot;color: rgb(51 , 51 , 51) ; font-family: &amp;#34;roboto&amp;#34; , &amp;#34;helvetica neue&amp;#34; , &amp;#34;helvetica&amp;#34; , &amp;#34;tahoma&amp;#34; , &amp;#34;arial&amp;#34; , &amp;#34;pingfang sc&amp;#34; , &amp;#34;microsoft yahei&amp;#34; ; background-color: rgb(250 , 250 , 250)&quot;&gt;1.查询用户卖家权益数据&lt;br&gt;&lt;/span&gt;&lt;span style=&quot;color: rgb(51 , 51 , 51) ; font-family: &amp;#34;roboto&amp;#34; , &amp;#34;helvetica neue&amp;#34; , &amp;#34;helvetica&amp;#34; , &amp;#34;tahoma&amp;#34; , &amp;#34;arial&amp;#34; , &amp;#34;pingfang sc&amp;#34; , &amp;#34;microsoft yahei&amp;#34; ; background-color: rgb(229 , 255 , 243)&quot;&gt;2.Buy2下单页渲染userMember接口成功&lt;/span&gt;&lt;span style=&quot;color: rgb(51 , 51 , 51) ; font-family: &amp;#34;roboto&amp;#34; , &amp;#34;helvetica neue&amp;#34; , &amp;#34;helvetica&amp;#34; , &amp;#34;tahoma&amp;#34; , &amp;#34;arial&amp;#34; , &amp;#34;pingfang sc&amp;#34; , &amp;#34;microsoft yahei&amp;#34; ; background-color: rgb(229 , 255 , 243)&quot;&gt;&lt;br&gt;&lt;/span&gt;" style="shape=process;whiteSpace=wrap;html=1;backgroundOutline=1;fillColor=#9AC7BF;" parent="1" vertex="1">
          <mxGeometry x="-481.5" y="1797.5" width="351.5" height="35" as="geometry" />
        </mxCell>
        <mxCell id="Lr-_QGNphBaJh8-wqTKY-222" style="edgeStyle=orthogonalEdgeStyle;rounded=0;orthogonalLoop=1;jettySize=auto;html=1;exitX=0;exitY=0.5;exitDx=0;exitDy=0;entryX=1;entryY=0.5;entryDx=0;entryDy=0;" parent="1" source="Lr-_QGNphBaJh8-wqTKY-220" target="Lr-_QGNphBaJh8-wqTKY-215" edge="1">
          <mxGeometry relative="1" as="geometry" />
        </mxCell>
        <mxCell id="Lr-_QGNphBaJh8-wqTKY-220" value="getUserMemberRights4UI" style="rounded=1;whiteSpace=wrap;html=1;fillColor=#FFF2CC;" parent="1" vertex="1">
          <mxGeometry x="-100" y="1800" width="210" height="30" as="geometry" />
        </mxCell>
        <mxCell id="Lr-_QGNphBaJh8-wqTKY-226" style="edgeStyle=orthogonalEdgeStyle;rounded=0;orthogonalLoop=1;jettySize=auto;html=1;exitX=0.5;exitY=0;exitDx=0;exitDy=0;entryX=1;entryY=0.5;entryDx=0;entryDy=0;" parent="1" source="Lr-_QGNphBaJh8-wqTKY-224" target="Lr-_QGNphBaJh8-wqTKY-201" edge="1">
          <mxGeometry relative="1" as="geometry" />
        </mxCell>
        <mxCell id="Lr-_QGNphBaJh8-wqTKY-228" style="edgeStyle=orthogonalEdgeStyle;rounded=0;orthogonalLoop=1;jettySize=auto;html=1;exitX=0;exitY=0.5;exitDx=0;exitDy=0;entryX=1;entryY=0.5;entryDx=0;entryDy=0;" parent="1" source="Lr-_QGNphBaJh8-wqTKY-224" target="Lr-_QGNphBaJh8-wqTKY-203" edge="1">
          <mxGeometry relative="1" as="geometry" />
        </mxCell>
        <mxCell id="Lr-_QGNphBaJh8-wqTKY-252" style="edgeStyle=orthogonalEdgeStyle;rounded=0;orthogonalLoop=1;jettySize=auto;html=1;exitX=1;exitY=0.5;exitDx=0;exitDy=0;" parent="1" source="Lr-_QGNphBaJh8-wqTKY-224" target="Lr-_QGNphBaJh8-wqTKY-251" edge="1">
          <mxGeometry relative="1" as="geometry" />
        </mxCell>
        <mxCell id="Lr-_QGNphBaJh8-wqTKY-224" value="loadBuyerTrip" style="rounded=0;whiteSpace=wrap;html=1;fillColor=#FFF2CC;" parent="1" vertex="1">
          <mxGeometry x="360" y="1750" width="170" height="30" as="geometry" />
        </mxCell>
        <mxCell id="Lr-_QGNphBaJh8-wqTKY-248" style="edgeStyle=orthogonalEdgeStyle;rounded=0;orthogonalLoop=1;jettySize=auto;html=1;exitX=0.5;exitY=0;exitDx=0;exitDy=0;entryX=1;entryY=0.5;entryDx=0;entryDy=0;" parent="1" source="Lr-_QGNphBaJh8-wqTKY-229" target="Lr-_QGNphBaJh8-wqTKY-206" edge="1">
          <mxGeometry relative="1" as="geometry" />
        </mxCell>
        <mxCell id="Lr-_QGNphBaJh8-wqTKY-249" style="edgeStyle=orthogonalEdgeStyle;rounded=0;orthogonalLoop=1;jettySize=auto;html=1;exitX=0.5;exitY=1;exitDx=0;exitDy=0;entryX=1;entryY=0.5;entryDx=0;entryDy=0;" parent="1" source="Lr-_QGNphBaJh8-wqTKY-229" target="Lr-_QGNphBaJh8-wqTKY-240" edge="1">
          <mxGeometry relative="1" as="geometry" />
        </mxCell>
        <mxCell id="Lr-_QGNphBaJh8-wqTKY-250" style="edgeStyle=orthogonalEdgeStyle;rounded=0;orthogonalLoop=1;jettySize=auto;html=1;exitX=0;exitY=0.5;exitDx=0;exitDy=0;" parent="1" source="Lr-_QGNphBaJh8-wqTKY-229" target="Lr-_QGNphBaJh8-wqTKY-235" edge="1">
          <mxGeometry relative="1" as="geometry" />
        </mxCell>
        <mxCell id="Lr-_QGNphBaJh8-wqTKY-229" value="handlerEnrichChain" style="rounded=0;whiteSpace=wrap;html=1;fillColor=#FFF2CC;" parent="1" vertex="1">
          <mxGeometry x="360" y="1900" width="170" height="30" as="geometry" />
        </mxCell>
        <mxCell id="Lr-_QGNphBaJh8-wqTKY-234" style="edgeStyle=orthogonalEdgeStyle;rounded=0;orthogonalLoop=1;jettySize=auto;html=1;exitX=0;exitY=0.5;exitDx=0;exitDy=0;" parent="1" source="Lr-_QGNphBaJh8-wqTKY-231" target="Lr-_QGNphBaJh8-wqTKY-233" edge="1">
          <mxGeometry relative="1" as="geometry" />
        </mxCell>
        <mxCell id="Lr-_QGNphBaJh8-wqTKY-231" value="getRegisterInfo4Trade" style="rounded=1;whiteSpace=wrap;html=1;fillColor=#FFF2CC;" parent="1" vertex="1">
          <mxGeometry x="-100" y="1850" width="210" height="30" as="geometry" />
        </mxCell>
        <mxCell id="Lr-_QGNphBaJh8-wqTKY-233" value="&lt;div style=&quot;text-align: center&quot;&gt;&lt;/div&gt;&lt;span style=&quot;color: rgb(51 , 51 , 51) ; font-family: &amp;#34;roboto&amp;#34; , &amp;#34;helvetica neue&amp;#34; , &amp;#34;helvetica&amp;#34; , &amp;#34;tahoma&amp;#34; , &amp;#34;arial&amp;#34; , &amp;#34;pingfang sc&amp;#34; , &amp;#34;microsoft yahei&amp;#34; ; background-color: rgb(250 , 250 , 250)&quot;&gt;1.获取会员注册信息成功&lt;/span&gt;&lt;span style=&quot;color: rgb(51 , 51 , 51) ; font-family: &amp;#34;roboto&amp;#34; , &amp;#34;helvetica neue&amp;#34; , &amp;#34;helvetica&amp;#34; , &amp;#34;tahoma&amp;#34; , &amp;#34;arial&amp;#34; , &amp;#34;pingfang sc&amp;#34; , &amp;#34;microsoft yahei&amp;#34; ; background-color: rgb(229 , 255 , 243)&quot;&gt;&lt;br&gt;&lt;/span&gt;" style="shape=process;whiteSpace=wrap;html=1;backgroundOutline=1;fillColor=#9AC7BF;" parent="1" vertex="1">
          <mxGeometry x="-481.5" y="1847.5" width="351.5" height="35" as="geometry" />
        </mxCell>
        <mxCell id="Lr-_QGNphBaJh8-wqTKY-238" style="edgeStyle=orthogonalEdgeStyle;rounded=0;orthogonalLoop=1;jettySize=auto;html=1;exitX=0;exitY=0.5;exitDx=0;exitDy=0;entryX=1;entryY=0.5;entryDx=0;entryDy=0;" parent="1" source="Lr-_QGNphBaJh8-wqTKY-235" target="Lr-_QGNphBaJh8-wqTKY-236" edge="1">
          <mxGeometry relative="1" as="geometry" />
        </mxCell>
        <mxCell id="Lr-_QGNphBaJh8-wqTKY-242" style="edgeStyle=orthogonalEdgeStyle;rounded=0;orthogonalLoop=1;jettySize=auto;html=1;exitX=0.5;exitY=1;exitDx=0;exitDy=0;entryX=0.5;entryY=0;entryDx=0;entryDy=0;" parent="1" source="Lr-_QGNphBaJh8-wqTKY-235" target="Lr-_QGNphBaJh8-wqTKY-240" edge="1">
          <mxGeometry relative="1" as="geometry" />
        </mxCell>
        <mxCell id="Lr-_QGNphBaJh8-wqTKY-235" value="getSlogan" style="rounded=0;whiteSpace=wrap;html=1;fillColor=#FFF2CC;" parent="1" vertex="1">
          <mxGeometry x="160" y="1900" width="170" height="30" as="geometry" />
        </mxCell>
        <mxCell id="Lr-_QGNphBaJh8-wqTKY-245" style="edgeStyle=orthogonalEdgeStyle;rounded=0;orthogonalLoop=1;jettySize=auto;html=1;exitX=0;exitY=0.5;exitDx=0;exitDy=0;entryX=1;entryY=0.5;entryDx=0;entryDy=0;" parent="1" source="Lr-_QGNphBaJh8-wqTKY-236" target="Lr-_QGNphBaJh8-wqTKY-239" edge="1">
          <mxGeometry relative="1" as="geometry" />
        </mxCell>
        <mxCell id="Lr-_QGNphBaJh8-wqTKY-236" value="getSloganInfos" style="rounded=1;whiteSpace=wrap;html=1;fillColor=#FFF2CC;" parent="1" vertex="1">
          <mxGeometry x="-100" y="1900" width="210" height="30" as="geometry" />
        </mxCell>
        <mxCell id="Lr-_QGNphBaJh8-wqTKY-239" value="&lt;div style=&quot;text-align: center&quot;&gt;&lt;/div&gt;&lt;span style=&quot;color: rgb(51 , 51 , 51) ; font-family: &amp;#34;roboto&amp;#34; , &amp;#34;helvetica neue&amp;#34; , &amp;#34;helvetica&amp;#34; , &amp;#34;tahoma&amp;#34; , &amp;#34;arial&amp;#34; , &amp;#34;pingfang sc&amp;#34; , &amp;#34;microsoft yahei&amp;#34; ; background-color: rgb(250 , 250 , 250)&quot;&gt;1.获取SloganInfos成功&lt;/span&gt;&lt;span style=&quot;color: rgb(51 , 51 , 51) ; font-family: &amp;#34;roboto&amp;#34; , &amp;#34;helvetica neue&amp;#34; , &amp;#34;helvetica&amp;#34; , &amp;#34;tahoma&amp;#34; , &amp;#34;arial&amp;#34; , &amp;#34;pingfang sc&amp;#34; , &amp;#34;microsoft yahei&amp;#34; ; background-color: rgb(229 , 255 , 243)&quot;&gt;&lt;br&gt;&lt;/span&gt;" style="shape=process;whiteSpace=wrap;html=1;backgroundOutline=1;fillColor=#9AC7BF;" parent="1" vertex="1">
          <mxGeometry x="-481.5" y="1897.5" width="351.5" height="35" as="geometry" />
        </mxCell>
        <mxCell id="Lr-_QGNphBaJh8-wqTKY-244" style="edgeStyle=orthogonalEdgeStyle;rounded=0;orthogonalLoop=1;jettySize=auto;html=1;exitX=0;exitY=0.5;exitDx=0;exitDy=0;" parent="1" source="Lr-_QGNphBaJh8-wqTKY-240" target="Lr-_QGNphBaJh8-wqTKY-243" edge="1">
          <mxGeometry relative="1" as="geometry" />
        </mxCell>
        <mxCell id="Lr-_QGNphBaJh8-wqTKY-240" value="getCardMaterial" style="rounded=0;whiteSpace=wrap;html=1;fillColor=#FFF2CC;" parent="1" vertex="1">
          <mxGeometry x="160" y="1950" width="170" height="30" as="geometry" />
        </mxCell>
        <mxCell id="Lr-_QGNphBaJh8-wqTKY-247" style="edgeStyle=orthogonalEdgeStyle;rounded=0;orthogonalLoop=1;jettySize=auto;html=1;exitX=0;exitY=0.5;exitDx=0;exitDy=0;entryX=1;entryY=0.5;entryDx=0;entryDy=0;" parent="1" source="Lr-_QGNphBaJh8-wqTKY-243" target="Lr-_QGNphBaJh8-wqTKY-246" edge="1">
          <mxGeometry relative="1" as="geometry" />
        </mxCell>
        <mxCell id="Lr-_QGNphBaJh8-wqTKY-243" value="getRightInfo" style="rounded=1;whiteSpace=wrap;html=1;fillColor=#FFF2CC;" parent="1" vertex="1">
          <mxGeometry x="-100" y="1950" width="210" height="30" as="geometry" />
        </mxCell>
        <mxCell id="Lr-_QGNphBaJh8-wqTKY-246" value="&lt;div style=&quot;text-align: center&quot;&gt;&lt;/div&gt;&lt;span style=&quot;color: rgb(51 , 51 , 51) ; font-family: &amp;#34;roboto&amp;#34; , &amp;#34;helvetica neue&amp;#34; , &amp;#34;helvetica&amp;#34; , &amp;#34;tahoma&amp;#34; , &amp;#34;arial&amp;#34; , &amp;#34;pingfang sc&amp;#34; , &amp;#34;microsoft yahei&amp;#34; ; background-color: rgb(250 , 250 , 250)&quot;&gt;1.获取会员权益信息成功&lt;/span&gt;&lt;span style=&quot;color: rgb(51 , 51 , 51) ; font-family: &amp;#34;roboto&amp;#34; , &amp;#34;helvetica neue&amp;#34; , &amp;#34;helvetica&amp;#34; , &amp;#34;tahoma&amp;#34; , &amp;#34;arial&amp;#34; , &amp;#34;pingfang sc&amp;#34; , &amp;#34;microsoft yahei&amp;#34; ; background-color: rgb(229 , 255 , 243)&quot;&gt;&lt;br&gt;&lt;/span&gt;" style="shape=process;whiteSpace=wrap;html=1;backgroundOutline=1;fillColor=#9AC7BF;" parent="1" vertex="1">
          <mxGeometry x="-481.5" y="1947.5" width="351.5" height="35" as="geometry" />
        </mxCell>
        <mxCell id="Lr-_QGNphBaJh8-wqTKY-251" value="&lt;span style=&quot;color: rgb(51 , 51 , 51) ; font-family: &amp;#34;roboto&amp;#34; , &amp;#34;helvetica neue&amp;#34; , &amp;#34;helvetica&amp;#34; , &amp;#34;tahoma&amp;#34; , &amp;#34;arial&amp;#34; , &amp;#34;pingfang sc&amp;#34; , &amp;#34;microsoft yahei&amp;#34; ; background-color: rgb(229 , 255 , 243)&quot;&gt;1.买家域会员信息&lt;br&gt;&lt;/span&gt;" style="shape=process;whiteSpace=wrap;html=1;backgroundOutline=1;fillColor=#9AC7BF;" parent="1" vertex="1">
          <mxGeometry x="565" y="1750" width="370" height="30" as="geometry" />
        </mxCell>
        <mxCell id="Lr-_QGNphBaJh8-wqTKY-253" value="&lt;span style=&quot;color: rgb(51 , 51 , 51) ; font-family: &amp;#34;roboto&amp;#34; , &amp;#34;helvetica neue&amp;#34; , &amp;#34;helvetica&amp;#34; , &amp;#34;tahoma&amp;#34; , &amp;#34;arial&amp;#34; , &amp;#34;pingfang sc&amp;#34; , &amp;#34;microsoft yahei&amp;#34; ; background-color: rgb(229 , 255 , 243)&quot;&gt;1.会员权益信息&lt;br&gt;&lt;/span&gt;" style="shape=process;whiteSpace=wrap;html=1;backgroundOutline=1;fillColor=#9AC7BF;" parent="1" vertex="1">
          <mxGeometry x="565" y="1800" width="370" height="30" as="geometry" />
        </mxCell>
        <mxCell id="Lr-_QGNphBaJh8-wqTKY-255" style="edgeStyle=orthogonalEdgeStyle;rounded=0;orthogonalLoop=1;jettySize=auto;html=1;exitX=0;exitY=0.5;exitDx=0;exitDy=0;entryX=1;entryY=0.5;entryDx=0;entryDy=0;" parent="1" source="Lr-_QGNphBaJh8-wqTKY-254" target="Lr-_QGNphBaJh8-wqTKY-205" edge="1">
          <mxGeometry relative="1" as="geometry" />
        </mxCell>
        <mxCell id="Lr-_QGNphBaJh8-wqTKY-256" style="edgeStyle=orthogonalEdgeStyle;rounded=0;orthogonalLoop=1;jettySize=auto;html=1;exitX=1;exitY=0.5;exitDx=0;exitDy=0;entryX=0;entryY=0.5;entryDx=0;entryDy=0;" parent="1" source="Lr-_QGNphBaJh8-wqTKY-254" target="Lr-_QGNphBaJh8-wqTKY-253" edge="1">
          <mxGeometry relative="1" as="geometry" />
        </mxCell>
        <mxCell id="Lr-_QGNphBaJh8-wqTKY-254" value="loadBuyerMember" style="rounded=0;whiteSpace=wrap;html=1;fillColor=#FFF2CC;" parent="1" vertex="1">
          <mxGeometry x="360" y="1800" width="170" height="30" as="geometry" />
        </mxCell>
        <mxCell id="MGFOoLs1k42dDcDTjNo5-9" style="edgeStyle=orthogonalEdgeStyle;rounded=0;orthogonalLoop=1;jettySize=auto;html=1;exitX=0.5;exitY=1;exitDx=0;exitDy=0;entryX=0;entryY=0.5;entryDx=0;entryDy=0;" edge="1" parent="1" source="Lr-_QGNphBaJh8-wqTKY-257" target="MGFOoLs1k42dDcDTjNo5-8">
          <mxGeometry relative="1" as="geometry" />
        </mxCell>
        <mxCell id="MGFOoLs1k42dDcDTjNo5-10" style="edgeStyle=orthogonalEdgeStyle;rounded=0;orthogonalLoop=1;jettySize=auto;html=1;exitX=0.5;exitY=1;exitDx=0;exitDy=0;entryX=0.5;entryY=0;entryDx=0;entryDy=0;" edge="1" parent="1" source="Lr-_QGNphBaJh8-wqTKY-257" target="MGFOoLs1k42dDcDTjNo5-1">
          <mxGeometry relative="1" as="geometry" />
        </mxCell>
        <mxCell id="Lr-_QGNphBaJh8-wqTKY-257" value="" style="rounded=0;whiteSpace=wrap;html=1;" parent="1" vertex="1">
          <mxGeometry x="150" y="2070" width="190" height="180" as="geometry" />
        </mxCell>
        <mxCell id="Lr-_QGNphBaJh8-wqTKY-258" value="FzBuyerTravelersActivity.travelers" style="text;html=1;strokeColor=none;fillColor=none;align=center;verticalAlign=middle;whiteSpace=wrap;rounded=0;" parent="1" vertex="1">
          <mxGeometry x="172.5" y="2074" width="145" height="30" as="geometry" />
        </mxCell>
        <mxCell id="Lr-_QGNphBaJh8-wqTKY-259" style="edgeStyle=orthogonalEdgeStyle;rounded=0;orthogonalLoop=1;jettySize=auto;html=1;exitX=0.5;exitY=1;exitDx=0;exitDy=0;entryX=0.5;entryY=0;entryDx=0;entryDy=0;" parent="1" source="Lr-_QGNphBaJh8-wqTKY-260" target="Lr-_QGNphBaJh8-wqTKY-262" edge="1">
          <mxGeometry relative="1" as="geometry" />
        </mxCell>
        <mxCell id="Lr-_QGNphBaJh8-wqTKY-273" style="edgeStyle=orthogonalEdgeStyle;rounded=0;orthogonalLoop=1;jettySize=auto;html=1;exitX=0;exitY=0.5;exitDx=0;exitDy=0;" parent="1" source="Lr-_QGNphBaJh8-wqTKY-260" target="Lr-_QGNphBaJh8-wqTKY-272" edge="1">
          <mxGeometry relative="1" as="geometry" />
        </mxCell>
        <mxCell id="Lr-_QGNphBaJh8-wqTKY-260" value="loadBuyerLatestGuest" style="rounded=0;whiteSpace=wrap;html=1;fillColor=#FFF2CC;" parent="1" vertex="1">
          <mxGeometry x="160" y="2110" width="170" height="30" as="geometry" />
        </mxCell>
        <mxCell id="Lr-_QGNphBaJh8-wqTKY-261" style="edgeStyle=orthogonalEdgeStyle;rounded=0;orthogonalLoop=1;jettySize=auto;html=1;exitX=0.5;exitY=1;exitDx=0;exitDy=0;entryX=0.5;entryY=0;entryDx=0;entryDy=0;" parent="1" source="Lr-_QGNphBaJh8-wqTKY-262" target="Lr-_QGNphBaJh8-wqTKY-264" edge="1">
          <mxGeometry relative="1" as="geometry" />
        </mxCell>
        <mxCell id="Lr-_QGNphBaJh8-wqTKY-262" value="buyerGuestNameValidate" style="rounded=0;whiteSpace=wrap;html=1;fillColor=#FFF2CC;" parent="1" vertex="1">
          <mxGeometry x="160" y="2160" width="170" height="30" as="geometry" />
        </mxCell>
        <mxCell id="Lr-_QGNphBaJh8-wqTKY-264" value="loadBuyerBtrip" style="rounded=0;whiteSpace=wrap;html=1;fillColor=#FFF2CC;" parent="1" vertex="1">
          <mxGeometry x="160" y="2210" width="170" height="30" as="geometry" />
        </mxCell>
        <mxCell id="Lr-_QGNphBaJh8-wqTKY-267" value="加载买家出行人信息" style="text;html=1;strokeColor=none;fillColor=none;align=center;verticalAlign=middle;whiteSpace=wrap;rounded=0;" parent="1" vertex="1">
          <mxGeometry x="50" y="2074" width="65" height="30" as="geometry" />
        </mxCell>
        <mxCell id="Lr-_QGNphBaJh8-wqTKY-268" value="&lt;span style=&quot;color: rgb(51 , 51 , 51) ; font-family: &amp;#34;roboto&amp;#34; , &amp;#34;helvetica neue&amp;#34; , &amp;#34;helvetica&amp;#34; , &amp;#34;tahoma&amp;#34; , &amp;#34;arial&amp;#34; , &amp;#34;pingfang sc&amp;#34; , &amp;#34;microsoft yahei&amp;#34; ; background-color: rgb(229 , 255 , 243)&quot;&gt;1.买家域-加载会员信息&lt;br&gt;&lt;/span&gt;" style="shape=process;whiteSpace=wrap;html=1;backgroundOutline=1;fillColor=#9AC7BF;" parent="1" vertex="1">
          <mxGeometry x="407.5" y="2000" width="370" height="30" as="geometry" />
        </mxCell>
        <mxCell id="Lr-_QGNphBaJh8-wqTKY-272" value="&lt;div style=&quot;text-align: center&quot;&gt;&lt;/div&gt;&lt;span style=&quot;color: rgb(51 , 51 , 51) ; font-family: &amp;#34;roboto&amp;#34; , &amp;#34;helvetica neue&amp;#34; , &amp;#34;helvetica&amp;#34; , &amp;#34;tahoma&amp;#34; , &amp;#34;arial&amp;#34; , &amp;#34;pingfang sc&amp;#34; , &amp;#34;microsoft yahei&amp;#34; ; background-color: rgb(250 , 250 , 250)&quot;&gt;1.最近入住人信息-initPassengerLayout&lt;br&gt;&lt;/span&gt;&lt;span style=&quot;color: rgb(51 , 51 , 51) ; font-family: &amp;#34;roboto&amp;#34; , &amp;#34;helvetica neue&amp;#34; , &amp;#34;helvetica&amp;#34; , &amp;#34;tahoma&amp;#34; , &amp;#34;arial&amp;#34; , &amp;#34;pingfang sc&amp;#34; , &amp;#34;microsoft yahei&amp;#34; ; background-color: rgb(229 , 255 , 243)&quot;&gt;2.最近入住人信息-initLatestGuest&lt;br&gt;3.&lt;/span&gt;&lt;span style=&quot;color: rgb(51 , 51 , 51) ; font-family: &amp;#34;roboto&amp;#34; , &amp;#34;helvetica neue&amp;#34; , &amp;#34;helvetica&amp;#34; , &amp;#34;tahoma&amp;#34; , &amp;#34;arial&amp;#34; , &amp;#34;pingfang sc&amp;#34; , &amp;#34;microsoft yahei&amp;#34; ; background-color: rgb(229 , 255 , 243)&quot;&gt;Buy2下单页渲染构造默认入住人,uic返回结果&lt;/span&gt;&lt;span style=&quot;color: rgb(51 , 51 , 51) ; font-family: &amp;#34;roboto&amp;#34; , &amp;#34;helvetica neue&amp;#34; , &amp;#34;helvetica&amp;#34; , &amp;#34;tahoma&amp;#34; , &amp;#34;arial&amp;#34; , &amp;#34;pingfang sc&amp;#34; , &amp;#34;microsoft yahei&amp;#34; ; background-color: rgb(229 , 255 , 243)&quot;&gt;&lt;br&gt;4.最近入住人信息-initDefaultGuest&lt;br&gt;&lt;/span&gt;" style="shape=process;whiteSpace=wrap;html=1;backgroundOutline=1;fillColor=#9AC7BF;" parent="1" vertex="1">
          <mxGeometry x="-251.5" y="2110" width="351.5" height="71.25" as="geometry" />
        </mxCell>
        <mxCell id="MGFOoLs1k42dDcDTjNo5-20" style="edgeStyle=orthogonalEdgeStyle;rounded=0;orthogonalLoop=1;jettySize=auto;html=1;exitX=0.5;exitY=1;exitDx=0;exitDy=0;entryX=0;entryY=0.5;entryDx=0;entryDy=0;" edge="1" parent="1" source="MGFOoLs1k42dDcDTjNo5-1" target="MGFOoLs1k42dDcDTjNo5-19">
          <mxGeometry relative="1" as="geometry" />
        </mxCell>
        <mxCell id="MGFOoLs1k42dDcDTjNo5-34" style="edgeStyle=orthogonalEdgeStyle;rounded=0;orthogonalLoop=1;jettySize=auto;html=1;exitX=0.5;exitY=1;exitDx=0;exitDy=0;entryX=0.5;entryY=0;entryDx=0;entryDy=0;" edge="1" parent="1" source="MGFOoLs1k42dDcDTjNo5-1" target="MGFOoLs1k42dDcDTjNo5-25">
          <mxGeometry relative="1" as="geometry" />
        </mxCell>
        <mxCell id="MGFOoLs1k42dDcDTjNo5-1" value="" style="rounded=0;whiteSpace=wrap;html=1;" vertex="1" parent="1">
          <mxGeometry x="150" y="2300" width="190" height="380" as="geometry" />
        </mxCell>
        <mxCell id="MGFOoLs1k42dDcDTjNo5-2" value="FzBuyerValidateActivity.validate" style="text;html=1;strokeColor=none;fillColor=none;align=center;verticalAlign=middle;whiteSpace=wrap;rounded=0;" vertex="1" parent="1">
          <mxGeometry x="172.5" y="2304" width="145" height="30" as="geometry" />
        </mxCell>
        <mxCell id="MGFOoLs1k42dDcDTjNo5-3" style="edgeStyle=orthogonalEdgeStyle;rounded=0;orthogonalLoop=1;jettySize=auto;html=1;exitX=0.5;exitY=1;exitDx=0;exitDy=0;entryX=0.5;entryY=0;entryDx=0;entryDy=0;" edge="1" parent="1" source="MGFOoLs1k42dDcDTjNo5-4" target="MGFOoLs1k42dDcDTjNo5-6">
          <mxGeometry relative="1" as="geometry" />
        </mxCell>
        <mxCell id="MGFOoLs1k42dDcDTjNo5-4" value="firstBookingValidate" style="rounded=0;whiteSpace=wrap;html=1;fillColor=#FFF2CC;" vertex="1" parent="1">
          <mxGeometry x="160" y="2340" width="170" height="30" as="geometry" />
        </mxCell>
        <mxCell id="MGFOoLs1k42dDcDTjNo5-5" style="edgeStyle=orthogonalEdgeStyle;rounded=0;orthogonalLoop=1;jettySize=auto;html=1;exitX=0.5;exitY=1;exitDx=0;exitDy=0;entryX=0.5;entryY=0;entryDx=0;entryDy=0;" edge="1" parent="1" source="MGFOoLs1k42dDcDTjNo5-6" target="MGFOoLs1k42dDcDTjNo5-7">
          <mxGeometry relative="1" as="geometry" />
        </mxCell>
        <mxCell id="MGFOoLs1k42dDcDTjNo5-6" value="selfCheckinValidate" style="rounded=0;whiteSpace=wrap;html=1;fillColor=#FFF2CC;" vertex="1" parent="1">
          <mxGeometry x="160" y="2390" width="170" height="30" as="geometry" />
        </mxCell>
        <mxCell id="MGFOoLs1k42dDcDTjNo5-12" style="edgeStyle=orthogonalEdgeStyle;rounded=0;orthogonalLoop=1;jettySize=auto;html=1;exitX=0.5;exitY=1;exitDx=0;exitDy=0;entryX=0.5;entryY=0;entryDx=0;entryDy=0;" edge="1" parent="1" source="MGFOoLs1k42dDcDTjNo5-7" target="MGFOoLs1k42dDcDTjNo5-11">
          <mxGeometry relative="1" as="geometry" />
        </mxCell>
        <mxCell id="MGFOoLs1k42dDcDTjNo5-23" style="edgeStyle=orthogonalEdgeStyle;rounded=0;orthogonalLoop=1;jettySize=auto;html=1;exitX=0;exitY=0.5;exitDx=0;exitDy=0;entryX=1;entryY=0.5;entryDx=0;entryDy=0;" edge="1" parent="1" source="MGFOoLs1k42dDcDTjNo5-7" target="MGFOoLs1k42dDcDTjNo5-22">
          <mxGeometry relative="1" as="geometry" />
        </mxCell>
        <mxCell id="MGFOoLs1k42dDcDTjNo5-7" value="alipayValidate" style="rounded=0;whiteSpace=wrap;html=1;fillColor=#FFF2CC;" vertex="1" parent="1">
          <mxGeometry x="160" y="2440" width="170" height="30" as="geometry" />
        </mxCell>
        <mxCell id="MGFOoLs1k42dDcDTjNo5-8" value="&lt;span style=&quot;color: rgb(51 , 51 , 51) ; font-family: &amp;#34;roboto&amp;#34; , &amp;#34;helvetica neue&amp;#34; , &amp;#34;helvetica&amp;#34; , &amp;#34;tahoma&amp;#34; , &amp;#34;arial&amp;#34; , &amp;#34;pingfang sc&amp;#34; , &amp;#34;microsoft yahei&amp;#34; ; background-color: rgb(229 , 255 , 243)&quot;&gt;1.买家域-加载出行人信息&lt;br&gt;&lt;/span&gt;" style="shape=process;whiteSpace=wrap;html=1;backgroundOutline=1;fillColor=#9AC7BF;" vertex="1" parent="1">
          <mxGeometry x="407.5" y="2260" width="370" height="30" as="geometry" />
        </mxCell>
        <mxCell id="MGFOoLs1k42dDcDTjNo5-16" style="edgeStyle=orthogonalEdgeStyle;rounded=0;orthogonalLoop=1;jettySize=auto;html=1;exitX=0.5;exitY=1;exitDx=0;exitDy=0;entryX=0.5;entryY=0;entryDx=0;entryDy=0;" edge="1" parent="1" source="MGFOoLs1k42dDcDTjNo5-11" target="MGFOoLs1k42dDcDTjNo5-13">
          <mxGeometry relative="1" as="geometry" />
        </mxCell>
        <mxCell id="MGFOoLs1k42dDcDTjNo5-11" value="memberValidate" style="rounded=0;whiteSpace=wrap;html=1;fillColor=#FFF2CC;" vertex="1" parent="1">
          <mxGeometry x="160" y="2490" width="170" height="30" as="geometry" />
        </mxCell>
        <mxCell id="MGFOoLs1k42dDcDTjNo5-17" style="edgeStyle=orthogonalEdgeStyle;rounded=0;orthogonalLoop=1;jettySize=auto;html=1;exitX=0.5;exitY=1;exitDx=0;exitDy=0;" edge="1" parent="1" source="MGFOoLs1k42dDcDTjNo5-13" target="MGFOoLs1k42dDcDTjNo5-14">
          <mxGeometry relative="1" as="geometry" />
        </mxCell>
        <mxCell id="MGFOoLs1k42dDcDTjNo5-13" value="testBuyerValidate" style="rounded=0;whiteSpace=wrap;html=1;fillColor=#FFF2CC;" vertex="1" parent="1">
          <mxGeometry x="160" y="2540" width="170" height="30" as="geometry" />
        </mxCell>
        <mxCell id="MGFOoLs1k42dDcDTjNo5-18" style="edgeStyle=orthogonalEdgeStyle;rounded=0;orthogonalLoop=1;jettySize=auto;html=1;exitX=0.5;exitY=1;exitDx=0;exitDy=0;entryX=0.5;entryY=0;entryDx=0;entryDy=0;" edge="1" parent="1" source="MGFOoLs1k42dDcDTjNo5-14" target="MGFOoLs1k42dDcDTjNo5-15">
          <mxGeometry relative="1" as="geometry" />
        </mxCell>
        <mxCell id="MGFOoLs1k42dDcDTjNo5-14" value="circleBuyerValidate" style="rounded=0;whiteSpace=wrap;html=1;fillColor=#FFF2CC;" vertex="1" parent="1">
          <mxGeometry x="160" y="2590" width="170" height="30" as="geometry" />
        </mxCell>
        <mxCell id="MGFOoLs1k42dDcDTjNo5-15" value="internationalBuyerValidate" style="rounded=0;whiteSpace=wrap;html=1;fillColor=#FFF2CC;" vertex="1" parent="1">
          <mxGeometry x="160" y="2640" width="170" height="30" as="geometry" />
        </mxCell>
        <mxCell id="MGFOoLs1k42dDcDTjNo5-19" value="&lt;span style=&quot;color: rgb(51 , 51 , 51) ; font-family: &amp;#34;roboto&amp;#34; , &amp;#34;helvetica neue&amp;#34; , &amp;#34;helvetica&amp;#34; , &amp;#34;tahoma&amp;#34; , &amp;#34;arial&amp;#34; , &amp;#34;pingfang sc&amp;#34; , &amp;#34;microsoft yahei&amp;#34; ; background-color: rgb(229 , 255 , 243)&quot;&gt;1.买家域-买家信息校验&lt;br&gt;&lt;/span&gt;" style="shape=process;whiteSpace=wrap;html=1;backgroundOutline=1;fillColor=#9AC7BF;" vertex="1" parent="1">
          <mxGeometry x="410" y="2690" width="370" height="30" as="geometry" />
        </mxCell>
        <mxCell id="MGFOoLs1k42dDcDTjNo5-22" value="&lt;div style=&quot;text-align: center&quot;&gt;&lt;/div&gt;&lt;span style=&quot;color: rgb(51 , 51 , 51) ; font-family: &amp;#34;roboto&amp;#34; , &amp;#34;helvetica neue&amp;#34; , &amp;#34;helvetica&amp;#34; , &amp;#34;tahoma&amp;#34; , &amp;#34;arial&amp;#34; , &amp;#34;pingfang sc&amp;#34; , &amp;#34;microsoft yahei&amp;#34; ; background-color: rgb(250 , 250 , 250)&quot;&gt;1.平台化-支付宝用户校验流程(Buy2SelfCheckinBuilder)&lt;/span&gt;&lt;span style=&quot;color: rgba(0 , 0 , 0 , 0) ; font-family: monospace ; font-size: 0px&quot;&gt;%3CmxGraphModel%3E%3Croot%3E%3CmxCell%20id%3D%220%22%2F%3E%3CmxCell%20id%3D%221%22%20parent%3D%220%22%2F%3E%3CmxCell%20id%3D%222%22%20value%3D%22%26lt%3Bdiv%20style%3D%26quot%3Btext-align%3A%20center%26quot%3B%26gt%3B%26lt%3B%2Fdiv%26gt%3B%26lt%3Bspan%20style%3D%26quot%3Bcolor%3A%20rgb(51%20%2C%2051%20%2C%2051)%20%3B%20font-family%3A%20%26amp%3B%2334%3Broboto%26amp%3B%2334%3B%20%2C%20%26amp%3B%2334%3Bhelvetica%20neue%26amp%3B%2334%3B%20%2C%20%26amp%3B%2334%3Bhelvetica%26amp%3B%2334%3B%20%2C%20%26amp%3B%2334%3Btahoma%26amp%3B%2334%3B%20%2C%20%26amp%3B%2334%3Barial%26amp%3B%2334%3B%20%2C%20%26amp%3B%2334%3Bpingfang%20sc%26amp%3B%2334%3B%20%2C%20%26amp%3B%2334%3Bmicrosoft%20yahei%26amp%3B%2334%3B%20%3B%20background-color%3A%20rgb(250%20%2C%20250%20%2C%20250)%26quot%3B%26gt%3B1.%E8%8E%B7%E5%8F%96%E4%BC%9A%E5%91%98%E6%9D%83%E7%9B%8A%E4%BF%A1%E6%81%AF%E6%88%90%E5%8A%9F%26lt%3B%2Fspan%26gt%3B%26lt%3Bspan%20style%3D%26quot%3Bcolor%3A%20rgb(51%20%2C%2051%20%2C%2051)%20%3B%20font-family%3A%20%26amp%3B%2334%3Broboto%26amp%3B%2334%3B%20%2C%20%26amp%3B%2334%3Bhelvetica%20neue%26amp%3B%2334%3B%20%2C%20%26amp%3B%2334%3Bhelvetica%26amp%3B%2334%3B%20%2C%20%26amp%3B%2334%3Btahoma%26amp%3B%2334%3B%20%2C%20%26amp%3B%2334%3Barial%26amp%3B%2334%3B%20%2C%20%26amp%3B%2334%3Bpingfang%20sc%26amp%3B%2334%3B%20%2C%20%26amp%3B%2334%3Bmicrosoft%20yahei%26amp%3B%2334%3B%20%3B%20background-color%3A%20rgb(229%20%2C%20255%20%2C%20243)%26quot%3B%26gt%3B%26lt%3Bbr%26gt%3B%26lt%3B%2Fspan%26gt%3B%22%20style%3D%22shape%3Dprocess%3BwhiteSpace%3Dwrap%3Bhtml%3D1%3BbackgroundOutline%3D1%3BfillColor%3D%239AC7BF%3B%22%20vertex%3D%221%22%20parent%3D%221%22%3E%3CmxGeometry%20x%3D%22-481.5%22%20y%3D%221947.5%22%20width%3D%22351.5%22%20height%3D%2235%22%20as%3D%22geometry%22%2F%3E%3C%2FmxCell%3E%3C%2Froot%3E%3C%2FmxGraphModel%3E&lt;/span&gt;&lt;span style=&quot;color: rgba(0 , 0 , 0 , 0) ; font-family: monospace ; font-size: 0px&quot;&gt;%3CmxGraphModel%3E%3Croot%3E%3CmxCell%20id%3D%220%22%2F%3E%3CmxCell%20id%3D%221%22%20parent%3D%220%22%2F%3E%3CmxCell%20id%3D%222%22%20value%3D%22%26lt%3Bdiv%20style%3D%26quot%3Btext-align%3A%20center%26quot%3B%26gt%3B%26lt%3B%2Fdiv%26gt%3B%26lt%3Bspan%20style%3D%26quot%3Bcolor%3A%20rgb(51%20%2C%2051%20%2C%2051)%20%3B%20font-family%3A%20%26amp%3B%2334%3Broboto%26amp%3B%2334%3B%20%2C%20%26amp%3B%2334%3Bhelvetica%20neue%26amp%3B%2334%3B%20%2C%20%26amp%3B%2334%3Bhelvetica%26amp%3B%2334%3B%20%2C%20%26amp%3B%2334%3Btahoma%26amp%3B%2334%3B%20%2C%20%26amp%3B%2334%3Barial%26amp%3B%2334%3B%20%2C%20%26amp%3B%2334%3Bpingfang%20sc%26amp%3B%2334%3B%20%2C%20%26amp%3B%2334%3Bmicrosoft%20yahei%26amp%3B%2334%3B%20%3B%20background-color%3A%20rgb(250%20%2C%20250%20%2C%20250)%26quot%3B%26gt%3B1.%E8%8E%B7%E5%8F%96%E4%BC%9A%E5%91%98%E6%9D%83%E7%9B%8A%E4%BF%A1%E6%81%AF%E6%88%90%E5%8A%9F%26lt%3B%2Fspan%26gt%3B%26lt%3Bspan%20style%3D%26quot%3Bcolor%3A%20rgb(51%20%2C%2051%20%2C%2051)%20%3B%20font-family%3A%20%26amp%3B%2334%3Broboto%26amp%3B%2334%3B%20%2C%20%26amp%3B%2334%3Bhelvetica%20neue%26amp%3B%2334%3B%20%2C%20%26amp%3B%2334%3Bhelvetica%26amp%3B%2334%3B%20%2C%20%26amp%3B%2334%3Btahoma%26amp%3B%2334%3B%20%2C%20%26amp%3B%2334%3Barial%26amp%3B%2334%3B%20%2C%20%26amp%3B%2334%3Bpingfang%20sc%26amp%3B%2334%3B%20%2C%20%26amp%3B%2334%3Bmicrosoft%20yahei%26amp%3B%2334%3B%20%3B%20background-color%3A%20rgb(229%20%2C%20255%20%2C%20243)%26quot%3B%26gt%3B%26lt%3Bbr%26gt%3B%26lt%3B%2Fspan%26gt%3B%22%20style%3D%22shape%3Dprocess%3BwhiteSpace%3Dwrap%3Bhtml%3D1%3BbackgroundOutline%3D1%3BfillColor%3D%239AC7BF%3B%22%20vertex%3D%221%22%20parent%3D%221%22%3E%3CmxGeometry%20x%3D%22-481.5%22%20y%3D%221947.5%22%20width%3D%22351.5%22%20height%3D%2235%22%20as%3D%22geometry%22%2F%3E%3C%2FmxCell%3E%3C%2Froot%3E%3C%2FmxGraphModel%3Ep&lt;/span&gt;&lt;span style=&quot;color: rgb(51 , 51 , 51) ; font-family: &amp;#34;roboto&amp;#34; , &amp;#34;helvetica neue&amp;#34; , &amp;#34;helvetica&amp;#34; , &amp;#34;tahoma&amp;#34; , &amp;#34;arial&amp;#34; , &amp;#34;pingfang sc&amp;#34; , &amp;#34;microsoft yahei&amp;#34; ; background-color: rgb(229 , 255 , 243)&quot;&gt;&lt;br&gt;&lt;/span&gt;" style="shape=process;whiteSpace=wrap;html=1;backgroundOutline=1;fillColor=#9AC7BF;" vertex="1" parent="1">
          <mxGeometry x="-251.5" y="2437.5" width="351.5" height="35" as="geometry" />
        </mxCell>
        <mxCell id="MGFOoLs1k42dDcDTjNo5-24" value="买家信息校验" style="text;html=1;strokeColor=none;fillColor=none;align=center;verticalAlign=middle;whiteSpace=wrap;rounded=0;" vertex="1" parent="1">
          <mxGeometry x="52.5" y="2300" width="65" height="30" as="geometry" />
        </mxCell>
        <mxCell id="MGFOoLs1k42dDcDTjNo5-39" style="edgeStyle=orthogonalEdgeStyle;rounded=0;orthogonalLoop=1;jettySize=auto;html=1;exitX=0.5;exitY=1;exitDx=0;exitDy=0;entryX=0;entryY=0.5;entryDx=0;entryDy=0;" edge="1" parent="1" source="MGFOoLs1k42dDcDTjNo5-25" target="MGFOoLs1k42dDcDTjNo5-38">
          <mxGeometry relative="1" as="geometry">
            <mxPoint x="280" y="2850" as="targetPoint" />
          </mxGeometry>
        </mxCell>
        <mxCell id="MGFOoLs1k42dDcDTjNo5-44" style="edgeStyle=orthogonalEdgeStyle;rounded=0;orthogonalLoop=1;jettySize=auto;html=1;exitX=0.5;exitY=1;exitDx=0;exitDy=0;entryX=0.5;entryY=0;entryDx=0;entryDy=0;" edge="1" parent="1" source="MGFOoLs1k42dDcDTjNo5-25" target="MGFOoLs1k42dDcDTjNo5-41">
          <mxGeometry relative="1" as="geometry" />
        </mxCell>
        <mxCell id="MGFOoLs1k42dDcDTjNo5-25" value="" style="rounded=0;whiteSpace=wrap;html=1;" vertex="1" parent="1">
          <mxGeometry x="150" y="2730" width="190" height="80" as="geometry" />
        </mxCell>
        <mxCell id="MGFOoLs1k42dDcDTjNo5-26" value="FzGroupOrderAcitivity.queryGroupOrder" style="text;html=1;strokeColor=none;fillColor=none;align=center;verticalAlign=middle;whiteSpace=wrap;rounded=0;" vertex="1" parent="1">
          <mxGeometry x="172.5" y="2734" width="145" height="30" as="geometry" />
        </mxCell>
        <mxCell id="MGFOoLs1k42dDcDTjNo5-36" style="edgeStyle=orthogonalEdgeStyle;rounded=0;orthogonalLoop=1;jettySize=auto;html=1;exitX=0;exitY=0.5;exitDx=0;exitDy=0;entryX=1;entryY=0.5;entryDx=0;entryDy=0;" edge="1" parent="1" source="MGFOoLs1k42dDcDTjNo5-28" target="MGFOoLs1k42dDcDTjNo5-35">
          <mxGeometry relative="1" as="geometry" />
        </mxCell>
        <mxCell id="MGFOoLs1k42dDcDTjNo5-28" value="queryGroupOrder" style="rounded=0;whiteSpace=wrap;html=1;fillColor=#FFF2CC;" vertex="1" parent="1">
          <mxGeometry x="160" y="2770" width="170" height="30" as="geometry" />
        </mxCell>
        <mxCell id="MGFOoLs1k42dDcDTjNo5-35" value="commonBuynowTradeSnapshotDAO.get" style="rounded=1;whiteSpace=wrap;html=1;fillColor=#FFF2CC;" vertex="1" parent="1">
          <mxGeometry x="-110" y="2770" width="210" height="30" as="geometry" />
        </mxCell>
        <mxCell id="MGFOoLs1k42dDcDTjNo5-37" value="查询数据库" style="text;html=1;strokeColor=none;fillColor=none;align=center;verticalAlign=middle;whiteSpace=wrap;rounded=0;" vertex="1" parent="1">
          <mxGeometry x="-35" y="2734" width="65" height="30" as="geometry" />
        </mxCell>
        <mxCell id="MGFOoLs1k42dDcDTjNo5-38" value="&lt;span style=&quot;color: rgb(51 , 51 , 51) ; font-family: &amp;#34;roboto&amp;#34; , &amp;#34;helvetica neue&amp;#34; , &amp;#34;helvetica&amp;#34; , &amp;#34;tahoma&amp;#34; , &amp;#34;arial&amp;#34; , &amp;#34;pingfang sc&amp;#34; , &amp;#34;microsoft yahei&amp;#34; ; background-color: rgb(229 , 255 , 243)&quot;&gt;1.订单域-套餐订单查询&lt;br&gt;&lt;/span&gt;" style="shape=process;whiteSpace=wrap;html=1;backgroundOutline=1;fillColor=#9AC7BF;" vertex="1" parent="1">
          <mxGeometry x="410" y="2820" width="370" height="30" as="geometry" />
        </mxCell>
        <mxCell id="MGFOoLs1k42dDcDTjNo5-46" style="edgeStyle=orthogonalEdgeStyle;rounded=0;orthogonalLoop=1;jettySize=auto;html=1;exitX=0.5;exitY=1;exitDx=0;exitDy=0;entryX=0;entryY=0.5;entryDx=0;entryDy=0;" edge="1" parent="1" source="MGFOoLs1k42dDcDTjNo5-41" target="MGFOoLs1k42dDcDTjNo5-45">
          <mxGeometry relative="1" as="geometry" />
        </mxCell>
        <mxCell id="MGFOoLs1k42dDcDTjNo5-53" style="edgeStyle=orthogonalEdgeStyle;rounded=0;orthogonalLoop=1;jettySize=auto;html=1;exitX=0.5;exitY=1;exitDx=0;exitDy=0;entryX=0.5;entryY=0;entryDx=0;entryDy=0;" edge="1" parent="1" source="MGFOoLs1k42dDcDTjNo5-41" target="MGFOoLs1k42dDcDTjNo5-48">
          <mxGeometry relative="1" as="geometry" />
        </mxCell>
        <mxCell id="MGFOoLs1k42dDcDTjNo5-41" value="" style="rounded=0;whiteSpace=wrap;html=1;" vertex="1" parent="1">
          <mxGeometry x="150" y="2860" width="190" height="80" as="geometry" />
        </mxCell>
        <mxCell id="MGFOoLs1k42dDcDTjNo5-42" value="FzSecurityActivity.blackListCheck" style="text;html=1;strokeColor=none;fillColor=none;align=center;verticalAlign=middle;whiteSpace=wrap;rounded=0;" vertex="1" parent="1">
          <mxGeometry x="172.5" y="2864" width="145" height="30" as="geometry" />
        </mxCell>
        <mxCell id="MGFOoLs1k42dDcDTjNo5-43" value="blackList" style="rounded=0;whiteSpace=wrap;html=1;fillColor=#FFF2CC;" vertex="1" parent="1">
          <mxGeometry x="160" y="2900" width="170" height="30" as="geometry" />
        </mxCell>
        <mxCell id="MGFOoLs1k42dDcDTjNo5-45" value="&lt;span style=&quot;color: rgb(51 , 51 , 51) ; font-family: &amp;#34;roboto&amp;#34; , &amp;#34;helvetica neue&amp;#34; , &amp;#34;helvetica&amp;#34; , &amp;#34;tahoma&amp;#34; , &amp;#34;arial&amp;#34; , &amp;#34;pingfang sc&amp;#34; , &amp;#34;microsoft yahei&amp;#34; ; background-color: rgb(229 , 255 , 243)&quot;&gt;1.安全域-黑名单服务&lt;br&gt;&lt;/span&gt;" style="shape=process;whiteSpace=wrap;html=1;backgroundOutline=1;fillColor=#9AC7BF;" vertex="1" parent="1">
          <mxGeometry x="410" y="2950" width="370" height="30" as="geometry" />
        </mxCell>
        <mxCell id="MGFOoLs1k42dDcDTjNo5-47" style="edgeStyle=orthogonalEdgeStyle;rounded=0;orthogonalLoop=1;jettySize=auto;html=1;exitX=0.5;exitY=1;exitDx=0;exitDy=0;entryX=0;entryY=0.5;entryDx=0;entryDy=0;" edge="1" parent="1" source="MGFOoLs1k42dDcDTjNo5-48" target="MGFOoLs1k42dDcDTjNo5-51">
          <mxGeometry relative="1" as="geometry" />
        </mxCell>
        <mxCell id="MGFOoLs1k42dDcDTjNo5-62" style="edgeStyle=orthogonalEdgeStyle;rounded=0;orthogonalLoop=1;jettySize=auto;html=1;exitX=0.5;exitY=1;exitDx=0;exitDy=0;entryX=0.5;entryY=0;entryDx=0;entryDy=0;" edge="1" parent="1" source="MGFOoLs1k42dDcDTjNo5-48" target="MGFOoLs1k42dDcDTjNo5-56">
          <mxGeometry relative="1" as="geometry" />
        </mxCell>
        <mxCell id="MGFOoLs1k42dDcDTjNo5-48" value="" style="rounded=0;whiteSpace=wrap;html=1;" vertex="1" parent="1">
          <mxGeometry x="150" y="2990" width="190" height="80" as="geometry" />
        </mxCell>
        <mxCell id="MGFOoLs1k42dDcDTjNo5-49" value="FzSecurityActivity.suspectRiskCheck" style="text;html=1;strokeColor=none;fillColor=none;align=center;verticalAlign=middle;whiteSpace=wrap;rounded=0;" vertex="1" parent="1">
          <mxGeometry x="172.5" y="2994" width="145" height="30" as="geometry" />
        </mxCell>
        <mxCell id="MGFOoLs1k42dDcDTjNo5-50" value="suspectRiskCheck" style="rounded=0;whiteSpace=wrap;html=1;fillColor=#FFF2CC;" vertex="1" parent="1">
          <mxGeometry x="160" y="3030" width="170" height="30" as="geometry" />
        </mxCell>
        <mxCell id="MGFOoLs1k42dDcDTjNo5-51" value="&lt;span style=&quot;color: rgb(51 , 51 , 51) ; font-family: &amp;#34;roboto&amp;#34; , &amp;#34;helvetica neue&amp;#34; , &amp;#34;helvetica&amp;#34; , &amp;#34;tahoma&amp;#34; , &amp;#34;arial&amp;#34; , &amp;#34;pingfang sc&amp;#34; , &amp;#34;microsoft yahei&amp;#34; ; background-color: rgb(229 , 255 , 243)&quot;&gt;1.安全域-疑似风险用户识别&lt;br&gt;&lt;/span&gt;" style="shape=process;whiteSpace=wrap;html=1;backgroundOutline=1;fillColor=#9AC7BF;" vertex="1" parent="1">
          <mxGeometry x="410" y="3080" width="370" height="30" as="geometry" />
        </mxCell>
        <mxCell id="MGFOoLs1k42dDcDTjNo5-55" style="edgeStyle=orthogonalEdgeStyle;rounded=0;orthogonalLoop=1;jettySize=auto;html=1;exitX=0.5;exitY=1;exitDx=0;exitDy=0;entryX=0;entryY=0.5;entryDx=0;entryDy=0;" edge="1" parent="1" source="MGFOoLs1k42dDcDTjNo5-56" target="MGFOoLs1k42dDcDTjNo5-59">
          <mxGeometry relative="1" as="geometry" />
        </mxCell>
        <mxCell id="MGFOoLs1k42dDcDTjNo5-69" style="edgeStyle=orthogonalEdgeStyle;rounded=0;orthogonalLoop=1;jettySize=auto;html=1;exitX=0.5;exitY=1;exitDx=0;exitDy=0;entryX=0.5;entryY=0;entryDx=0;entryDy=0;" edge="1" parent="1" source="MGFOoLs1k42dDcDTjNo5-56" target="MGFOoLs1k42dDcDTjNo5-64">
          <mxGeometry relative="1" as="geometry" />
        </mxCell>
        <mxCell id="MGFOoLs1k42dDcDTjNo5-56" value="" style="rounded=0;whiteSpace=wrap;html=1;" vertex="1" parent="1">
          <mxGeometry x="150" y="3120" width="190" height="80" as="geometry" />
        </mxCell>
        <mxCell id="MGFOoLs1k42dDcDTjNo5-57" value="FzSecurityActivity.balanceCheck" style="text;html=1;strokeColor=none;fillColor=none;align=center;verticalAlign=middle;whiteSpace=wrap;rounded=0;" vertex="1" parent="1">
          <mxGeometry x="172.5" y="3124" width="145" height="30" as="geometry" />
        </mxCell>
        <mxCell id="MGFOoLs1k42dDcDTjNo5-58" value="balanceCheck" style="rounded=0;whiteSpace=wrap;html=1;fillColor=#FFF2CC;" vertex="1" parent="1">
          <mxGeometry x="160" y="3160" width="170" height="30" as="geometry" />
        </mxCell>
        <mxCell id="MGFOoLs1k42dDcDTjNo5-59" value="&lt;span style=&quot;color: rgb(51 , 51 , 51) ; font-family: &amp;#34;roboto&amp;#34; , &amp;#34;helvetica neue&amp;#34; , &amp;#34;helvetica&amp;#34; , &amp;#34;tahoma&amp;#34; , &amp;#34;arial&amp;#34; , &amp;#34;pingfang sc&amp;#34; , &amp;#34;microsoft yahei&amp;#34; ; background-color: rgb(229 , 255 , 243)&quot;&gt;1.&lt;/span&gt;&lt;span style=&quot;color: rgb(51 , 51 , 51) ; font-family: &amp;#34;roboto&amp;#34; , &amp;#34;helvetica neue&amp;#34; , &amp;#34;helvetica&amp;#34; , &amp;#34;tahoma&amp;#34; , &amp;#34;arial&amp;#34; , &amp;#34;pingfang sc&amp;#34; , &amp;#34;microsoft yahei&amp;#34; ; background-color: rgb(229 , 255 , 243)&quot;&gt;FzSecurityBalanceCheck执行&lt;/span&gt;&lt;span style=&quot;color: rgb(51 , 51 , 51) ; font-family: &amp;#34;roboto&amp;#34; , &amp;#34;helvetica neue&amp;#34; , &amp;#34;helvetica&amp;#34; , &amp;#34;tahoma&amp;#34; , &amp;#34;arial&amp;#34; , &amp;#34;pingfang sc&amp;#34; , &amp;#34;microsoft yahei&amp;#34; ; background-color: rgb(229 , 255 , 243)&quot;&gt;&lt;br&gt;&lt;/span&gt;" style="shape=process;whiteSpace=wrap;html=1;backgroundOutline=1;fillColor=#9AC7BF;" vertex="1" parent="1">
          <mxGeometry x="410" y="3210" width="370" height="30" as="geometry" />
        </mxCell>
        <mxCell id="MGFOoLs1k42dDcDTjNo5-63" style="edgeStyle=orthogonalEdgeStyle;rounded=0;orthogonalLoop=1;jettySize=auto;html=1;exitX=0.5;exitY=1;exitDx=0;exitDy=0;entryX=0;entryY=0.5;entryDx=0;entryDy=0;" edge="1" parent="1" source="MGFOoLs1k42dDcDTjNo5-64" target="MGFOoLs1k42dDcDTjNo5-67">
          <mxGeometry relative="1" as="geometry" />
        </mxCell>
        <mxCell id="MGFOoLs1k42dDcDTjNo5-86" style="edgeStyle=orthogonalEdgeStyle;rounded=0;orthogonalLoop=1;jettySize=auto;html=1;exitX=0.5;exitY=1;exitDx=0;exitDy=0;entryX=0.5;entryY=0;entryDx=0;entryDy=0;" edge="1" parent="1" source="MGFOoLs1k42dDcDTjNo5-64" target="MGFOoLs1k42dDcDTjNo5-81">
          <mxGeometry relative="1" as="geometry" />
        </mxCell>
        <mxCell id="MGFOoLs1k42dDcDTjNo5-64" value="" style="rounded=0;whiteSpace=wrap;html=1;" vertex="1" parent="1">
          <mxGeometry x="150" y="3250" width="190" height="80" as="geometry" />
        </mxCell>
        <mxCell id="MGFOoLs1k42dDcDTjNo5-65" value="FzPriceActicity.priceDiff" style="text;html=1;strokeColor=none;fillColor=none;align=center;verticalAlign=middle;whiteSpace=wrap;rounded=0;" vertex="1" parent="1">
          <mxGeometry x="172.5" y="3254" width="145" height="30" as="geometry" />
        </mxCell>
        <mxCell id="MGFOoLs1k42dDcDTjNo5-66" value="priceDiff" style="rounded=0;whiteSpace=wrap;html=1;fillColor=#FFF2CC;" vertex="1" parent="1">
          <mxGeometry x="160" y="3290" width="170" height="30" as="geometry" />
        </mxCell>
        <mxCell id="MGFOoLs1k42dDcDTjNo5-67" value="&lt;span style=&quot;color: rgb(51 , 51 , 51) ; font-family: &amp;#34;roboto&amp;#34; , &amp;#34;helvetica neue&amp;#34; , &amp;#34;helvetica&amp;#34; , &amp;#34;tahoma&amp;#34; , &amp;#34;arial&amp;#34; , &amp;#34;pingfang sc&amp;#34; , &amp;#34;microsoft yahei&amp;#34; ; background-color: rgb(229 , 255 , 243)&quot;&gt;1.&lt;/span&gt;&lt;span style=&quot;color: rgb(51 , 51 , 51) ; font-family: &amp;#34;roboto&amp;#34; , &amp;#34;helvetica neue&amp;#34; , &amp;#34;helvetica&amp;#34; , &amp;#34;tahoma&amp;#34; , &amp;#34;arial&amp;#34; , &amp;#34;pingfang sc&amp;#34; , &amp;#34;microsoft yahei&amp;#34; ; background-color: rgb(229 , 255 , 243)&quot;&gt;价格域-价格比对&lt;/span&gt;&lt;span style=&quot;color: rgb(51 , 51 , 51) ; font-family: &amp;#34;roboto&amp;#34; , &amp;#34;helvetica neue&amp;#34; , &amp;#34;helvetica&amp;#34; , &amp;#34;tahoma&amp;#34; , &amp;#34;arial&amp;#34; , &amp;#34;pingfang sc&amp;#34; , &amp;#34;microsoft yahei&amp;#34; ; background-color: rgb(229 , 255 , 243)&quot;&gt;&lt;br&gt;&lt;/span&gt;" style="shape=process;whiteSpace=wrap;html=1;backgroundOutline=1;fillColor=#9AC7BF;" vertex="1" parent="1">
          <mxGeometry x="410" y="3340" width="370" height="30" as="geometry" />
        </mxCell>
        <mxCell id="MGFOoLs1k42dDcDTjNo5-70" value="套餐订单查询" style="text;html=1;strokeColor=none;fillColor=none;align=center;verticalAlign=middle;whiteSpace=wrap;rounded=0;" vertex="1" parent="1">
          <mxGeometry x="57.5" y="2730" width="65" height="30" as="geometry" />
        </mxCell>
        <mxCell id="MGFOoLs1k42dDcDTjNo5-71" value="黑名单校验" style="text;html=1;strokeColor=none;fillColor=none;align=center;verticalAlign=middle;whiteSpace=wrap;rounded=0;" vertex="1" parent="1">
          <mxGeometry x="60" y="2864" width="65" height="30" as="geometry" />
        </mxCell>
        <mxCell id="MGFOoLs1k42dDcDTjNo5-72" value="疑似风险用户检查" style="text;html=1;strokeColor=none;fillColor=none;align=center;verticalAlign=middle;whiteSpace=wrap;rounded=0;" vertex="1" parent="1">
          <mxGeometry x="60" y="2994" width="65" height="30" as="geometry" />
        </mxCell>
        <mxCell id="MGFOoLs1k42dDcDTjNo5-73" value="余额检查" style="text;html=1;strokeColor=none;fillColor=none;align=center;verticalAlign=middle;whiteSpace=wrap;rounded=0;" vertex="1" parent="1">
          <mxGeometry x="65" y="3124" width="65" height="30" as="geometry" />
        </mxCell>
        <mxCell id="MGFOoLs1k42dDcDTjNo5-74" value="价格比对" style="text;html=1;strokeColor=none;fillColor=none;align=center;verticalAlign=middle;whiteSpace=wrap;rounded=0;" vertex="1" parent="1">
          <mxGeometry x="65" y="3254" width="65" height="30" as="geometry" />
        </mxCell>
        <mxCell id="MGFOoLs1k42dDcDTjNo5-80" style="edgeStyle=orthogonalEdgeStyle;rounded=0;orthogonalLoop=1;jettySize=auto;html=1;exitX=0.5;exitY=1;exitDx=0;exitDy=0;entryX=0;entryY=0.5;entryDx=0;entryDy=0;" edge="1" parent="1" source="MGFOoLs1k42dDcDTjNo5-81" target="MGFOoLs1k42dDcDTjNo5-84">
          <mxGeometry relative="1" as="geometry" />
        </mxCell>
        <mxCell id="MGFOoLs1k42dDcDTjNo5-93" style="edgeStyle=orthogonalEdgeStyle;rounded=0;orthogonalLoop=1;jettySize=auto;html=1;exitX=0.5;exitY=1;exitDx=0;exitDy=0;entryX=0.5;entryY=0;entryDx=0;entryDy=0;" edge="1" parent="1" source="MGFOoLs1k42dDcDTjNo5-81" target="MGFOoLs1k42dDcDTjNo5-88">
          <mxGeometry relative="1" as="geometry" />
        </mxCell>
        <mxCell id="MGFOoLs1k42dDcDTjNo5-81" value="" style="rounded=0;whiteSpace=wrap;html=1;" vertex="1" parent="1">
          <mxGeometry x="150" y="3380" width="190" height="80" as="geometry" />
        </mxCell>
        <mxCell id="MGFOoLs1k42dDcDTjNo5-82" value="FzPriceActivity.priceCurrencyRateCal" style="text;html=1;strokeColor=none;fillColor=none;align=center;verticalAlign=middle;whiteSpace=wrap;rounded=0;" vertex="1" parent="1">
          <mxGeometry x="172.5" y="3384" width="145" height="30" as="geometry" />
        </mxCell>
        <mxCell id="MGFOoLs1k42dDcDTjNo5-83" value="getCurrencyRate" style="rounded=0;whiteSpace=wrap;html=1;fillColor=#FFF2CC;" vertex="1" parent="1">
          <mxGeometry x="160" y="3420" width="170" height="30" as="geometry" />
        </mxCell>
        <mxCell id="MGFOoLs1k42dDcDTjNo5-84" value="&lt;span style=&quot;color: rgb(51 , 51 , 51) ; font-family: &amp;#34;roboto&amp;#34; , &amp;#34;helvetica neue&amp;#34; , &amp;#34;helvetica&amp;#34; , &amp;#34;tahoma&amp;#34; , &amp;#34;arial&amp;#34; , &amp;#34;pingfang sc&amp;#34; , &amp;#34;microsoft yahei&amp;#34; ; background-color: rgb(229 , 255 , 243)&quot;&gt;1.&lt;/span&gt;&lt;span style=&quot;color: rgb(51 , 51 , 51) ; font-family: &amp;#34;roboto&amp;#34; , &amp;#34;helvetica neue&amp;#34; , &amp;#34;helvetica&amp;#34; , &amp;#34;tahoma&amp;#34; , &amp;#34;arial&amp;#34; , &amp;#34;pingfang sc&amp;#34; , &amp;#34;microsoft yahei&amp;#34; ; background-color: rgb(229 , 255 , 243)&quot;&gt;价格域-国际酒店币种汇率&lt;/span&gt;&lt;span style=&quot;color: rgb(51 , 51 , 51) ; font-family: &amp;#34;roboto&amp;#34; , &amp;#34;helvetica neue&amp;#34; , &amp;#34;helvetica&amp;#34; , &amp;#34;tahoma&amp;#34; , &amp;#34;arial&amp;#34; , &amp;#34;pingfang sc&amp;#34; , &amp;#34;microsoft yahei&amp;#34; ; background-color: rgb(229 , 255 , 243)&quot;&gt;&lt;br&gt;&lt;/span&gt;" style="shape=process;whiteSpace=wrap;html=1;backgroundOutline=1;fillColor=#9AC7BF;" vertex="1" parent="1">
          <mxGeometry x="410" y="3470" width="370" height="30" as="geometry" />
        </mxCell>
        <mxCell id="MGFOoLs1k42dDcDTjNo5-85" value="国际酒店币种汇率" style="text;html=1;strokeColor=none;fillColor=none;align=center;verticalAlign=middle;whiteSpace=wrap;rounded=0;" vertex="1" parent="1">
          <mxGeometry x="65" y="3384" width="65" height="30" as="geometry" />
        </mxCell>
        <mxCell id="MGFOoLs1k42dDcDTjNo5-87" style="edgeStyle=orthogonalEdgeStyle;rounded=0;orthogonalLoop=1;jettySize=auto;html=1;exitX=0.5;exitY=1;exitDx=0;exitDy=0;entryX=0;entryY=0.5;entryDx=0;entryDy=0;" edge="1" parent="1" source="MGFOoLs1k42dDcDTjNo5-88" target="MGFOoLs1k42dDcDTjNo5-91">
          <mxGeometry relative="1" as="geometry" />
        </mxCell>
        <mxCell id="MGFOoLs1k42dDcDTjNo5-100" style="edgeStyle=orthogonalEdgeStyle;rounded=0;orthogonalLoop=1;jettySize=auto;html=1;exitX=0.5;exitY=1;exitDx=0;exitDy=0;entryX=0.5;entryY=0;entryDx=0;entryDy=0;" edge="1" parent="1" source="MGFOoLs1k42dDcDTjNo5-88" target="MGFOoLs1k42dDcDTjNo5-95">
          <mxGeometry relative="1" as="geometry" />
        </mxCell>
        <mxCell id="MGFOoLs1k42dDcDTjNo5-88" value="" style="rounded=0;whiteSpace=wrap;html=1;" vertex="1" parent="1">
          <mxGeometry x="150" y="3510" width="190" height="80" as="geometry" />
        </mxCell>
        <mxCell id="MGFOoLs1k42dDcDTjNo5-89" value="FzInvoiceActivity.invoiceConfigEnrich" style="text;html=1;strokeColor=none;fillColor=none;align=center;verticalAlign=middle;whiteSpace=wrap;rounded=0;" vertex="1" parent="1">
          <mxGeometry x="172.5" y="3514" width="145" height="30" as="geometry" />
        </mxCell>
        <mxCell id="MGFOoLs1k42dDcDTjNo5-90" value="getInvoiceConfig" style="rounded=0;whiteSpace=wrap;html=1;fillColor=#FFF2CC;" vertex="1" parent="1">
          <mxGeometry x="160" y="3550" width="170" height="30" as="geometry" />
        </mxCell>
        <mxCell id="MGFOoLs1k42dDcDTjNo5-91" value="&lt;span style=&quot;color: rgb(51 , 51 , 51) ; font-family: &amp;#34;roboto&amp;#34; , &amp;#34;helvetica neue&amp;#34; , &amp;#34;helvetica&amp;#34; , &amp;#34;tahoma&amp;#34; , &amp;#34;arial&amp;#34; , &amp;#34;pingfang sc&amp;#34; , &amp;#34;microsoft yahei&amp;#34; ; background-color: rgb(229 , 255 , 243)&quot;&gt;1.&lt;/span&gt;&lt;span style=&quot;color: rgb(51 , 51 , 51) ; font-family: &amp;#34;roboto&amp;#34; , &amp;#34;helvetica neue&amp;#34; , &amp;#34;helvetica&amp;#34; , &amp;#34;tahoma&amp;#34; , &amp;#34;arial&amp;#34; , &amp;#34;pingfang sc&amp;#34; , &amp;#34;microsoft yahei&amp;#34; ; background-color: rgb(229 , 255 , 243)&quot;&gt;发票域-设置发票配置信息&lt;/span&gt;&lt;span style=&quot;color: rgb(51 , 51 , 51) ; font-family: &amp;#34;roboto&amp;#34; , &amp;#34;helvetica neue&amp;#34; , &amp;#34;helvetica&amp;#34; , &amp;#34;tahoma&amp;#34; , &amp;#34;arial&amp;#34; , &amp;#34;pingfang sc&amp;#34; , &amp;#34;microsoft yahei&amp;#34; ; background-color: rgb(229 , 255 , 243)&quot;&gt;&lt;br&gt;&lt;/span&gt;" style="shape=process;whiteSpace=wrap;html=1;backgroundOutline=1;fillColor=#9AC7BF;" vertex="1" parent="1">
          <mxGeometry x="410" y="3600" width="370" height="30" as="geometry" />
        </mxCell>
        <mxCell id="MGFOoLs1k42dDcDTjNo5-92" value="发票配置" style="text;html=1;strokeColor=none;fillColor=none;align=center;verticalAlign=middle;whiteSpace=wrap;rounded=0;" vertex="1" parent="1">
          <mxGeometry x="65" y="3514" width="65" height="30" as="geometry" />
        </mxCell>
        <mxCell id="MGFOoLs1k42dDcDTjNo5-94" style="edgeStyle=orthogonalEdgeStyle;rounded=0;orthogonalLoop=1;jettySize=auto;html=1;exitX=0.5;exitY=1;exitDx=0;exitDy=0;entryX=0;entryY=0.5;entryDx=0;entryDy=0;" edge="1" parent="1" source="MGFOoLs1k42dDcDTjNo5-95" target="MGFOoLs1k42dDcDTjNo5-98">
          <mxGeometry relative="1" as="geometry" />
        </mxCell>
        <mxCell id="MGFOoLs1k42dDcDTjNo5-107" style="edgeStyle=orthogonalEdgeStyle;rounded=0;orthogonalLoop=1;jettySize=auto;html=1;exitX=0.5;exitY=1;exitDx=0;exitDy=0;entryX=0.5;entryY=0;entryDx=0;entryDy=0;" edge="1" parent="1" source="MGFOoLs1k42dDcDTjNo5-95" target="MGFOoLs1k42dDcDTjNo5-102">
          <mxGeometry relative="1" as="geometry" />
        </mxCell>
        <mxCell id="MGFOoLs1k42dDcDTjNo5-95" value="" style="rounded=0;whiteSpace=wrap;html=1;" vertex="1" parent="1">
          <mxGeometry x="150" y="3640" width="190" height="80" as="geometry" />
        </mxCell>
        <mxCell id="MGFOoLs1k42dDcDTjNo5-96" value="FzPaymentActivity.paymentProtocolEnrich" style="text;html=1;strokeColor=none;fillColor=none;align=center;verticalAlign=middle;whiteSpace=wrap;rounded=0;" vertex="1" parent="1">
          <mxGeometry x="172.5" y="3644" width="145" height="30" as="geometry" />
        </mxCell>
        <mxCell id="MGFOoLs1k42dDcDTjNo5-97" value="getPaymentProtocol" style="rounded=0;whiteSpace=wrap;html=1;fillColor=#FFF2CC;" vertex="1" parent="1">
          <mxGeometry x="160" y="3680" width="170" height="30" as="geometry" />
        </mxCell>
        <mxCell id="MGFOoLs1k42dDcDTjNo5-98" value="&lt;span style=&quot;color: rgb(51 , 51 , 51) ; font-family: &amp;#34;roboto&amp;#34; , &amp;#34;helvetica neue&amp;#34; , &amp;#34;helvetica&amp;#34; , &amp;#34;tahoma&amp;#34; , &amp;#34;arial&amp;#34; , &amp;#34;pingfang sc&amp;#34; , &amp;#34;microsoft yahei&amp;#34; ; background-color: rgb(229 , 255 , 243)&quot;&gt;1.&lt;/span&gt;&lt;span style=&quot;color: rgb(51 , 51 , 51) ; font-family: &amp;#34;roboto&amp;#34; , &amp;#34;helvetica neue&amp;#34; , &amp;#34;helvetica&amp;#34; , &amp;#34;tahoma&amp;#34; , &amp;#34;arial&amp;#34; , &amp;#34;pingfang sc&amp;#34; , &amp;#34;microsoft yahei&amp;#34; ; background-color: rgb(229 , 255 , 243)&quot;&gt;支付域-设置代扣协议&amp;amp;密码验证签名&lt;/span&gt;&lt;span style=&quot;color: rgb(51 , 51 , 51) ; font-family: &amp;#34;roboto&amp;#34; , &amp;#34;helvetica neue&amp;#34; , &amp;#34;helvetica&amp;#34; , &amp;#34;tahoma&amp;#34; , &amp;#34;arial&amp;#34; , &amp;#34;pingfang sc&amp;#34; , &amp;#34;microsoft yahei&amp;#34; ; background-color: rgb(229 , 255 , 243)&quot;&gt;&lt;br&gt;&lt;/span&gt;" style="shape=process;whiteSpace=wrap;html=1;backgroundOutline=1;fillColor=#9AC7BF;" vertex="1" parent="1">
          <mxGeometry x="410" y="3730" width="370" height="30" as="geometry" />
        </mxCell>
        <mxCell id="MGFOoLs1k42dDcDTjNo5-99" value="设置代扣协议、密码验证签名" style="text;html=1;strokeColor=none;fillColor=none;align=center;verticalAlign=middle;whiteSpace=wrap;rounded=0;" vertex="1" parent="1">
          <mxGeometry x="65" y="3644" width="65" height="30" as="geometry" />
        </mxCell>
        <mxCell id="MGFOoLs1k42dDcDTjNo5-101" style="edgeStyle=orthogonalEdgeStyle;rounded=0;orthogonalLoop=1;jettySize=auto;html=1;exitX=0.5;exitY=1;exitDx=0;exitDy=0;entryX=0;entryY=0.5;entryDx=0;entryDy=0;" edge="1" parent="1" source="MGFOoLs1k42dDcDTjNo5-102" target="MGFOoLs1k42dDcDTjNo5-105">
          <mxGeometry relative="1" as="geometry" />
        </mxCell>
        <mxCell id="MGFOoLs1k42dDcDTjNo5-114" style="edgeStyle=orthogonalEdgeStyle;rounded=0;orthogonalLoop=1;jettySize=auto;html=1;exitX=0.5;exitY=1;exitDx=0;exitDy=0;entryX=0.5;entryY=0;entryDx=0;entryDy=0;" edge="1" parent="1" source="MGFOoLs1k42dDcDTjNo5-102" target="MGFOoLs1k42dDcDTjNo5-109">
          <mxGeometry relative="1" as="geometry" />
        </mxCell>
        <mxCell id="MGFOoLs1k42dDcDTjNo5-102" value="" style="rounded=0;whiteSpace=wrap;html=1;" vertex="1" parent="1">
          <mxGeometry x="150" y="3770" width="190" height="80" as="geometry" />
        </mxCell>
        <mxCell id="MGFOoLs1k42dDcDTjNo5-103" value="FzPromotionActivity.subsidyPromotionCal" style="text;html=1;strokeColor=none;fillColor=none;align=center;verticalAlign=middle;whiteSpace=wrap;rounded=0;" vertex="1" parent="1">
          <mxGeometry x="172.5" y="3774" width="145" height="30" as="geometry" />
        </mxCell>
        <mxCell id="MGFOoLs1k42dDcDTjNo5-104" value="subsidyPromotion" style="rounded=0;whiteSpace=wrap;html=1;fillColor=#FFF2CC;" vertex="1" parent="1">
          <mxGeometry x="160" y="3810" width="170" height="30" as="geometry" />
        </mxCell>
        <mxCell id="MGFOoLs1k42dDcDTjNo5-105" value="&lt;span style=&quot;color: rgb(51 , 51 , 51) ; font-family: &amp;#34;roboto&amp;#34; , &amp;#34;helvetica neue&amp;#34; , &amp;#34;helvetica&amp;#34; , &amp;#34;tahoma&amp;#34; , &amp;#34;arial&amp;#34; , &amp;#34;pingfang sc&amp;#34; , &amp;#34;microsoft yahei&amp;#34; ; background-color: rgb(229 , 255 , 243)&quot;&gt;1.百亿补贴金额处理器过滤，无补贴&lt;br&gt;&lt;/span&gt;&lt;span style=&quot;color: rgb(51 , 51 , 51) ; font-family: &amp;#34;roboto&amp;#34; , &amp;#34;helvetica neue&amp;#34; , &amp;#34;helvetica&amp;#34; , &amp;#34;tahoma&amp;#34; , &amp;#34;arial&amp;#34; , &amp;#34;pingfang sc&amp;#34; , &amp;#34;microsoft yahei&amp;#34; ; background-color: rgb(229 , 255 , 243)&quot;&gt;2.优惠域-计算百亿补贴优惠&lt;/span&gt;&lt;span style=&quot;color: rgb(51 , 51 , 51) ; font-family: &amp;#34;roboto&amp;#34; , &amp;#34;helvetica neue&amp;#34; , &amp;#34;helvetica&amp;#34; , &amp;#34;tahoma&amp;#34; , &amp;#34;arial&amp;#34; , &amp;#34;pingfang sc&amp;#34; , &amp;#34;microsoft yahei&amp;#34; ; background-color: rgb(229 , 255 , 243)&quot;&gt;&lt;br&gt;&lt;/span&gt;" style="shape=process;whiteSpace=wrap;html=1;backgroundOutline=1;fillColor=#9AC7BF;" vertex="1" parent="1">
          <mxGeometry x="410" y="3860" width="370" height="30" as="geometry" />
        </mxCell>
        <mxCell id="MGFOoLs1k42dDcDTjNo5-106" value="百亿补贴优惠计算" style="text;html=1;strokeColor=none;fillColor=none;align=center;verticalAlign=middle;whiteSpace=wrap;rounded=0;" vertex="1" parent="1">
          <mxGeometry x="65" y="3774" width="65" height="30" as="geometry" />
        </mxCell>
        <mxCell id="MGFOoLs1k42dDcDTjNo5-108" style="edgeStyle=orthogonalEdgeStyle;rounded=0;orthogonalLoop=1;jettySize=auto;html=1;exitX=0.5;exitY=1;exitDx=0;exitDy=0;entryX=0;entryY=0.5;entryDx=0;entryDy=0;" edge="1" parent="1" source="MGFOoLs1k42dDcDTjNo5-109" target="MGFOoLs1k42dDcDTjNo5-112">
          <mxGeometry relative="1" as="geometry" />
        </mxCell>
        <mxCell id="MGFOoLs1k42dDcDTjNo5-137" style="edgeStyle=orthogonalEdgeStyle;rounded=0;orthogonalLoop=1;jettySize=auto;html=1;exitX=0.5;exitY=1;exitDx=0;exitDy=0;" edge="1" parent="1" source="MGFOoLs1k42dDcDTjNo5-109">
          <mxGeometry relative="1" as="geometry">
            <mxPoint x="245" y="4030" as="targetPoint" />
          </mxGeometry>
        </mxCell>
        <mxCell id="MGFOoLs1k42dDcDTjNo5-109" value="" style="rounded=0;whiteSpace=wrap;html=1;" vertex="1" parent="1">
          <mxGeometry x="150" y="3900" width="190" height="80" as="geometry" />
        </mxCell>
        <mxCell id="MGFOoLs1k42dDcDTjNo5-110" value="FzBuyLimitActivity.subsidyPromotionBuyLimit" style="text;html=1;strokeColor=none;fillColor=none;align=center;verticalAlign=middle;whiteSpace=wrap;rounded=0;" vertex="1" parent="1">
          <mxGeometry x="172.5" y="3904" width="145" height="30" as="geometry" />
        </mxCell>
        <mxCell id="MGFOoLs1k42dDcDTjNo5-111" value="subsidyPromotion" style="rounded=0;whiteSpace=wrap;html=1;fillColor=#FFF2CC;" vertex="1" parent="1">
          <mxGeometry x="160" y="3940" width="170" height="30" as="geometry" />
        </mxCell>
        <mxCell id="MGFOoLs1k42dDcDTjNo5-112" value="&lt;span style=&quot;color: rgb(51 , 51 , 51) ; font-family: &amp;#34;roboto&amp;#34; , &amp;#34;helvetica neue&amp;#34; , &amp;#34;helvetica&amp;#34; , &amp;#34;tahoma&amp;#34; , &amp;#34;arial&amp;#34; , &amp;#34;pingfang sc&amp;#34; , &amp;#34;microsoft yahei&amp;#34; ; background-color: rgb(229 , 255 , 243)&quot;&gt;1.&lt;/span&gt;&lt;span style=&quot;color: rgb(51 , 51 , 51) ; font-family: &amp;#34;roboto&amp;#34; , &amp;#34;helvetica neue&amp;#34; , &amp;#34;helvetica&amp;#34; , &amp;#34;tahoma&amp;#34; , &amp;#34;arial&amp;#34; , &amp;#34;pingfang sc&amp;#34; , &amp;#34;microsoft yahei&amp;#34; ; background-color: rgb(229 , 255 , 243)&quot;&gt;优惠域-百亿补贴优惠限购&lt;/span&gt;&lt;span style=&quot;color: rgb(51 , 51 , 51) ; font-family: &amp;#34;roboto&amp;#34; , &amp;#34;helvetica neue&amp;#34; , &amp;#34;helvetica&amp;#34; , &amp;#34;tahoma&amp;#34; , &amp;#34;arial&amp;#34; , &amp;#34;pingfang sc&amp;#34; , &amp;#34;microsoft yahei&amp;#34; ; background-color: rgb(229 , 255 , 243)&quot;&gt;&lt;br&gt;&lt;/span&gt;" style="shape=process;whiteSpace=wrap;html=1;backgroundOutline=1;fillColor=#9AC7BF;" vertex="1" parent="1">
          <mxGeometry x="410" y="3990" width="370" height="30" as="geometry" />
        </mxCell>
        <mxCell id="MGFOoLs1k42dDcDTjNo5-113" value="百亿补贴优惠限购" style="text;html=1;strokeColor=none;fillColor=none;align=center;verticalAlign=middle;whiteSpace=wrap;rounded=0;" vertex="1" parent="1">
          <mxGeometry x="65" y="3904" width="65" height="30" as="geometry" />
        </mxCell>
        <mxCell id="MGFOoLs1k42dDcDTjNo5-115" style="edgeStyle=orthogonalEdgeStyle;rounded=0;orthogonalLoop=1;jettySize=auto;html=1;exitX=0.5;exitY=1;exitDx=0;exitDy=0;entryX=0;entryY=0.5;entryDx=0;entryDy=0;" edge="1" parent="1" source="MGFOoLs1k42dDcDTjNo5-116" target="MGFOoLs1k42dDcDTjNo5-119">
          <mxGeometry relative="1" as="geometry" />
        </mxCell>
        <mxCell id="MGFOoLs1k42dDcDTjNo5-135" style="edgeStyle=orthogonalEdgeStyle;rounded=0;orthogonalLoop=1;jettySize=auto;html=1;exitX=0.5;exitY=1;exitDx=0;exitDy=0;entryX=0.5;entryY=0;entryDx=0;entryDy=0;" edge="1" parent="1" source="MGFOoLs1k42dDcDTjNo5-116" target="MGFOoLs1k42dDcDTjNo5-130">
          <mxGeometry relative="1" as="geometry" />
        </mxCell>
        <mxCell id="MGFOoLs1k42dDcDTjNo5-116" value="" style="rounded=0;whiteSpace=wrap;html=1;" vertex="1" parent="1">
          <mxGeometry x="150" y="4032" width="190" height="80" as="geometry" />
        </mxCell>
        <mxCell id="MGFOoLs1k42dDcDTjNo5-117" value="FzFeizhuFirstOrderPromotionActivity.queryFeizhuFirstOrderPromotionInfo" style="text;html=1;strokeColor=none;fillColor=none;align=center;verticalAlign=middle;whiteSpace=wrap;rounded=0;" vertex="1" parent="1">
          <mxGeometry x="172.5" y="4036" width="145" height="30" as="geometry" />
        </mxCell>
        <mxCell id="MGFOoLs1k42dDcDTjNo5-118" value="feizhuFirstOrderPromotion" style="rounded=0;whiteSpace=wrap;html=1;fillColor=#FFF2CC;" vertex="1" parent="1">
          <mxGeometry x="160" y="4072" width="170" height="30" as="geometry" />
        </mxCell>
        <mxCell id="MGFOoLs1k42dDcDTjNo5-119" value="&lt;span style=&quot;color: rgb(51 , 51 , 51) ; font-family: &amp;#34;roboto&amp;#34; , &amp;#34;helvetica neue&amp;#34; , &amp;#34;helvetica&amp;#34; , &amp;#34;tahoma&amp;#34; , &amp;#34;arial&amp;#34; , &amp;#34;pingfang sc&amp;#34; , &amp;#34;microsoft yahei&amp;#34; ; background-color: rgb(229 , 255 , 243)&quot;&gt;1.&lt;/span&gt;&lt;span style=&quot;color: rgb(51 , 51 , 51) ; font-family: &amp;#34;roboto&amp;#34; , &amp;#34;helvetica neue&amp;#34; , &amp;#34;helvetica&amp;#34; , &amp;#34;tahoma&amp;#34; , &amp;#34;arial&amp;#34; , &amp;#34;pingfang sc&amp;#34; , &amp;#34;microsoft yahei&amp;#34; ; background-color: rgb(250 , 250 , 250)&quot;&gt;当前酒店不是菲住联盟酒店&lt;br&gt;&lt;/span&gt;&lt;span style=&quot;color: rgb(51 , 51 , 51) ; font-family: &amp;#34;roboto&amp;#34; , &amp;#34;helvetica neue&amp;#34; , &amp;#34;helvetica&amp;#34; , &amp;#34;tahoma&amp;#34; , &amp;#34;arial&amp;#34; , &amp;#34;pingfang sc&amp;#34; , &amp;#34;microsoft yahei&amp;#34; ; background-color: rgb(229 , 255 , 243)&quot;&gt;2.&lt;/span&gt;&lt;span style=&quot;color: rgb(51 , 51 , 51) ; font-family: &amp;#34;roboto&amp;#34; , &amp;#34;helvetica neue&amp;#34; , &amp;#34;helvetica&amp;#34; , &amp;#34;tahoma&amp;#34; , &amp;#34;arial&amp;#34; , &amp;#34;pingfang sc&amp;#34; , &amp;#34;microsoft yahei&amp;#34; ; background-color: rgb(229 , 255 , 243)&quot;&gt;FzFeizhuFirstOrderPromotionActivity执行&lt;/span&gt;&lt;span style=&quot;color: rgb(51 , 51 , 51) ; font-family: &amp;#34;roboto&amp;#34; , &amp;#34;helvetica neue&amp;#34; , &amp;#34;helvetica&amp;#34; , &amp;#34;tahoma&amp;#34; , &amp;#34;arial&amp;#34; , &amp;#34;pingfang sc&amp;#34; , &amp;#34;microsoft yahei&amp;#34; ; background-color: rgb(229 , 255 , 243)&quot;&gt;&lt;br&gt;&lt;/span&gt;" style="shape=process;whiteSpace=wrap;html=1;backgroundOutline=1;fillColor=#9AC7BF;" vertex="1" parent="1">
          <mxGeometry x="410" y="4122" width="370" height="30" as="geometry" />
        </mxCell>
        <mxCell id="MGFOoLs1k42dDcDTjNo5-120" value="菲猪首单优惠" style="text;html=1;strokeColor=none;fillColor=none;align=center;verticalAlign=middle;whiteSpace=wrap;rounded=0;" vertex="1" parent="1">
          <mxGeometry x="65" y="4036" width="65" height="30" as="geometry" />
        </mxCell>
        <mxCell id="MGFOoLs1k42dDcDTjNo5-204" style="edgeStyle=orthogonalEdgeStyle;rounded=0;orthogonalLoop=1;jettySize=auto;html=1;exitX=0.5;exitY=1;exitDx=0;exitDy=0;entryX=0;entryY=0.5;entryDx=0;entryDy=0;" edge="1" parent="1" source="MGFOoLs1k42dDcDTjNo5-130" target="MGFOoLs1k42dDcDTjNo5-203">
          <mxGeometry relative="1" as="geometry" />
        </mxCell>
        <mxCell id="MGFOoLs1k42dDcDTjNo5-208" style="edgeStyle=orthogonalEdgeStyle;rounded=0;orthogonalLoop=1;jettySize=auto;html=1;exitX=0.5;exitY=1;exitDx=0;exitDy=0;entryX=0.5;entryY=0;entryDx=0;entryDy=0;" edge="1" parent="1" source="MGFOoLs1k42dDcDTjNo5-130" target="MGFOoLs1k42dDcDTjNo5-205">
          <mxGeometry relative="1" as="geometry" />
        </mxCell>
        <mxCell id="MGFOoLs1k42dDcDTjNo5-130" value="" style="rounded=0;whiteSpace=wrap;html=1;" vertex="1" parent="1">
          <mxGeometry x="150" y="4160" width="190" height="80" as="geometry" />
        </mxCell>
        <mxCell id="MGFOoLs1k42dDcDTjNo5-131" value="FzBuyRuleInitActivity.initRule" style="text;html=1;strokeColor=none;fillColor=none;align=center;verticalAlign=middle;whiteSpace=wrap;rounded=0;" vertex="1" parent="1">
          <mxGeometry x="172.5" y="4164" width="145" height="30" as="geometry" />
        </mxCell>
        <mxCell id="MGFOoLs1k42dDcDTjNo5-139" style="edgeStyle=orthogonalEdgeStyle;rounded=0;orthogonalLoop=1;jettySize=auto;html=1;exitX=0;exitY=0.5;exitDx=0;exitDy=0;" edge="1" parent="1" source="MGFOoLs1k42dDcDTjNo5-132" target="MGFOoLs1k42dDcDTjNo5-138">
          <mxGeometry relative="1" as="geometry" />
        </mxCell>
        <mxCell id="MGFOoLs1k42dDcDTjNo5-132" value="initRule" style="rounded=0;whiteSpace=wrap;html=1;fillColor=#FFF2CC;" vertex="1" parent="1">
          <mxGeometry x="160" y="4200" width="170" height="30" as="geometry" />
        </mxCell>
        <mxCell id="MGFOoLs1k42dDcDTjNo5-134" value="订单规则初始化" style="text;html=1;strokeColor=none;fillColor=none;align=center;verticalAlign=middle;whiteSpace=wrap;rounded=0;" vertex="1" parent="1">
          <mxGeometry x="65" y="4164" width="65" height="30" as="geometry" />
        </mxCell>
        <mxCell id="MGFOoLs1k42dDcDTjNo5-146" style="edgeStyle=orthogonalEdgeStyle;rounded=0;orthogonalLoop=1;jettySize=auto;html=1;exitX=0.5;exitY=1;exitDx=0;exitDy=0;" edge="1" parent="1" source="MGFOoLs1k42dDcDTjNo5-138" target="MGFOoLs1k42dDcDTjNo5-140">
          <mxGeometry relative="1" as="geometry" />
        </mxCell>
        <mxCell id="MGFOoLs1k42dDcDTjNo5-138" value="hotelOrderInitEnrichHandlerChain.handlerEnrichChain" style="rounded=0;whiteSpace=wrap;html=1;fillColor=#FFF2CC;" vertex="1" parent="1">
          <mxGeometry x="-230" y="4200" width="312.5" height="30" as="geometry" />
        </mxCell>
        <mxCell id="MGFOoLs1k42dDcDTjNo5-140" value="" style="rounded=0;whiteSpace=wrap;html=1;" vertex="1" parent="1">
          <mxGeometry x="-216.25" y="4290" width="428.75" height="440" as="geometry" />
        </mxCell>
        <mxCell id="MGFOoLs1k42dDcDTjNo5-144" style="edgeStyle=orthogonalEdgeStyle;rounded=0;orthogonalLoop=1;jettySize=auto;html=1;exitX=0;exitY=0.5;exitDx=0;exitDy=0;entryX=1;entryY=0.5;entryDx=0;entryDy=0;" edge="1" parent="1" source="MGFOoLs1k42dDcDTjNo5-141" target="MGFOoLs1k42dDcDTjNo5-143">
          <mxGeometry relative="1" as="geometry" />
        </mxCell>
        <mxCell id="MGFOoLs1k42dDcDTjNo5-150" style="edgeStyle=orthogonalEdgeStyle;rounded=0;orthogonalLoop=1;jettySize=auto;html=1;exitX=0.5;exitY=1;exitDx=0;exitDy=0;entryX=0.5;entryY=0;entryDx=0;entryDy=0;" edge="1" parent="1" source="MGFOoLs1k42dDcDTjNo5-141" target="MGFOoLs1k42dDcDTjNo5-145">
          <mxGeometry relative="1" as="geometry" />
        </mxCell>
        <mxCell id="MGFOoLs1k42dDcDTjNo5-141" value="ItemSplitInitEnrich4Prepay" style="rounded=0;whiteSpace=wrap;html=1;fillColor=#FFF2CC;" vertex="1" parent="1">
          <mxGeometry x="-196.25" y="4320" width="170" height="30" as="geometry" />
        </mxCell>
        <mxCell id="MGFOoLs1k42dDcDTjNo5-142" value="enrich4OrderInit-enrich" style="text;html=1;strokeColor=none;fillColor=none;align=center;verticalAlign=middle;whiteSpace=wrap;rounded=0;" vertex="1" parent="1">
          <mxGeometry x="-141.5" y="4290" width="60" height="30" as="geometry" />
        </mxCell>
        <mxCell id="MGFOoLs1k42dDcDTjNo5-143" value="&lt;span style=&quot;color: rgb(51 , 51 , 51) ; font-family: &amp;#34;roboto&amp;#34; , &amp;#34;helvetica neue&amp;#34; , &amp;#34;helvetica&amp;#34; , &amp;#34;tahoma&amp;#34; , &amp;#34;arial&amp;#34; , &amp;#34;pingfang sc&amp;#34; , &amp;#34;microsoft yahei&amp;#34; ; background-color: rgb(229 , 255 , 243)&quot;&gt;1.&lt;/span&gt;&lt;span style=&quot;color: rgb(51 , 51 , 51) ; font-family: &amp;#34;roboto&amp;#34; , &amp;#34;helvetica neue&amp;#34; , &amp;#34;helvetica&amp;#34; , &amp;#34;tahoma&amp;#34; , &amp;#34;arial&amp;#34; , &amp;#34;pingfang sc&amp;#34; , &amp;#34;microsoft yahei&amp;#34; ; background-color: rgb(229 , 255 , 243)&quot;&gt;ItemSplitInitEnrich4Prepay执行&lt;/span&gt;&lt;span style=&quot;color: rgb(51 , 51 , 51) ; font-family: &amp;#34;roboto&amp;#34; , &amp;#34;helvetica neue&amp;#34; , &amp;#34;helvetica&amp;#34; , &amp;#34;tahoma&amp;#34; , &amp;#34;arial&amp;#34; , &amp;#34;pingfang sc&amp;#34; , &amp;#34;microsoft yahei&amp;#34; ; background-color: rgb(229 , 255 , 243)&quot;&gt;&lt;br&gt;&lt;/span&gt;" style="shape=process;whiteSpace=wrap;html=1;backgroundOutline=1;fillColor=#9AC7BF;" vertex="1" parent="1">
          <mxGeometry x="-607.5" y="4320" width="370" height="30" as="geometry" />
        </mxCell>
        <mxCell id="MGFOoLs1k42dDcDTjNo5-151" style="edgeStyle=orthogonalEdgeStyle;rounded=0;orthogonalLoop=1;jettySize=auto;html=1;exitX=0.5;exitY=1;exitDx=0;exitDy=0;entryX=0.5;entryY=0;entryDx=0;entryDy=0;" edge="1" parent="1" source="MGFOoLs1k42dDcDTjNo5-145" target="MGFOoLs1k42dDcDTjNo5-147">
          <mxGeometry relative="1" as="geometry" />
        </mxCell>
        <mxCell id="MGFOoLs1k42dDcDTjNo5-145" value="HotelGroupSnapshotEnrich" style="rounded=0;whiteSpace=wrap;html=1;fillColor=#FFF2CC;" vertex="1" parent="1">
          <mxGeometry x="-196.25" y="4370" width="170" height="30" as="geometry" />
        </mxCell>
        <mxCell id="MGFOoLs1k42dDcDTjNo5-149" style="edgeStyle=orthogonalEdgeStyle;rounded=0;orthogonalLoop=1;jettySize=auto;html=1;exitX=0;exitY=0.5;exitDx=0;exitDy=0;entryX=1;entryY=0.5;entryDx=0;entryDy=0;" edge="1" parent="1" source="MGFOoLs1k42dDcDTjNo5-147" target="MGFOoLs1k42dDcDTjNo5-148">
          <mxGeometry relative="1" as="geometry" />
        </mxCell>
        <mxCell id="MGFOoLs1k42dDcDTjNo5-153" style="edgeStyle=orthogonalEdgeStyle;rounded=0;orthogonalLoop=1;jettySize=auto;html=1;exitX=0.5;exitY=1;exitDx=0;exitDy=0;entryX=0.5;entryY=0;entryDx=0;entryDy=0;" edge="1" parent="1" source="MGFOoLs1k42dDcDTjNo5-147" target="MGFOoLs1k42dDcDTjNo5-152">
          <mxGeometry relative="1" as="geometry" />
        </mxCell>
        <mxCell id="MGFOoLs1k42dDcDTjNo5-147" value="AvailRoomNumEnrich4Repay" style="rounded=0;whiteSpace=wrap;html=1;fillColor=#FFF2CC;" vertex="1" parent="1">
          <mxGeometry x="-196.25" y="4420" width="170" height="30" as="geometry" />
        </mxCell>
        <mxCell id="MGFOoLs1k42dDcDTjNo5-148" value="&lt;span style=&quot;color: rgb(51 , 51 , 51) ; font-family: &amp;#34;roboto&amp;#34; , &amp;#34;helvetica neue&amp;#34; , &amp;#34;helvetica&amp;#34; , &amp;#34;tahoma&amp;#34; , &amp;#34;arial&amp;#34; , &amp;#34;pingfang sc&amp;#34; , &amp;#34;microsoft yahei&amp;#34; ; background-color: rgb(229 , 255 , 243)&quot;&gt;1.&lt;/span&gt;&lt;span style=&quot;color: rgb(51 , 51 , 51) ; font-family: &amp;#34;roboto&amp;#34; , &amp;#34;helvetica neue&amp;#34; , &amp;#34;helvetica&amp;#34; , &amp;#34;tahoma&amp;#34; , &amp;#34;arial&amp;#34; , &amp;#34;pingfang sc&amp;#34; , &amp;#34;microsoft yahei&amp;#34; ; background-color: rgb(229 , 255 , 243)&quot;&gt;AbstractAvailRoomNumEnrich执行&lt;/span&gt;&lt;span style=&quot;color: rgb(51 , 51 , 51) ; font-family: &amp;#34;roboto&amp;#34; , &amp;#34;helvetica neue&amp;#34; , &amp;#34;helvetica&amp;#34; , &amp;#34;tahoma&amp;#34; , &amp;#34;arial&amp;#34; , &amp;#34;pingfang sc&amp;#34; , &amp;#34;microsoft yahei&amp;#34; ; background-color: rgb(229 , 255 , 243)&quot;&gt;&lt;br&gt;&lt;/span&gt;" style="shape=process;whiteSpace=wrap;html=1;backgroundOutline=1;fillColor=#9AC7BF;" vertex="1" parent="1">
          <mxGeometry x="-607.5" y="4420" width="370" height="30" as="geometry" />
        </mxCell>
        <mxCell id="MGFOoLs1k42dDcDTjNo5-155" style="edgeStyle=orthogonalEdgeStyle;rounded=0;orthogonalLoop=1;jettySize=auto;html=1;exitX=0.5;exitY=1;exitDx=0;exitDy=0;entryX=0.5;entryY=0;entryDx=0;entryDy=0;" edge="1" parent="1" source="MGFOoLs1k42dDcDTjNo5-152" target="MGFOoLs1k42dDcDTjNo5-154">
          <mxGeometry relative="1" as="geometry" />
        </mxCell>
        <mxCell id="MGFOoLs1k42dDcDTjNo5-157" style="edgeStyle=orthogonalEdgeStyle;rounded=0;orthogonalLoop=1;jettySize=auto;html=1;exitX=0;exitY=0.5;exitDx=0;exitDy=0;" edge="1" parent="1" source="MGFOoLs1k42dDcDTjNo5-152" target="MGFOoLs1k42dDcDTjNo5-156">
          <mxGeometry relative="1" as="geometry" />
        </mxCell>
        <mxCell id="MGFOoLs1k42dDcDTjNo5-152" value="MorningBuyEnrich" style="rounded=0;whiteSpace=wrap;html=1;fillColor=#FFF2CC;" vertex="1" parent="1">
          <mxGeometry x="-196.25" y="4470" width="170" height="30" as="geometry" />
        </mxCell>
        <mxCell id="MGFOoLs1k42dDcDTjNo5-159" style="edgeStyle=orthogonalEdgeStyle;rounded=0;orthogonalLoop=1;jettySize=auto;html=1;exitX=0;exitY=0.5;exitDx=0;exitDy=0;entryX=1;entryY=0.5;entryDx=0;entryDy=0;" edge="1" parent="1" source="MGFOoLs1k42dDcDTjNo5-154" target="MGFOoLs1k42dDcDTjNo5-158">
          <mxGeometry relative="1" as="geometry" />
        </mxCell>
        <mxCell id="MGFOoLs1k42dDcDTjNo5-162" style="edgeStyle=orthogonalEdgeStyle;rounded=0;orthogonalLoop=1;jettySize=auto;html=1;exitX=0.5;exitY=1;exitDx=0;exitDy=0;entryX=0.5;entryY=0;entryDx=0;entryDy=0;" edge="1" parent="1" source="MGFOoLs1k42dDcDTjNo5-154" target="MGFOoLs1k42dDcDTjNo5-161">
          <mxGeometry relative="1" as="geometry" />
        </mxCell>
        <mxCell id="MGFOoLs1k42dDcDTjNo5-154" value="SellerCustomizeEnrich" style="rounded=0;whiteSpace=wrap;html=1;fillColor=#FFF2CC;" vertex="1" parent="1">
          <mxGeometry x="-196.25" y="4520" width="170" height="30" as="geometry" />
        </mxCell>
        <mxCell id="MGFOoLs1k42dDcDTjNo5-156" value="&lt;span style=&quot;color: rgb(51 , 51 , 51) ; font-family: &amp;#34;roboto&amp;#34; , &amp;#34;helvetica neue&amp;#34; , &amp;#34;helvetica&amp;#34; , &amp;#34;tahoma&amp;#34; , &amp;#34;arial&amp;#34; , &amp;#34;pingfang sc&amp;#34; , &amp;#34;microsoft yahei&amp;#34; ; background-color: rgb(229 , 255 , 243)&quot;&gt;1.&lt;/span&gt;&lt;span style=&quot;color: rgb(51 , 51 , 51) ; font-family: &amp;#34;roboto&amp;#34; , &amp;#34;helvetica neue&amp;#34; , &amp;#34;helvetica&amp;#34; , &amp;#34;tahoma&amp;#34; , &amp;#34;arial&amp;#34; , &amp;#34;pingfang sc&amp;#34; , &amp;#34;microsoft yahei&amp;#34; ; background-color: rgb(229 , 255 , 243)&quot;&gt;到店规则-凌晨预定&lt;/span&gt;&lt;span style=&quot;color: rgb(51 , 51 , 51) ; font-family: &amp;#34;roboto&amp;#34; , &amp;#34;helvetica neue&amp;#34; , &amp;#34;helvetica&amp;#34; , &amp;#34;tahoma&amp;#34; , &amp;#34;arial&amp;#34; , &amp;#34;pingfang sc&amp;#34; , &amp;#34;microsoft yahei&amp;#34; ; background-color: rgb(229 , 255 , 243)&quot;&gt;&lt;br&gt;&lt;/span&gt;" style="shape=process;whiteSpace=wrap;html=1;backgroundOutline=1;fillColor=#9AC7BF;" vertex="1" parent="1">
          <mxGeometry x="-607.5" y="4470" width="370" height="30" as="geometry" />
        </mxCell>
        <mxCell id="MGFOoLs1k42dDcDTjNo5-158" value="&lt;span style=&quot;color: rgb(51 , 51 , 51) ; font-family: &amp;#34;roboto&amp;#34; , &amp;#34;helvetica neue&amp;#34; , &amp;#34;helvetica&amp;#34; , &amp;#34;tahoma&amp;#34; , &amp;#34;arial&amp;#34; , &amp;#34;pingfang sc&amp;#34; , &amp;#34;microsoft yahei&amp;#34; ; background-color: rgb(229 , 255 , 243)&quot;&gt;1.&lt;/span&gt;&lt;span style=&quot;color: rgb(51 , 51 , 51) ; font-family: &amp;#34;roboto&amp;#34; , &amp;#34;helvetica neue&amp;#34; , &amp;#34;helvetica&amp;#34; , &amp;#34;tahoma&amp;#34; , &amp;#34;arial&amp;#34; , &amp;#34;pingfang sc&amp;#34; , &amp;#34;microsoft yahei&amp;#34; ; background-color: rgb(229 , 255 , 243)&quot;&gt;卖家定制化处理&lt;/span&gt;&lt;span style=&quot;color: rgb(51 , 51 , 51) ; font-family: &amp;#34;roboto&amp;#34; , &amp;#34;helvetica neue&amp;#34; , &amp;#34;helvetica&amp;#34; , &amp;#34;tahoma&amp;#34; , &amp;#34;arial&amp;#34; , &amp;#34;pingfang sc&amp;#34; , &amp;#34;microsoft yahei&amp;#34; ; background-color: rgb(229 , 255 , 243)&quot;&gt;&lt;br&gt;&lt;/span&gt;" style="shape=process;whiteSpace=wrap;html=1;backgroundOutline=1;fillColor=#9AC7BF;" vertex="1" parent="1">
          <mxGeometry x="-607.5" y="4520" width="370" height="30" as="geometry" />
        </mxCell>
        <mxCell id="MGFOoLs1k42dDcDTjNo5-185" style="edgeStyle=orthogonalEdgeStyle;rounded=0;orthogonalLoop=1;jettySize=auto;html=1;exitX=0.5;exitY=1;exitDx=0;exitDy=0;entryX=0.5;entryY=0;entryDx=0;entryDy=0;" edge="1" parent="1" source="MGFOoLs1k42dDcDTjNo5-161" target="MGFOoLs1k42dDcDTjNo5-165">
          <mxGeometry relative="1" as="geometry" />
        </mxCell>
        <mxCell id="MGFOoLs1k42dDcDTjNo5-161" value="CustomizedRoomUnitEnrich4Prepay" style="rounded=0;whiteSpace=wrap;html=1;fillColor=#FFF2CC;" vertex="1" parent="1">
          <mxGeometry x="-198.25" y="4570" width="170" height="30" as="geometry" />
        </mxCell>
        <mxCell id="MGFOoLs1k42dDcDTjNo5-163" value="&lt;span style=&quot;color: rgb(51 , 51 , 51) ; font-family: &amp;#34;roboto&amp;#34; , &amp;#34;helvetica neue&amp;#34; , &amp;#34;helvetica&amp;#34; , &amp;#34;tahoma&amp;#34; , &amp;#34;arial&amp;#34; , &amp;#34;pingfang sc&amp;#34; , &amp;#34;microsoft yahei&amp;#34; ; background-color: rgb(229 , 255 , 243)&quot;&gt;1.&lt;/span&gt;&lt;span style=&quot;color: rgb(51 , 51 , 51) ; font-family: &amp;#34;roboto&amp;#34; , &amp;#34;helvetica neue&amp;#34; , &amp;#34;helvetica&amp;#34; , &amp;#34;tahoma&amp;#34; , &amp;#34;arial&amp;#34; , &amp;#34;pingfang sc&amp;#34; , &amp;#34;microsoft yahei&amp;#34; ; background-color: rgb(229 , 255 , 243)&quot;&gt;房型定制处理器&lt;/span&gt;&lt;span style=&quot;color: rgb(51 , 51 , 51) ; font-family: &amp;#34;roboto&amp;#34; , &amp;#34;helvetica neue&amp;#34; , &amp;#34;helvetica&amp;#34; , &amp;#34;tahoma&amp;#34; , &amp;#34;arial&amp;#34; , &amp;#34;pingfang sc&amp;#34; , &amp;#34;microsoft yahei&amp;#34; ; background-color: rgb(229 , 255 , 243)&quot;&gt;&lt;br&gt;&lt;/span&gt;" style="shape=process;whiteSpace=wrap;html=1;backgroundOutline=1;fillColor=#9AC7BF;" vertex="1" parent="1">
          <mxGeometry x="232.5" y="4370" width="370" height="30" as="geometry" />
        </mxCell>
        <mxCell id="MGFOoLs1k42dDcDTjNo5-186" style="edgeStyle=orthogonalEdgeStyle;rounded=0;orthogonalLoop=1;jettySize=auto;html=1;exitX=0.5;exitY=1;exitDx=0;exitDy=0;entryX=0.5;entryY=0;entryDx=0;entryDy=0;" edge="1" parent="1" source="MGFOoLs1k42dDcDTjNo5-165" target="MGFOoLs1k42dDcDTjNo5-171">
          <mxGeometry relative="1" as="geometry" />
        </mxCell>
        <mxCell id="MGFOoLs1k42dDcDTjNo5-165" value="CircleUserEnrich" style="rounded=0;whiteSpace=wrap;html=1;fillColor=#FFF2CC;" vertex="1" parent="1">
          <mxGeometry x="-198.25" y="4620" width="170" height="30" as="geometry" />
        </mxCell>
        <mxCell id="MGFOoLs1k42dDcDTjNo5-187" style="edgeStyle=orthogonalEdgeStyle;rounded=0;orthogonalLoop=1;jettySize=auto;html=1;exitX=1;exitY=0.5;exitDx=0;exitDy=0;entryX=0;entryY=0.5;entryDx=0;entryDy=0;" edge="1" parent="1" source="MGFOoLs1k42dDcDTjNo5-171" target="MGFOoLs1k42dDcDTjNo5-173">
          <mxGeometry relative="1" as="geometry" />
        </mxCell>
        <mxCell id="MGFOoLs1k42dDcDTjNo5-171" value="BuyRuleEnrich4Prepay" style="rounded=0;whiteSpace=wrap;html=1;fillColor=#FFF2CC;" vertex="1" parent="1">
          <mxGeometry x="-198.25" y="4670" width="170" height="30" as="geometry" />
        </mxCell>
        <mxCell id="MGFOoLs1k42dDcDTjNo5-176" style="edgeStyle=orthogonalEdgeStyle;rounded=0;orthogonalLoop=1;jettySize=auto;html=1;exitX=0.5;exitY=1;exitDx=0;exitDy=0;entryX=0.5;entryY=0;entryDx=0;entryDy=0;" edge="1" parent="1" source="MGFOoLs1k42dDcDTjNo5-173" target="MGFOoLs1k42dDcDTjNo5-174">
          <mxGeometry relative="1" as="geometry" />
        </mxCell>
        <mxCell id="MGFOoLs1k42dDcDTjNo5-173" value="OccupancyRuleEnrich4Prepay" style="rounded=0;whiteSpace=wrap;html=1;fillColor=#FFF2CC;" vertex="1" parent="1">
          <mxGeometry x="22.5" y="4320" width="170" height="30" as="geometry" />
        </mxCell>
        <mxCell id="MGFOoLs1k42dDcDTjNo5-177" style="edgeStyle=orthogonalEdgeStyle;rounded=0;orthogonalLoop=1;jettySize=auto;html=1;exitX=1;exitY=0.5;exitDx=0;exitDy=0;entryX=0;entryY=0.5;entryDx=0;entryDy=0;" edge="1" parent="1" source="MGFOoLs1k42dDcDTjNo5-174" target="MGFOoLs1k42dDcDTjNo5-163">
          <mxGeometry relative="1" as="geometry" />
        </mxCell>
        <mxCell id="MGFOoLs1k42dDcDTjNo5-181" style="edgeStyle=orthogonalEdgeStyle;rounded=0;orthogonalLoop=1;jettySize=auto;html=1;exitX=0.5;exitY=1;exitDx=0;exitDy=0;entryX=0.5;entryY=0;entryDx=0;entryDy=0;" edge="1" parent="1" source="MGFOoLs1k42dDcDTjNo5-174" target="MGFOoLs1k42dDcDTjNo5-178">
          <mxGeometry relative="1" as="geometry" />
        </mxCell>
        <mxCell id="MGFOoLs1k42dDcDTjNo5-174" value="RoomTypeCustomizedEnrich" style="rounded=0;whiteSpace=wrap;html=1;fillColor=#FFF2CC;" vertex="1" parent="1">
          <mxGeometry x="22.5" y="4370" width="170" height="30" as="geometry" />
        </mxCell>
        <mxCell id="MGFOoLs1k42dDcDTjNo5-182" style="edgeStyle=orthogonalEdgeStyle;rounded=0;orthogonalLoop=1;jettySize=auto;html=1;exitX=0.5;exitY=1;exitDx=0;exitDy=0;entryX=0.5;entryY=0;entryDx=0;entryDy=0;" edge="1" parent="1" source="MGFOoLs1k42dDcDTjNo5-178" target="MGFOoLs1k42dDcDTjNo5-180">
          <mxGeometry relative="1" as="geometry" />
        </mxCell>
        <mxCell id="MGFOoLs1k42dDcDTjNo5-178" value="RoomTypeCustomizedEnrich" style="rounded=0;whiteSpace=wrap;html=1;fillColor=#FFF2CC;" vertex="1" parent="1">
          <mxGeometry x="22.5" y="4420" width="170" height="30" as="geometry" />
        </mxCell>
        <mxCell id="MGFOoLs1k42dDcDTjNo5-184" style="edgeStyle=orthogonalEdgeStyle;rounded=0;orthogonalLoop=1;jettySize=auto;html=1;exitX=1;exitY=0.5;exitDx=0;exitDy=0;entryX=0;entryY=0.5;entryDx=0;entryDy=0;" edge="1" parent="1" source="MGFOoLs1k42dDcDTjNo5-180" target="MGFOoLs1k42dDcDTjNo5-183">
          <mxGeometry relative="1" as="geometry" />
        </mxCell>
        <mxCell id="MGFOoLs1k42dDcDTjNo5-189" style="edgeStyle=orthogonalEdgeStyle;rounded=0;orthogonalLoop=1;jettySize=auto;html=1;exitX=0.5;exitY=1;exitDx=0;exitDy=0;entryX=0.5;entryY=0;entryDx=0;entryDy=0;" edge="1" parent="1" source="MGFOoLs1k42dDcDTjNo5-180" target="MGFOoLs1k42dDcDTjNo5-188">
          <mxGeometry relative="1" as="geometry" />
        </mxCell>
        <mxCell id="MGFOoLs1k42dDcDTjNo5-180" value="InvoiceEnrich" style="rounded=0;whiteSpace=wrap;html=1;fillColor=#FFF2CC;" vertex="1" parent="1">
          <mxGeometry x="22.5" y="4470" width="170" height="30" as="geometry" />
        </mxCell>
        <mxCell id="MGFOoLs1k42dDcDTjNo5-183" value="&lt;span style=&quot;color: rgb(51 , 51 , 51) ; font-family: &amp;#34;roboto&amp;#34; , &amp;#34;helvetica neue&amp;#34; , &amp;#34;helvetica&amp;#34; , &amp;#34;tahoma&amp;#34; , &amp;#34;arial&amp;#34; , &amp;#34;pingfang sc&amp;#34; , &amp;#34;microsoft yahei&amp;#34; ; background-color: rgb(229 , 255 , 243)&quot;&gt;1.发票规则&lt;/span&gt;&lt;span style=&quot;color: rgb(51 , 51 , 51) ; font-family: &amp;#34;roboto&amp;#34; , &amp;#34;helvetica neue&amp;#34; , &amp;#34;helvetica&amp;#34; , &amp;#34;tahoma&amp;#34; , &amp;#34;arial&amp;#34; , &amp;#34;pingfang sc&amp;#34; , &amp;#34;microsoft yahei&amp;#34; ; background-color: rgb(229 , 255 , 243)&quot;&gt;&lt;br&gt;&lt;/span&gt;" style="shape=process;whiteSpace=wrap;html=1;backgroundOutline=1;fillColor=#9AC7BF;" vertex="1" parent="1">
          <mxGeometry x="232.5" y="4470" width="370" height="30" as="geometry" />
        </mxCell>
        <mxCell id="MGFOoLs1k42dDcDTjNo5-191" style="edgeStyle=orthogonalEdgeStyle;rounded=0;orthogonalLoop=1;jettySize=auto;html=1;exitX=1;exitY=0.5;exitDx=0;exitDy=0;entryX=0;entryY=0.5;entryDx=0;entryDy=0;" edge="1" parent="1" source="MGFOoLs1k42dDcDTjNo5-188" target="MGFOoLs1k42dDcDTjNo5-190">
          <mxGeometry relative="1" as="geometry" />
        </mxCell>
        <mxCell id="MGFOoLs1k42dDcDTjNo5-193" style="edgeStyle=orthogonalEdgeStyle;rounded=0;orthogonalLoop=1;jettySize=auto;html=1;exitX=0.5;exitY=1;exitDx=0;exitDy=0;entryX=0.5;entryY=0;entryDx=0;entryDy=0;" edge="1" parent="1" source="MGFOoLs1k42dDcDTjNo5-188" target="MGFOoLs1k42dDcDTjNo5-192">
          <mxGeometry relative="1" as="geometry" />
        </mxCell>
        <mxCell id="MGFOoLs1k42dDcDTjNo5-188" value="GuaranteeEnrich4Prepay" style="rounded=0;whiteSpace=wrap;html=1;fillColor=#FFF2CC;" vertex="1" parent="1">
          <mxGeometry x="22.5" y="4520" width="170" height="30" as="geometry" />
        </mxCell>
        <mxCell id="MGFOoLs1k42dDcDTjNo5-190" value="&lt;span style=&quot;color: rgb(51 , 51 , 51) ; font-family: &amp;#34;roboto&amp;#34; , &amp;#34;helvetica neue&amp;#34; , &amp;#34;helvetica&amp;#34; , &amp;#34;tahoma&amp;#34; , &amp;#34;arial&amp;#34; , &amp;#34;pingfang sc&amp;#34; , &amp;#34;microsoft yahei&amp;#34; ; background-color: rgb(229 , 255 , 243)&quot;&gt;1.&lt;/span&gt;&lt;span style=&quot;color: rgb(51 , 51 , 51) ; font-family: &amp;#34;roboto&amp;#34; , &amp;#34;helvetica neue&amp;#34; , &amp;#34;helvetica&amp;#34; , &amp;#34;tahoma&amp;#34; , &amp;#34;arial&amp;#34; , &amp;#34;pingfang sc&amp;#34; , &amp;#34;microsoft yahei&amp;#34; ; background-color: rgb(229 , 255 , 243)&quot;&gt;GuaranteeEnrich4Prepay执行&lt;/span&gt;&lt;span style=&quot;color: rgb(51 , 51 , 51) ; font-family: &amp;#34;roboto&amp;#34; , &amp;#34;helvetica neue&amp;#34; , &amp;#34;helvetica&amp;#34; , &amp;#34;tahoma&amp;#34; , &amp;#34;arial&amp;#34; , &amp;#34;pingfang sc&amp;#34; , &amp;#34;microsoft yahei&amp;#34; ; background-color: rgb(229 , 255 , 243)&quot;&gt;&lt;br&gt;&lt;/span&gt;" style="shape=process;whiteSpace=wrap;html=1;backgroundOutline=1;fillColor=#9AC7BF;" vertex="1" parent="1">
          <mxGeometry x="232.5" y="4520" width="370" height="30" as="geometry" />
        </mxCell>
        <mxCell id="MGFOoLs1k42dDcDTjNo5-196" style="edgeStyle=orthogonalEdgeStyle;rounded=0;orthogonalLoop=1;jettySize=auto;html=1;exitX=1;exitY=0.5;exitDx=0;exitDy=0;" edge="1" parent="1" source="MGFOoLs1k42dDcDTjNo5-192" target="MGFOoLs1k42dDcDTjNo5-195">
          <mxGeometry relative="1" as="geometry" />
        </mxCell>
        <mxCell id="MGFOoLs1k42dDcDTjNo5-199" style="edgeStyle=orthogonalEdgeStyle;rounded=0;orthogonalLoop=1;jettySize=auto;html=1;exitX=0.5;exitY=1;exitDx=0;exitDy=0;entryX=0.5;entryY=0;entryDx=0;entryDy=0;" edge="1" parent="1" source="MGFOoLs1k42dDcDTjNo5-192" target="MGFOoLs1k42dDcDTjNo5-194">
          <mxGeometry relative="1" as="geometry" />
        </mxCell>
        <mxCell id="MGFOoLs1k42dDcDTjNo5-192" value="CancelPolicyEnrich" style="rounded=0;whiteSpace=wrap;html=1;fillColor=#FFF2CC;" vertex="1" parent="1">
          <mxGeometry x="22.5" y="4570" width="170" height="30" as="geometry" />
        </mxCell>
        <mxCell id="MGFOoLs1k42dDcDTjNo5-198" style="edgeStyle=orthogonalEdgeStyle;rounded=0;orthogonalLoop=1;jettySize=auto;html=1;exitX=1;exitY=0.5;exitDx=0;exitDy=0;entryX=0;entryY=0.5;entryDx=0;entryDy=0;" edge="1" parent="1" source="MGFOoLs1k42dDcDTjNo5-194" target="MGFOoLs1k42dDcDTjNo5-197">
          <mxGeometry relative="1" as="geometry" />
        </mxCell>
        <mxCell id="MGFOoLs1k42dDcDTjNo5-202" style="edgeStyle=orthogonalEdgeStyle;rounded=0;orthogonalLoop=1;jettySize=auto;html=1;exitX=0.5;exitY=1;exitDx=0;exitDy=0;" edge="1" parent="1" source="MGFOoLs1k42dDcDTjNo5-194" target="MGFOoLs1k42dDcDTjNo5-201">
          <mxGeometry relative="1" as="geometry" />
        </mxCell>
        <mxCell id="MGFOoLs1k42dDcDTjNo5-194" value="HotelRightPaymentSwitcherInitEnrich" style="rounded=0;whiteSpace=wrap;html=1;fillColor=#FFF2CC;" vertex="1" parent="1">
          <mxGeometry x="22.5" y="4620" width="170" height="30" as="geometry" />
        </mxCell>
        <mxCell id="MGFOoLs1k42dDcDTjNo5-195" value="&lt;span style=&quot;color: rgb(51 , 51 , 51) ; font-family: &amp;#34;roboto&amp;#34; , &amp;#34;helvetica neue&amp;#34; , &amp;#34;helvetica&amp;#34; , &amp;#34;tahoma&amp;#34; , &amp;#34;arial&amp;#34; , &amp;#34;pingfang sc&amp;#34; , &amp;#34;microsoft yahei&amp;#34; ; background-color: rgb(229 , 255 , 243)&quot;&gt;1.退订规则&lt;/span&gt;&lt;span style=&quot;color: rgb(51 , 51 , 51) ; font-family: &amp;#34;roboto&amp;#34; , &amp;#34;helvetica neue&amp;#34; , &amp;#34;helvetica&amp;#34; , &amp;#34;tahoma&amp;#34; , &amp;#34;arial&amp;#34; , &amp;#34;pingfang sc&amp;#34; , &amp;#34;microsoft yahei&amp;#34; ; background-color: rgb(229 , 255 , 243)&quot;&gt;&lt;br&gt;&lt;/span&gt;" style="shape=process;whiteSpace=wrap;html=1;backgroundOutline=1;fillColor=#9AC7BF;" vertex="1" parent="1">
          <mxGeometry x="232.5" y="4570" width="370" height="30" as="geometry" />
        </mxCell>
        <mxCell id="MGFOoLs1k42dDcDTjNo5-197" value="&lt;span style=&quot;color: rgb(51 , 51 , 51) ; font-family: &amp;#34;roboto&amp;#34; , &amp;#34;helvetica neue&amp;#34; , &amp;#34;helvetica&amp;#34; , &amp;#34;tahoma&amp;#34; , &amp;#34;arial&amp;#34; , &amp;#34;pingfang sc&amp;#34; , &amp;#34;microsoft yahei&amp;#34; ; background-color: rgb(229 , 255 , 243)&quot;&gt;1.支付可选规则&lt;/span&gt;&lt;span style=&quot;color: rgb(51 , 51 , 51) ; font-family: &amp;#34;roboto&amp;#34; , &amp;#34;helvetica neue&amp;#34; , &amp;#34;helvetica&amp;#34; , &amp;#34;tahoma&amp;#34; , &amp;#34;arial&amp;#34; , &amp;#34;pingfang sc&amp;#34; , &amp;#34;microsoft yahei&amp;#34; ; background-color: rgb(229 , 255 , 243)&quot;&gt;&lt;br&gt;&lt;/span&gt;" style="shape=process;whiteSpace=wrap;html=1;backgroundOutline=1;fillColor=#9AC7BF;" vertex="1" parent="1">
          <mxGeometry x="232.5" y="4620" width="370" height="30" as="geometry" />
        </mxCell>
        <mxCell id="MGFOoLs1k42dDcDTjNo5-201" value="ArrivalTime4PrepayEnrich" style="rounded=0;whiteSpace=wrap;html=1;fillColor=#FFF2CC;" vertex="1" parent="1">
          <mxGeometry x="22.5" y="4670" width="170" height="30" as="geometry" />
        </mxCell>
        <mxCell id="MGFOoLs1k42dDcDTjNo5-203" value="&lt;span style=&quot;color: rgb(51 , 51 , 51) ; font-family: &amp;#34;roboto&amp;#34; , &amp;#34;helvetica neue&amp;#34; , &amp;#34;helvetica&amp;#34; , &amp;#34;tahoma&amp;#34; , &amp;#34;arial&amp;#34; , &amp;#34;pingfang sc&amp;#34; , &amp;#34;microsoft yahei&amp;#34; ; background-color: rgb(229 , 255 , 243)&quot;&gt;1.&lt;/span&gt;&lt;span style=&quot;color: rgb(51 , 51 , 51) ; font-family: &amp;#34;roboto&amp;#34; , &amp;#34;helvetica neue&amp;#34; , &amp;#34;helvetica&amp;#34; , &amp;#34;tahoma&amp;#34; , &amp;#34;arial&amp;#34; , &amp;#34;pingfang sc&amp;#34; , &amp;#34;microsoft yahei&amp;#34; ; font-weight: 700 ; background-color: rgb(250 , 250 , 250)&quot;&gt;收单规则执行结果&lt;/span&gt;&lt;span style=&quot;color: rgb(51 , 51 , 51) ; font-family: &amp;#34;roboto&amp;#34; , &amp;#34;helvetica neue&amp;#34; , &amp;#34;helvetica&amp;#34; , &amp;#34;tahoma&amp;#34; , &amp;#34;arial&amp;#34; , &amp;#34;pingfang sc&amp;#34; , &amp;#34;microsoft yahei&amp;#34; ; background-color: rgb(250 , 250 , 250)&quot;&gt;&lt;br&gt;&lt;/span&gt;&lt;span style=&quot;color: rgb(51 , 51 , 51) ; font-family: &amp;#34;roboto&amp;#34; , &amp;#34;helvetica neue&amp;#34; , &amp;#34;helvetica&amp;#34; , &amp;#34;tahoma&amp;#34; , &amp;#34;arial&amp;#34; , &amp;#34;pingfang sc&amp;#34; , &amp;#34;microsoft yahei&amp;#34; ; background-color: rgb(229 , 255 , 243)&quot;&gt;2.&lt;/span&gt;&lt;span style=&quot;color: rgb(51 , 51 , 51) ; font-family: &amp;#34;roboto&amp;#34; , &amp;#34;helvetica neue&amp;#34; , &amp;#34;helvetica&amp;#34; , &amp;#34;tahoma&amp;#34; , &amp;#34;arial&amp;#34; , &amp;#34;pingfang sc&amp;#34; , &amp;#34;microsoft yahei&amp;#34; ; background-color: rgb(229 , 255 , 243)&quot;&gt;订单域-规则初始化&lt;/span&gt;&lt;span style=&quot;color: rgb(51 , 51 , 51) ; font-family: &amp;#34;roboto&amp;#34; , &amp;#34;helvetica neue&amp;#34; , &amp;#34;helvetica&amp;#34; , &amp;#34;tahoma&amp;#34; , &amp;#34;arial&amp;#34; , &amp;#34;pingfang sc&amp;#34; , &amp;#34;microsoft yahei&amp;#34; ; background-color: rgb(229 , 255 , 243)&quot;&gt;&lt;br&gt;&lt;/span&gt;" style="shape=process;whiteSpace=wrap;html=1;backgroundOutline=1;fillColor=#9AC7BF;" vertex="1" parent="1">
          <mxGeometry x="407.5" y="4250" width="370" height="30" as="geometry" />
        </mxCell>
        <mxCell id="MGFOoLs1k42dDcDTjNo5-216" style="edgeStyle=orthogonalEdgeStyle;rounded=0;orthogonalLoop=1;jettySize=auto;html=1;exitX=0.5;exitY=1;exitDx=0;exitDy=0;entryX=0;entryY=0.5;entryDx=0;entryDy=0;" edge="1" parent="1" source="MGFOoLs1k42dDcDTjNo5-205" target="MGFOoLs1k42dDcDTjNo5-215">
          <mxGeometry relative="1" as="geometry" />
        </mxCell>
        <mxCell id="MGFOoLs1k42dDcDTjNo5-218" style="edgeStyle=orthogonalEdgeStyle;rounded=0;orthogonalLoop=1;jettySize=auto;html=1;exitX=0.5;exitY=1;exitDx=0;exitDy=0;" edge="1" parent="1" source="MGFOoLs1k42dDcDTjNo5-205" target="MGFOoLs1k42dDcDTjNo5-217">
          <mxGeometry relative="1" as="geometry" />
        </mxCell>
        <mxCell id="MGFOoLs1k42dDcDTjNo5-205" value="" style="rounded=0;whiteSpace=wrap;html=1;" vertex="1" parent="1">
          <mxGeometry x="150" y="4770" width="190" height="240" as="geometry" />
        </mxCell>
        <mxCell id="MGFOoLs1k42dDcDTjNo5-206" value="FzOrderValidateActivity.orderValidate" style="text;html=1;strokeColor=none;fillColor=none;align=center;verticalAlign=middle;whiteSpace=wrap;rounded=0;" vertex="1" parent="1">
          <mxGeometry x="172.5" y="4774" width="145" height="30" as="geometry" />
        </mxCell>
        <mxCell id="MGFOoLs1k42dDcDTjNo5-211" style="edgeStyle=orthogonalEdgeStyle;rounded=0;orthogonalLoop=1;jettySize=auto;html=1;exitX=0.5;exitY=1;exitDx=0;exitDy=0;entryX=0.5;entryY=0;entryDx=0;entryDy=0;" edge="1" parent="1" source="MGFOoLs1k42dDcDTjNo5-207" target="MGFOoLs1k42dDcDTjNo5-209">
          <mxGeometry relative="1" as="geometry" />
        </mxCell>
        <mxCell id="MGFOoLs1k42dDcDTjNo5-207" value="subsidyPromotionValidate" style="rounded=0;whiteSpace=wrap;html=1;fillColor=#FFF2CC;" vertex="1" parent="1">
          <mxGeometry x="160" y="4810" width="170" height="30" as="geometry" />
        </mxCell>
        <mxCell id="MGFOoLs1k42dDcDTjNo5-212" style="edgeStyle=orthogonalEdgeStyle;rounded=0;orthogonalLoop=1;jettySize=auto;html=1;exitX=0.5;exitY=1;exitDx=0;exitDy=0;" edge="1" parent="1" source="MGFOoLs1k42dDcDTjNo5-209" target="MGFOoLs1k42dDcDTjNo5-210">
          <mxGeometry relative="1" as="geometry" />
        </mxCell>
        <mxCell id="MGFOoLs1k42dDcDTjNo5-209" value="distributionValidate" style="rounded=0;whiteSpace=wrap;html=1;fillColor=#FFF2CC;" vertex="1" parent="1">
          <mxGeometry x="160" y="4860" width="170" height="30" as="geometry" />
        </mxCell>
        <mxCell id="MGFOoLs1k42dDcDTjNo5-214" style="edgeStyle=orthogonalEdgeStyle;rounded=0;orthogonalLoop=1;jettySize=auto;html=1;exitX=0.5;exitY=1;exitDx=0;exitDy=0;entryX=0.5;entryY=0;entryDx=0;entryDy=0;" edge="1" parent="1" source="MGFOoLs1k42dDcDTjNo5-210" target="MGFOoLs1k42dDcDTjNo5-213">
          <mxGeometry relative="1" as="geometry" />
        </mxCell>
        <mxCell id="MGFOoLs1k42dDcDTjNo5-210" value="certificationValidate" style="rounded=0;whiteSpace=wrap;html=1;fillColor=#FFF2CC;" vertex="1" parent="1">
          <mxGeometry x="160" y="4910" width="170" height="30" as="geometry" />
        </mxCell>
        <mxCell id="MGFOoLs1k42dDcDTjNo5-213" value="onlineBookingValidate" style="rounded=0;whiteSpace=wrap;html=1;fillColor=#FFF2CC;" vertex="1" parent="1">
          <mxGeometry x="160" y="4960" width="170" height="30" as="geometry" />
        </mxCell>
        <mxCell id="MGFOoLs1k42dDcDTjNo5-215" value="&lt;span style=&quot;color: rgb(51 , 51 , 51) ; font-family: &amp;#34;roboto&amp;#34; , &amp;#34;helvetica neue&amp;#34; , &amp;#34;helvetica&amp;#34; , &amp;#34;tahoma&amp;#34; , &amp;#34;arial&amp;#34; , &amp;#34;pingfang sc&amp;#34; , &amp;#34;microsoft yahei&amp;#34; ; background-color: rgb(229 , 255 , 243)&quot;&gt;1.&lt;/span&gt;&lt;span style=&quot;color: rgb(51 , 51 , 51) ; font-family: &amp;#34;roboto&amp;#34; , &amp;#34;helvetica neue&amp;#34; , &amp;#34;helvetica&amp;#34; , &amp;#34;tahoma&amp;#34; , &amp;#34;arial&amp;#34; , &amp;#34;pingfang sc&amp;#34; , &amp;#34;microsoft yahei&amp;#34; ; background-color: rgb(229 , 255 , 243)&quot;&gt;FzValidateActivity执行&lt;/span&gt;&lt;span style=&quot;color: rgb(51 , 51 , 51) ; font-family: &amp;#34;roboto&amp;#34; , &amp;#34;helvetica neue&amp;#34; , &amp;#34;helvetica&amp;#34; , &amp;#34;tahoma&amp;#34; , &amp;#34;arial&amp;#34; , &amp;#34;pingfang sc&amp;#34; , &amp;#34;microsoft yahei&amp;#34; ; background-color: rgb(229 , 255 , 243)&quot;&gt;&lt;br&gt;&lt;/span&gt;" style="shape=process;whiteSpace=wrap;html=1;backgroundOutline=1;fillColor=#9AC7BF;" vertex="1" parent="1">
          <mxGeometry x="410" y="5030" width="370" height="30" as="geometry" />
        </mxCell>
        <mxCell id="MGFOoLs1k42dDcDTjNo5-220" style="edgeStyle=orthogonalEdgeStyle;rounded=0;orthogonalLoop=1;jettySize=auto;html=1;exitX=0;exitY=0.5;exitDx=0;exitDy=0;" edge="1" parent="1" source="MGFOoLs1k42dDcDTjNo5-217" target="MGFOoLs1k42dDcDTjNo5-219">
          <mxGeometry relative="1" as="geometry" />
        </mxCell>
        <mxCell id="MGFOoLs1k42dDcDTjNo5-222" style="edgeStyle=orthogonalEdgeStyle;rounded=0;orthogonalLoop=1;jettySize=auto;html=1;exitX=0.5;exitY=1;exitDx=0;exitDy=0;" edge="1" parent="1" source="MGFOoLs1k42dDcDTjNo5-217" target="MGFOoLs1k42dDcDTjNo5-221">
          <mxGeometry relative="1" as="geometry" />
        </mxCell>
        <mxCell id="MGFOoLs1k42dDcDTjNo5-217" value="loadBuyRender" style="rounded=0;whiteSpace=wrap;html=1;" vertex="1" parent="1">
          <mxGeometry x="100" y="5100" width="290" height="30" as="geometry" />
        </mxCell>
        <mxCell id="MGFOoLs1k42dDcDTjNo5-219" value="&lt;span style=&quot;color: rgb(51 , 51 , 51) ; font-family: &amp;#34;roboto&amp;#34; , &amp;#34;helvetica neue&amp;#34; , &amp;#34;helvetica&amp;#34; , &amp;#34;tahoma&amp;#34; , &amp;#34;arial&amp;#34; , &amp;#34;pingfang sc&amp;#34; , &amp;#34;microsoft yahei&amp;#34; ; background-color: rgb(229 , 255 , 243)&quot;&gt;1.&lt;/span&gt;&lt;span style=&quot;color: rgb(51 , 51 , 51) ; font-family: &amp;#34;roboto&amp;#34; , &amp;#34;helvetica neue&amp;#34; , &amp;#34;helvetica&amp;#34; , &amp;#34;tahoma&amp;#34; , &amp;#34;arial&amp;#34; , &amp;#34;pingfang sc&amp;#34; , &amp;#34;microsoft yahei&amp;#34; ; background-color: rgb(229 , 255 , 243)&quot;&gt;Buy2下单页渲染商品领域模型信息&lt;br&gt;&lt;/span&gt;&lt;span style=&quot;color: rgb(51 , 51 , 51) ; font-family: &amp;#34;roboto&amp;#34; , &amp;#34;helvetica neue&amp;#34; , &amp;#34;helvetica&amp;#34; , &amp;#34;tahoma&amp;#34; , &amp;#34;arial&amp;#34; , &amp;#34;pingfang sc&amp;#34; , &amp;#34;microsoft yahei&amp;#34; ; background-color: rgb(229 , 255 , 243)&quot;&gt;2.&lt;/span&gt;&lt;span style=&quot;color: rgb(51 , 51 , 51) ; font-family: &amp;#34;roboto&amp;#34; , &amp;#34;helvetica neue&amp;#34; , &amp;#34;helvetica&amp;#34; , &amp;#34;tahoma&amp;#34; , &amp;#34;arial&amp;#34; , &amp;#34;pingfang sc&amp;#34; , &amp;#34;microsoft yahei&amp;#34; ; background-color: rgb(229 , 255 , 243)&quot;&gt;Buy2下单页渲染酒店产品领域模型信息&lt;br&gt;&lt;/span&gt;&lt;span style=&quot;color: rgb(51 , 51 , 51) ; font-family: &amp;#34;roboto&amp;#34; , &amp;#34;helvetica neue&amp;#34; , &amp;#34;helvetica&amp;#34; , &amp;#34;tahoma&amp;#34; , &amp;#34;arial&amp;#34; , &amp;#34;pingfang sc&amp;#34; , &amp;#34;microsoft yahei&amp;#34; ; background-color: rgb(229 , 255 , 243)&quot;&gt;3.&lt;/span&gt;&lt;span style=&quot;color: rgb(51 , 51 , 51) ; font-family: &amp;#34;roboto&amp;#34; , &amp;#34;helvetica neue&amp;#34; , &amp;#34;helvetica&amp;#34; , &amp;#34;tahoma&amp;#34; , &amp;#34;arial&amp;#34; , &amp;#34;pingfang sc&amp;#34; , &amp;#34;microsoft yahei&amp;#34; ; background-color: rgb(229 , 255 , 243)&quot;&gt;Buy2下单页渲染卖家领域模型信息&lt;br&gt;&lt;/span&gt;&lt;span style=&quot;color: rgb(51 , 51 , 51) ; font-family: &amp;#34;roboto&amp;#34; , &amp;#34;helvetica neue&amp;#34; , &amp;#34;helvetica&amp;#34; , &amp;#34;tahoma&amp;#34; , &amp;#34;arial&amp;#34; , &amp;#34;pingfang sc&amp;#34; , &amp;#34;microsoft yahei&amp;#34; ; background-color: rgb(229 , 255 , 243)&quot;&gt;4.&lt;/span&gt;&lt;span style=&quot;color: rgb(51 , 51 , 51) ; font-family: &amp;#34;roboto&amp;#34; , &amp;#34;helvetica neue&amp;#34; , &amp;#34;helvetica&amp;#34; , &amp;#34;tahoma&amp;#34; , &amp;#34;arial&amp;#34; , &amp;#34;pingfang sc&amp;#34; , &amp;#34;microsoft yahei&amp;#34; ; background-color: rgb(229 , 255 , 243)&quot;&gt;Buy2下单页渲染查询行业信息入参&lt;br&gt;&lt;/span&gt;&lt;span style=&quot;color: rgb(51 , 51 , 51) ; font-family: &amp;#34;roboto&amp;#34; , &amp;#34;helvetica neue&amp;#34; , &amp;#34;helvetica&amp;#34; , &amp;#34;tahoma&amp;#34; , &amp;#34;arial&amp;#34; , &amp;#34;pingfang sc&amp;#34; , &amp;#34;microsoft yahei&amp;#34; ; background-color: rgb(229 , 255 , 243)&quot;&gt;5.&lt;/span&gt;&lt;span style=&quot;color: rgb(51 , 51 , 51) ; font-family: &amp;#34;roboto&amp;#34; , &amp;#34;helvetica neue&amp;#34; , &amp;#34;helvetica&amp;#34; , &amp;#34;tahoma&amp;#34; , &amp;#34;arial&amp;#34; , &amp;#34;pingfang sc&amp;#34; , &amp;#34;microsoft yahei&amp;#34; ; background-color: rgb(229 , 255 , 243)&quot;&gt;Buy2下单页渲染发票领域模型信息&lt;br&gt;&lt;/span&gt;&lt;span style=&quot;color: rgb(51 , 51 , 51) ; font-family: &amp;#34;roboto&amp;#34; , &amp;#34;helvetica neue&amp;#34; , &amp;#34;helvetica&amp;#34; , &amp;#34;tahoma&amp;#34; , &amp;#34;arial&amp;#34; , &amp;#34;pingfang sc&amp;#34; , &amp;#34;microsoft yahei&amp;#34; ; background-color: rgb(229 , 255 , 243)&quot;&gt;6.&lt;/span&gt;&lt;span style=&quot;color: rgb(51 , 51 , 51) ; font-family: &amp;#34;roboto&amp;#34; , &amp;#34;helvetica neue&amp;#34; , &amp;#34;helvetica&amp;#34; , &amp;#34;tahoma&amp;#34; , &amp;#34;arial&amp;#34; , &amp;#34;pingfang sc&amp;#34; , &amp;#34;microsoft yahei&amp;#34; ; background-color: rgb(229 , 255 , 243)&quot;&gt;Buy2下单页渲染购买规则领域模型信息&lt;br&gt;&lt;/span&gt;&lt;span style=&quot;color: rgb(51 , 51 , 51) ; font-family: &amp;#34;roboto&amp;#34; , &amp;#34;helvetica neue&amp;#34; , &amp;#34;helvetica&amp;#34; , &amp;#34;tahoma&amp;#34; , &amp;#34;arial&amp;#34; , &amp;#34;pingfang sc&amp;#34; , &amp;#34;microsoft yahei&amp;#34; ; background-color: rgb(229 , 255 , 243)&quot;&gt;7.&lt;/span&gt;&lt;span style=&quot;color: rgb(51 , 51 , 51) ; font-family: &amp;#34;roboto&amp;#34; , &amp;#34;helvetica neue&amp;#34; , &amp;#34;helvetica&amp;#34; , &amp;#34;tahoma&amp;#34; , &amp;#34;arial&amp;#34; , &amp;#34;pingfang sc&amp;#34; , &amp;#34;microsoft yahei&amp;#34; ; background-color: rgb(229 , 255 , 243)&quot;&gt;Buy2下单页渲染上下文中统一请求信息&lt;br&gt;&lt;/span&gt;&lt;span style=&quot;color: rgb(51 , 51 , 51) ; font-family: &amp;#34;roboto&amp;#34; , &amp;#34;helvetica neue&amp;#34; , &amp;#34;helvetica&amp;#34; , &amp;#34;tahoma&amp;#34; , &amp;#34;arial&amp;#34; , &amp;#34;pingfang sc&amp;#34; , &amp;#34;microsoft yahei&amp;#34; ; background-color: rgb(229 , 255 , 243)&quot;&gt;8.&lt;/span&gt;&lt;span style=&quot;color: rgb(51 , 51 , 51) ; font-family: &amp;#34;roboto&amp;#34; , &amp;#34;helvetica neue&amp;#34; , &amp;#34;helvetica&amp;#34; , &amp;#34;tahoma&amp;#34; , &amp;#34;arial&amp;#34; , &amp;#34;pingfang sc&amp;#34; , &amp;#34;microsoft yahei&amp;#34; ; background-color: rgb(229 , 255 , 243)&quot;&gt;Buy2下单页渲染查询酒店行业信息成功&lt;br&gt;&lt;/span&gt;&lt;span style=&quot;color: rgb(51 , 51 , 51) ; font-family: &amp;#34;roboto&amp;#34; , &amp;#34;helvetica neue&amp;#34; , &amp;#34;helvetica&amp;#34; , &amp;#34;tahoma&amp;#34; , &amp;#34;arial&amp;#34; , &amp;#34;pingfang sc&amp;#34; , &amp;#34;microsoft yahei&amp;#34; ; background-color: rgb(229 , 255 , 243)&quot;&gt;9.&lt;/span&gt;&lt;span style=&quot;color: rgb(51 , 51 , 51) ; font-family: &amp;#34;roboto&amp;#34; , &amp;#34;helvetica neue&amp;#34; , &amp;#34;helvetica&amp;#34; , &amp;#34;tahoma&amp;#34; , &amp;#34;arial&amp;#34; , &amp;#34;pingfang sc&amp;#34; , &amp;#34;microsoft yahei&amp;#34; ; background-color: rgb(229 , 255 , 243)&quot;&gt;Buy2下单页渲染会员权益信息&lt;br&gt;&lt;/span&gt;&lt;span style=&quot;color: rgb(51 , 51 , 51) ; font-family: &amp;#34;roboto&amp;#34; , &amp;#34;helvetica neue&amp;#34; , &amp;#34;helvetica&amp;#34; , &amp;#34;tahoma&amp;#34; , &amp;#34;arial&amp;#34; , &amp;#34;pingfang sc&amp;#34; , &amp;#34;microsoft yahei&amp;#34; ; background-color: rgb(229 , 255 , 243)&quot;&gt;10.&lt;/span&gt;&lt;span style=&quot;color: rgb(51 , 51 , 51) ; font-family: &amp;#34;roboto&amp;#34; , &amp;#34;helvetica neue&amp;#34; , &amp;#34;helvetica&amp;#34; , &amp;#34;tahoma&amp;#34; , &amp;#34;arial&amp;#34; , &amp;#34;pingfang sc&amp;#34; , &amp;#34;microsoft yahei&amp;#34; ; background-color: rgb(229 , 255 , 243)&quot;&gt;Buy2下单页渲染买家领域模型信息&lt;/span&gt;&lt;span style=&quot;color: rgb(51 , 51 , 51) ; font-family: &amp;#34;roboto&amp;#34; , &amp;#34;helvetica neue&amp;#34; , &amp;#34;helvetica&amp;#34; , &amp;#34;tahoma&amp;#34; , &amp;#34;arial&amp;#34; , &amp;#34;pingfang sc&amp;#34; , &amp;#34;microsoft yahei&amp;#34; ; background-color: rgb(229 , 255 , 243)&quot;&gt;&lt;br&gt;&lt;/span&gt;" style="shape=process;whiteSpace=wrap;html=1;backgroundOutline=1;fillColor=#9AC7BF;" vertex="1" parent="1">
          <mxGeometry x="-413" y="5000" width="370" height="230" as="geometry" />
        </mxCell>
        <mxCell id="MGFOoLs1k42dDcDTjNo5-221" value="end" style="ellipse;whiteSpace=wrap;html=1;aspect=fixed;" vertex="1" parent="1">
          <mxGeometry x="205" y="5220" width="80" height="80" as="geometry" />
        </mxCell>
      </root>
    </mxGraphModel>
  </diagram>
</mxfile>
